{
.appVersion = "1131";
copyright = "Copyright © 2018 by Cadson Demak Co.,Ltd.. All rights reserved.";
customParameters = (
{
name = vendorID;
value = CDK;
},
{
name = description;
value = "Copyright (c) 2018, Cadson Demak (info@cadsondemak.com)";
},
{
name = license;

glyphs = (
{
color = 4;
glyphname = A;
lastChange = "2018-03-15 18:09:32 +0000";
layers = (
{
anchors = (
{
name = bottom;
position = "{340, 0}";
},
{
name = ogonek;
position = "{678, 10}";
},
{
name = top;
position = "{593, 700}";
}
);
layerId = "4C458150-A1D2-4ED7-A293-C8767657F79E";
paths = (
{
closed = 1;
nodes = (
"164 -11 OFFCURVE",
"233 115 OFFCURVE",
"321 256 CURVE SMOOTH",
"388 363 OFFCURVE",
"429 430 OFFCURVE",
"560 650 CURVE",
"552 655 LINE",
"554 626 OFFCURVE",
"557 317 OFFCURVE",
"559 271 CURVE",
"573 287 LINE",
"555 286 OFFCURVE",
"500 283 OFFCURVE",
"457 283 CURVE SMOOTH",
"374 283 OFFCURVE",
"257 294 OFFCURVE",
"227 306 CURVE",
"219 298 OFFCURVE",
"212 278 OFFCURVE",
"214 271 CURVE SMOOTH",
"218 255 OFFCURVE",
"282 245 OFFCURVE",
"389 245 CURVE SMOOTH",
"423 245 OFFCURVE",
"515 246 OFFCURVE",
"527 246 CURVE SMOOTH",
"554 246 OFFCURVE",
"563 241 OFFCURVE",
"567 212 CURVE SMOOTH",
"578 134 OFFCURVE",
"600 -6 OFFCURVE",
"679 -6 CURVE SMOOTH",
"724 -6 OFFCURVE",
"803 41 OFFCURVE",
"803 90 CURVE SMOOTH",
"803 98 OFFCURVE",
"801 104 OFFCURVE",
"799 109 CURVE",
"768 73 OFFCURVE",
"728 47 OFFCURVE",
"699 47 CURVE SMOOTH",
"637 47 OFFCURVE",
"620 169 OFFCURVE",
"610 334 CURVE SMOOTH",
"604 432 OFFCURVE",
"601 538 OFFCURVE",
"603 610 CURVE SMOOTH",
"604 655 OFFCURVE",
"608 703 OFFCURVE",
"626 735 CURVE",
"619 737 OFFCURVE",
"606 740 OFFCURVE",
"593 740 CURVE SMOOTH",
"579 740 OFFCURVE",
"566 736 OFFCURVE",
"550 710 CURVE SMOOTH",
"461 568 OFFCURVE",
"328 345 OFFCURVE",
"275 259 CURVE SMOOTH",
"194 127 OFFCURVE",
"130 36 OFFCURVE",
"50 36 CURVE SMOOTH",
"-4 36 OFFCURVE",
"-30 77 OFFCURVE",
"-30 132 CURVE",
"-47 124 OFFCURVE",
"-65 100 OFFCURVE",
"-63 71 CURVE SMOOTH",
"-60 38 OFFCURVE",
"-32 -11 OFFCURVE",
"43 -11 CURVE SMOOTH"
);
}
);
width = 800;
},
{
anchors = (
{
name = bottom;
position = "{385, 0}";
},
{
name = ogonek;
position = "{714, 10}";
},
{
name = top;
position = "{610, 700}";
}
);
layerId = "73F3E0E0-4CEF-4E72-8F22-4B031C019FE7";
paths = (
{
closed = 1;
nodes = (
"146 -11 OFFCURVE",
"229 65 OFFCURVE",
"345 258 CURVE SMOOTH",
"495 507 OFFCURVE",
"364 298 OFFCURVE",
"577 638 CURVE",
"550 638 LINE",
"528 513 OFFCURVE",
"535 461 OFFCURVE",
"535 259 CURVE",
"573 285 LINE",
"553 286 OFFCURVE",
"508 283 OFFCURVE",
"465 283 CURVE SMOOTH",
"383 283 OFFCURVE",
"278 294 OFFCURVE",
"245 306 CURVE",
"239 301 OFFCURVE",
"233 283 OFFCURVE",
"231 270 CURVE SMOOTH",
"226 239 OFFCURVE",
"249 235 OFFCURVE",
"322 235 CURVE SMOOTH",
"358 235 OFFCURVE",
"488 236 OFFCURVE",
"500 236 CURVE SMOOTH",
"531 236 OFFCURVE",
"538 230 OFFCURVE",
"542 202 CURVE SMOOTH",
"549 157 OFFCURVE",
"558 -6 OFFCURVE",
"673 -6 CURVE SMOOTH",
"736 -6 OFFCURVE",
"811 42 OFFCURVE",
"819 93 CURVE SMOOTH",
"822 110 OFFCURVE",
"815 119 OFFCURVE",
"808 124 CURVE",
"786 93 OFFCURVE",
"756 68 OFFCURVE",
"723 68 CURVE SMOOTH",
"648 68 OFFCURVE",
"637 197 OFFCURVE",
"627 334 CURVE SMOOTH",
"622 402 OFFCURVE",
"618 546 OFFCURVE",
"620 610 CURVE SMOOTH",
"621 657 OFFCURVE",
"628 710 OFFCURVE",
"643 735 CURVE",
"636 737 OFFCURVE",
"622 740 OFFCURVE",
"612 740 CURVE SMOOTH",
"590 740 OFFCURVE",
"580 727 OFFCURVE",
"566 706 CURVE SMOOTH",
"538 663 OFFCURVE",
"392 416 OFFCURVE",
"292 266 CURVE SMOOTH",
"182 101 OFFCURVE",
"125 53 OFFCURVE",
"55 53 CURVE SMOOTH",
"23 53 OFFCURVE",
"6 63 OFFCURVE",
"6 120 CURVE",
"-31 111 OFFCURVE",
"-51 83 OFFCURVE",
"-51 54 CURVE SMOOTH",
"-51 18 OFFCURVE",
"-21 -11 OFFCURVE",
"43 -11 CURVE SMOOTH"
);
}
);
width = 820;
}
);
note = A;
unicode = 0041;
},
{
color = 4;
glyphname = B;
lastChange = "2018-03-15 16:06:01 +0000";
layers = (
{
layerId = "4C458150-A1D2-4ED7-A293-C8767657F79E";
paths = (
{
closed = 1;
nodes = (
"553 -17 OFFCURVE",
"636 108 OFFCURVE",
"636 208 CURVE SMOOTH",
"636 314 OFFCURVE",
"543 373 OFFCURVE",
"435 373 CURVE",
"436 363 LINE",
"544 388 OFFCURVE",
"623 467 OFFCURVE",
"623 560 CURVE SMOOTH",
"623 692 OFFCURVE",
"461 696 OFFCURVE",
"283 700 CURVE SMOOTH",
"223 701 OFFCURVE",
"269 701 OFFCURVE",
"146 703 CURVE SMOOTH",
"95 704 OFFCURVE",
"85 705 OFFCURVE",
"72 717 CURVE",
"68 706 OFFCURVE",
"65 681 OFFCURVE",
"66 671 CURVE SMOOTH",
"68 653 OFFCURVE",
"82 648 OFFCURVE",
"96 648 CURVE SMOOTH",
"125 648 OFFCURVE",
"189 668 OFFCURVE",
"220 668 CURVE SMOOTH",
"232 668 OFFCURVE",
"236 665 OFFCURVE",
"236 657 CURVE SMOOTH",
"236 617 OFFCURVE",
"148 253 OFFCURVE",
"110 96 CURVE SMOOTH",
"102 63 OFFCURVE",
"93 42 OFFCURVE",
"78 15 CURVE",
"94 8 OFFCURVE",
"97 7 OFFCURVE",
"106 7 CURVE SMOOTH",
"125 7 OFFCURVE",
"144 12 OFFCURVE",
"153 62 CURVE SMOOTH",
"179 200 OFFCURVE",
"214 384 OFFCURVE",
"262 564 CURVE SMOOTH",
"288 660 OFFCURVE",
"293 669 OFFCURVE",
"358 669 CURVE SMOOTH",
"479 669 OFFCURVE",
"561 638 OFFCURVE",
"561 542 CURVE SMOOTH",
"561 445 OFFCURVE",
"479 387 OFFCURVE",
"376 387 CURVE SMOOTH",
"352 387 OFFCURVE",
"321 390 OFFCURVE",
"305 391 CURVE",
"298 385 OFFCURVE",
"297 373 OFFCURVE",
"298 361 CURVE SMOOTH",
"299 345 OFFCURVE",
"304 338 OFFCURVE",
"310 337 CURVE",
"342 341 OFFCURVE",
"378 341 OFFCURVE",
"408 341 CURVE SMOOTH",
"511 341 OFFCURVE",
"573 290 OFFCURVE",
"573 206 CURVE SMOOTH",
"573 108 OFFCURVE",
"488 24 OFFCURVE",
"346 24 CURVE SMOOTH",
"251 24 OFFCURVE",
"186 62 OFFCURVE",
"147 97 CURVE",
"130 94 OFFCURVE",
"124 83 OFFCURVE",
"124 74 CURVE SMOOTH",
"124 37 OFFCURVE",
"230 -17 OFFCURVE",
"358 -17 CURVE SMOOTH"
);
}
);
width = 700;
},
{
layerId = "73F3E0E0-4CEF-4E72-8F22-4B031C019FE7";
paths = (
{
closed = 1;
nodes = (
"523 -17 OFFCURVE",
"658 71 OFFCURVE",
"658 208 CURVE SMOOTH",
"658 331 OFFCURVE",
"548 371 OFFCURVE",
"463 376 CURVE",
"464 366 LINE",
"564 384 OFFCURVE",
"664 426 OFFCURVE",
"664 528 CURVE SMOOTH",
"664 643 OFFCURVE",
"537 700 OFFCURVE",
"356 700 CURVE SMOOTH",
"267 700 OFFCURVE",
"192 700 OFFCURVE",
"125 700 CURVE SMOOTH",
"69 700 OFFCURVE",
"64 707 OFFCURVE",
"51 714 CURVE",
"46 705 OFFCURVE",
"38 681 OFFCURVE",
"36 667 CURVE SMOOTH",
"33 647 OFFCURVE",
"45 642 OFFCURVE",
"65 642 CURVE SMOOTH",
"96 642 OFFCURVE",
"167 655 OFFCURVE",
"202 655 CURVE SMOOTH",
"219 655 OFFCURVE",
"225 652 OFFCURVE",
"225 639 CURVE SMOOTH",
"225 593 OFFCURVE",
"144 220 OFFCURVE",
"112 86 CURVE SMOOTH",
"104 53 OFFCURVE",
"100 33 OFFCURVE",
"81 5 CURVE",
"95 0 OFFCURVE",
"124 -3 OFFCURVE",
"144 -3 CURVE SMOOTH",
"187 -3 OFFCURVE",
"197 11 OFFCURVE",
"203 41 CURVE SMOOTH",
"208 66 OFFCURVE",
"219 153 OFFCURVE",
"299 554 CURVE SMOOTH",
"316 641 OFFCURVE",
"330 656 OFFCURVE",
"397 656 CURVE SMOOTH",
"501 656 OFFCURVE",
"561 620 OFFCURVE",
"561 541 CURVE SMOOTH",
"561 453 OFFCURVE",
"488 392 OFFCURVE",
"398 392 CURVE SMOOTH",
"378 392 OFFCURVE",
"346 395 OFFCURVE",
"329 396 CURVE",
"325 394 OFFCURVE",
"323 390 OFFCURVE",
"323 380 CURVE SMOOTH",
"323 359 OFFCURVE",
"334 341 OFFCURVE",
"343 332 CURVE",
"375 336 OFFCURVE",
"391 336 OFFCURVE",
"421 336 CURVE SMOOTH",
"515 336 OFFCURVE",
"555 296 OFFCURVE",
"555 213 CURVE SMOOTH",
"555 108 OFFCURVE",
"490 36 OFFCURVE",
"353 36 CURVE SMOOTH",
"276 36 OFFCURVE",
"220 59 OFFCURVE",
"173 110 CURVE",
"167 106 OFFCURVE",
"147 79 OFFCURVE",
"147 62 CURVE SMOOTH",
"147 25 OFFCURVE",
"243 -17 OFFCURVE",
"357 -17 CURVE SMOOTH"
);
}
);
width = 730;
}
);
note = B;
unicode = 0042;
},
{
color = 4;
glyphname = C;
lastChange = "2018-03-15 16:07:54 +0000";
layers = (
{
anchors = (
{
name = bottom;
position = "{343, 0}";
},
{
name = top;
position = "{496, 700}";
}
);
layerId = "4C458150-A1D2-4ED7-A293-C8767657F79E";
paths = (
{
closed = 1;
nodes = (
"546 -17 OFFCURVE",
"713 157 OFFCURVE",
"713 258 CURVE SMOOTH",
"713 284 OFFCURVE",
"702 295 OFFCURVE",
"686 295 CURVE",
"621 121 OFFCURVE",
"487 31 OFFCURVE",
"352 31 CURVE SMOOTH",
"235 31 OFFCURVE",
"133 99 OFFCURVE",
"133 257 CURVE SMOOTH",
"133 452 OFFCURVE",
"287 674 OFFCURVE",
"511 674 CURVE SMOOTH",
"603 674 OFFCURVE",
"640 636 OFFCURVE",
"649 577 CURVE SMOOTH",
"652 558 OFFCURVE",
"655 513 OFFCURVE",
"655 500 CURVE",
"680 504 LINE",
"682 551 OFFCURVE",
"693 609 OFFCURVE",
"706 644 CURVE",
"676 690 OFFCURVE",
"590 716 OFFCURVE",
"508 716 CURVE SMOOTH",
"265 716 OFFCURVE",
"75 487 OFFCURVE",
"75 255 CURVE SMOOTH",
"75 65 OFFCURVE",
"203 -17 OFFCURVE",
"343 -17 CURVE SMOOTH"
);
}
);
width = 760;
},
{
anchors = (
{
name = bottom;
position = "{333, 0}";
},
{
name = top;
position = "{458, 680}";
}
);
layerId = "73F3E0E0-4CEF-4E72-8F22-4B031C019FE7";
paths = (
{
closed = 1;
nodes = (
"538 -17 OFFCURVE",
"675 109 OFFCURVE",
"675 217 CURVE SMOOTH",
"675 249 OFFCURVE",
"663 265 OFFCURVE",
"631 265 CURVE",
"597 148 OFFCURVE",
"507 41 OFFCURVE",
"361 41 CURVE SMOOTH",
"244 41 OFFCURVE",
"164 109 OFFCURVE",
"164 268 CURVE SMOOTH",
"164 461 OFFCURVE",
"283 664 OFFCURVE",
"481 664 CURVE SMOOTH",
"581 664 OFFCURVE",
"627 612 OFFCURVE",
"645 557 CURVE SMOOTH",
"653 534 OFFCURVE",
"656 504 OFFCURVE",
"654 480 CURVE",
"687 484 LINE",
"691 534 OFFCURVE",
"701 598 OFFCURVE",
"722 629 CURVE",
"692 676 OFFCURVE",
"596 716 OFFCURVE",
"490 716 CURVE SMOOTH",
"244 716 OFFCURVE",
"66 501 OFFCURVE",
"66 266 CURVE SMOOTH",
"66 76 OFFCURVE",
"182 -17 OFFCURVE",
"347 -17 CURVE SMOOTH"
);
}
);
width = 760;
}
);
note = C;
unicode = 0043;
},
{
color = 4;
glyphname = D;
lastChange = "2018-03-15 16:08:15 +0000";
layers = (
{
anchors = (
{
name = bottom;
position = "{424, 0}";
},
{
name = center;
position = "{486, 350}";
},
{
name = top;
position = "{569, 700}";
}
);
layerId = "4C458150-A1D2-4ED7-A293-C8767657F79E";
paths = (
{
closed = 1;
nodes = (
"611 -13 OFFCURVE",
"777 133 OFFCURVE",
"777 378 CURVE SMOOTH",
"777 628 OFFCURVE",
"603 705 OFFCURVE",
"392 705 CURVE SMOOTH",
"312 705 OFFCURVE",
"194 694 OFFCURVE",
"119 694 CURVE SMOOTH",
"69 694 OFFCURVE",
"57 699 OFFCURVE",
"35 709 CURVE",
"32 700 OFFCURVE",
"30 692 OFFCURVE",
"30 681 CURVE SMOOTH",
"30 652 OFFCURVE",
"45 644 OFFCURVE",
"73 644 CURVE SMOOTH",
"116 644 OFFCURVE",
"210 662 OFFCURVE",
"235 662 CURVE SMOOTH",
"251 662 OFFCURVE",
"256 654 OFFCURVE",
"256 643 CURVE SMOOTH",
"256 598 OFFCURVE",
"163 146 OFFCURVE",
"152 96 CURVE SMOOTH",
"147 73 OFFCURVE",
"140 64 OFFCURVE",
"129 50 CURVE",
"150 37 OFFCURVE",
"152 36 OFFCURVE",
"170 35 CURVE SMOOTH",
"232 31 OFFCURVE",
"293 -13 OFFCURVE",
"406 -13 CURVE SMOOTH"
);
},
{
closed = 1;
nodes = (
"342 30 OFFCURVE",
"275 50 OFFCURVE",
"231 81 CURVE SMOOTH",
"219 89 OFFCURVE",
"214 97 OFFCURVE",
"214 105 CURVE SMOOTH",
"214 112 OFFCURVE",
"219 138 OFFCURVE",
"221 147 CURVE SMOOTH",
"251 302 OFFCURVE",
"276 430 OFFCURVE",
"318 639 CURVE SMOOTH",
"323 661 OFFCURVE",
"339 668 OFFCURVE",
"396 668 CURVE SMOOTH",
"561 668 OFFCURVE",
"720 609 OFFCURVE",
"720 386 CURVE SMOOTH",
"720 176 OFFCURVE",
"580 30 OFFCURVE",
"406 30 CURVE SMOOTH"
);
}
);
width = 820;
},
{
anchors = (
{
name = bottom;
position = "{357, 0}";
},
{
name = center;
position = "{419, 350}";
},
{
name = top;
position = "{477, 680}";
}
);
layerId = "73F3E0E0-4CEF-4E72-8F22-4B031C019FE7";
paths = (
{
closed = 1;
nodes = (
"651 -13 OFFCURVE",
"777 218 OFFCURVE",
"777 416 CURVE SMOOTH",
"777 608 OFFCURVE",
"659 707 OFFCURVE",
"425 707 CURVE SMOOTH",
"340 707 OFFCURVE",
"220 694 OFFCURVE",
"122 694 CURVE SMOOTH",
"75 694 OFFCURVE",
"61 697 OFFCURVE",
"44 703 CURVE",
"39 694 OFFCURVE",
"28 666 OFFCURVE",
"28 650 CURVE SMOOTH",
"28 633 OFFCURVE",
"39 624 OFFCURVE",
"64 624 CURVE SMOOTH",
"102 624 OFFCURVE",
"186 645 OFFCURVE",
"205 645 CURVE SMOOTH",
"215 645 OFFCURVE",
"219 639 OFFCURVE",
"219 633 CURVE SMOOTH",
"219 607 OFFCURVE",
"129 121 OFFCURVE",
"114 64 CURVE SMOOTH",
"108 41 OFFCURVE",
"101 32 OFFCURVE",
"91 18 CURVE",
"110 6 OFFCURVE",
"114 4 OFFCURVE",
"132 3 CURVE SMOOTH",
"208 -1 OFFCURVE",
"266 -13 OFFCURVE",
"337 -13 CURVE SMOOTH"
);
},
{
closed = 1;
nodes = (
"311 40 OFFCURVE",
"263 50 OFFCURVE",
"235 63 CURVE SMOOTH",
"223 69 OFFCURVE",
"217 73 OFFCURVE",
"217 85 CURVE SMOOTH",
"217 99 OFFCURVE",
"224 129 OFFCURVE",
"228 150 CURVE SMOOTH",
"259 312 OFFCURVE",
"304 546 OFFCURVE",
"319 619 CURVE SMOOTH",
"325 648 OFFCURVE",
"329 660 OFFCURVE",
"406 660 CURVE SMOOTH",
"597 660 OFFCURVE",
"678 585 OFFCURVE",
"678 422 CURVE SMOOTH",
"678 226 OFFCURVE",
"562 40 OFFCURVE",
"358 40 CURVE SMOOTH"
);
}
);
width = 830;
}
);
note = D;
unicode = 0044;
},
{
color = 4;
glyphname = E;
lastChange = "2018-03-15 16:09:26 +0000";
layers = (
{
anchors = (
{
name = bottom;
position = "{383, 0}";
},
{
name = ogonek;
position = "{632, 31}";
},
{
name = top;
position = "{485, 700}";
},
{
name = topleft;
position = "{107, 700}";
}
);
layerId = "4C458150-A1D2-4ED7-A293-C8767657F79E";
paths = (
{
closed = 1;
nodes = (
"436 -13 OFFCURVE",
"513 -5 OFFCURVE",
"611 15 CURVE SMOOTH",
"631 19 OFFCURVE",
"645 30 OFFCURVE",
"649 44 CURVE SMOOTH",
"652 55 OFFCURVE",
"657 102 OFFCURVE",
"668 114 CURVE",
"666 117 OFFCURVE",
"663 120 OFFCURVE",
"660 120 CURVE",
"579 44 OFFCURVE",
"428 32 OFFCURVE",
"316 32 CURVE SMOOTH",
"244 32 OFFCURVE",
"204 37 OFFCURVE",
"200 86 CURVE SMOOTH",
"194 172 OFFCURVE",
"287 498 OFFCURVE",
"341 645 CURVE SMOOTH",
"347 660 OFFCURVE",
"352 662 OFFCURVE",
"386 662 CURVE SMOOTH",
"449 662 OFFCURVE",
"603 655 OFFCURVE",
"644 647 CURVE SMOOTH",
"667 643 OFFCURVE",
"671 633 OFFCURVE",
"676 615 CURVE",
"686 614 LINE",
"688 636 OFFCURVE",
"710 678 OFFCURVE",
"714 688 CURVE",
"710 695 OFFCURVE",
"702 703 OFFCURVE",
"694 703 CURVE SMOOTH",
"594 703 OFFCURVE",
"343 702 OFFCURVE",
"297 702 CURVE SMOOTH",
"231 702 OFFCURVE",
"174 704 OFFCURVE",
"107 709 CURVE",
"100 702 OFFCURVE",
"90 664 OFFCURVE",
"91 645 CURVE",
"95 644 LINE",
"136 657 OFFCURVE",
"190 660 OFFCURVE",
"256 660 CURVE SMOOTH",
"261 660 OFFCURVE",
"265 658 OFFCURVE",
"267 655 CURVE SMOOTH",
"280 628 OFFCURVE",
"142 150 OFFCURVE",
"142 62 CURVE SMOOTH",
"142 15 OFFCURVE",
"182 -13 OFFCURVE",
"348 -13 CURVE SMOOTH"
);
},
{
closed = 1;
nodes = (
"224 349 OFFCURVE",
"523 349 OFFCURVE",
"587 349 CURVE SMOOTH",
"596 349 OFFCURVE",
"601 353 OFFCURVE",
"602 360 CURVE SMOOTH",
"606 385 OFFCURVE",
"608 397 OFFCURVE",
"614 408 CURVE",
"608 413 LINE",
"543 395 OFFCURVE",
"484 395 OFFCURVE",
"372 395 CURVE SMOOTH",
"341 395 OFFCURVE",
"215 395 OFFCURVE",
"187 395 CURVE SMOOTH",
"174 395 OFFCURVE",
"156 369 OFFCURVE",
"156 359 CURVE SMOOTH",
"156 353 OFFCURVE",
"163 349 OFFCURVE",
"176 349 CURVE"
);
}
);
width = 712;
},
{
anchors = (
{
name = bottom;
position = "{346, 0}";
},
{
name = ogonek;
position = "{584, 23}";
},
{
name = top;
position = "{466, 680}";
},
{
name = topleft;
position = "{86, 700}";
}
);
layerId = "73F3E0E0-4CEF-4E72-8F22-4B031C019FE7";
paths = (
{
closed = 1;
nodes = (
"407 -13 OFFCURVE",
"481 -4 OFFCURVE",
"579 15 CURVE SMOOTH",
"616 22 OFFCURVE",
"623 51 OFFCURVE",
"631 92 CURVE SMOOTH",
"635 114 OFFCURVE",
"637 120 OFFCURVE",
"645 133 CURVE",
"645 135 OFFCURVE",
"642 137 OFFCURVE",
"638 138 CURVE",
"557 62 OFFCURVE",
"403 46 OFFCURVE",
"304 46 CURVE SMOOTH",
"230 46 OFFCURVE",
"200 55 OFFCURVE",
"200 106 CURVE SMOOTH",
"200 193 OFFCURVE",
"285 563 OFFCURVE",
"313 634 CURVE SMOOTH",
"319 648 OFFCURVE",
"322 651 OFFCURVE",
"352 651 CURVE SMOOTH",
"417 651 OFFCURVE",
"537 637 OFFCURVE",
"620 626 CURVE SMOOTH",
"644 623 OFFCURVE",
"648 606 OFFCURVE",
"652 591 CURVE",
"662 593 LINE",
"664 615 OFFCURVE",
"690 677 OFFCURVE",
"694 687 CURVE",
"690 694 OFFCURVE",
"682 702 OFFCURVE",
"674 702 CURVE SMOOTH",
"574 702 OFFCURVE",
"323 701 OFFCURVE",
"277 701 CURVE SMOOTH",
"211 701 OFFCURVE",
"154 703 OFFCURVE",
"87 708 CURVE",
"80 696 OFFCURVE",
"71 651 OFFCURVE",
"70 634 CURVE",
"73 633 LINE",
"115 646 OFFCURVE",
"145 649 OFFCURVE",
"176 649 CURVE SMOOTH",
"202 649 OFFCURVE",
"208 647 OFFCURVE",
"208 628 CURVE SMOOTH",
"208 549 OFFCURVE",
"106 212 OFFCURVE",
"106 95 CURVE SMOOTH",
"106 4 OFFCURVE",
"167 -13 OFFCURVE",
"306 -13 CURVE SMOOTH"
);
},
{
closed = 1;
nodes = (
"148 349 OFFCURVE",
"527 344 OFFCURVE",
"558 344 CURVE SMOOTH",
"572 344 OFFCURVE",
"577 345 OFFCURVE",
"581 362 CURVE SMOOTH",
"585 377 OFFCURVE",
"583 385 OFFCURVE",
"595 418 CURVE",
"590 423 LINE",
"541 408 OFFCURVE",
"495 405 OFFCURVE",
"356 405 CURVE SMOOTH",
"277 405 OFFCURVE",
"186 405 OFFCURVE",
"159 405 CURVE SMOOTH",
"148 405 OFFCURVE",
"127 367 OFFCURVE",
"126 357 CURVE SMOOTH",
"125 352 OFFCURVE",
"129 349 OFFCURVE",
"137 349 CURVE SMOOTH"
);
}
);
width = 712;
}
);
note = E;
unicode = 0045;
},
{
color = 4;
glyphname = F;
lastChange = "2018-03-15 16:10:42 +0000";
layers = (
{
layerId = "4C458150-A1D2-4ED7-A293-C8767657F79E";
paths = (
{
closed = 1;
nodes = (
"114 -4 OFFCURVE",
"134 -3 OFFCURVE",
"146 3 CURVE",
"146 6 OFFCURVE",
"145 14 OFFCURVE",
"145 17 CURVE SMOOTH",
"145 51 OFFCURVE",
"253 580 OFFCURVE",
"270 641 CURVE SMOOTH",
"275 657 OFFCURVE",
"277 662 OFFCURVE",
"305 662 CURVE SMOOTH",
"351 662 OFFCURVE",
"534 648 OFFCURVE",
"602 648 CURVE SMOOTH",
"611 648 OFFCURVE",
"615 654 OFFCURVE",
"617 665 CURVE SMOOTH",
"619 678 OFFCURVE",
"622 707 OFFCURVE",
"631 719 CURVE",
"629 722 OFFCURVE",
"626 724 OFFCURVE",
"622 725 CURVE",
"583 702 OFFCURVE",
"545 700 OFFCURVE",
"400 700 CURVE SMOOTH",
"297 700 OFFCURVE",
"234 701 OFFCURVE",
"134 707 CURVE",
"125 692 OFFCURVE",
"121 672 OFFCURVE",
"121 667 CURVE SMOOTH",
"121 663 OFFCURVE",
"123 661 OFFCURVE",
"133 661 CURVE SMOOTH",
"144 661 OFFCURVE",
"178 664 OFFCURVE",
"191 664 CURVE SMOOTH",
"210 664 OFFCURVE",
"216 658 OFFCURVE",
"216 648 CURVE SMOOTH",
"216 621 OFFCURVE",
"176 449 OFFCURVE",
"89 47 CURVE SMOOTH",
"86 33 OFFCURVE",
"83 20 OFFCURVE",
"83 11 CURVE SMOOTH",
"83 -3 OFFCURVE",
"90 -4 OFFCURVE",
"102 -4 CURVE SMOOTH"
);
},
{
closed = 1;
nodes = (
"541 339 OFFCURVE",
"550 375 OFFCURVE",
"554 382 CURVE",
"550 386 LINE",
"485 367 OFFCURVE",
"414 362 OFFCURVE",
"334 362 CURVE SMOOTH",
"284 362 OFFCURVE",
"239 364 OFFCURVE",
"204 367 CURVE",
"193 325 LINE",
"274 325 OFFCURVE",
"509 323 OFFCURVE",
"541 323 CURVE"
);
}
);
width = 563;
},
{
layerId = "73F3E0E0-4CEF-4E72-8F22-4B031C019FE7";
paths = (
{
closed = 1;
nodes = (
"119 -2 OFFCURVE",
"142 5 OFFCURVE",
"157 12 CURVE",
"156 16 OFFCURVE",
"156 22 OFFCURVE",
"156 32 CURVE SMOOTH",
"156 70 OFFCURVE",
"250 548 OFFCURVE",
"264 619 CURVE SMOOTH",
"268 638 OFFCURVE",
"275 642 OFFCURVE",
"299 642 CURVE SMOOTH",
"349 642 OFFCURVE",
"505 625 OFFCURVE",
"574 625 CURVE SMOOTH",
"583 625 OFFCURVE",
"587 631 OFFCURVE",
"589 642 CURVE SMOOTH",
"591 655 OFFCURVE",
"600 706 OFFCURVE",
"608 716 CURVE",
"606 719 OFFCURVE",
"603 722 OFFCURVE",
"599 722 CURVE",
"566 705 OFFCURVE",
"515 700 OFFCURVE",
"352 700 CURVE SMOOTH",
"279 700 OFFCURVE",
"187 701 OFFCURVE",
"88 707 CURVE",
"83 695 OFFCURVE",
"72 670 OFFCURVE",
"72 659 CURVE SMOOTH",
"72 652 OFFCURVE",
"77 649 OFFCURVE",
"87 649 CURVE SMOOTH",
"96 649 OFFCURVE",
"139 652 OFFCURVE",
"154 652 CURVE SMOOTH",
"167 652 OFFCURVE",
"172 650 OFFCURVE",
"172 642 CURVE SMOOTH",
"172 612 OFFCURVE",
"96 246 OFFCURVE",
"66 96 CURVE SMOOTH",
"57 51 OFFCURVE",
"53 28 OFFCURVE",
"53 20 CURVE SMOOTH",
"53 9 OFFCURVE",
"62 -2 OFFCURVE",
"94 -2 CURVE SMOOTH"
);
},
{
closed = 1;
nodes = (
"516 330 OFFCURVE",
"525 377 OFFCURVE",
"534 392 CURVE",
"529 396 LINE",
"472 379 OFFCURVE",
"401 372 OFFCURVE",
"316 372 CURVE SMOOTH",
"261 372 OFFCURVE",
"218 375 OFFCURVE",
"183 378 CURVE",
"171 325 LINE",
"252 325 OFFCURVE",
"482 318 OFFCURVE",
"514 318 CURVE"
);
}
);
width = 580;
}
);
note = F;
unicode = 0046;
},
{
color = 4;
glyphname = G;
lastChange = "2018-03-15 16:11:09 +0000";
layers = (
{
anchors = (
{
name = bottom;
position = "{395, 0}";
},
{
name = top;
position = "{554, 700}";
}
);
layerId = "4C458150-A1D2-4ED7-A293-C8767657F79E";
paths = (
{
closed = 1;
nodes = (
"360 -414 OFFCURVE",
"450 -316 OFFCURVE",
"500 -238 CURVE SMOOTH",
"584 -106 OFFCURVE",
"648 116 OFFCURVE",
"695 280 CURVE SMOOTH",
"703 309 OFFCURVE",
"708 316 OFFCURVE",
"744 326 CURVE",
"747 332 OFFCURVE",
"742 358 OFFCURVE",
"739 362 CURVE",
"672 339 OFFCURVE",
"566 340 OFFCURVE",
"480 340 CURVE",
"472 326 OFFCURVE",
"467 309 OFFCURVE",
"465 296 CURVE",
"509 299 OFFCURVE",
"588 306 OFFCURVE",
"610 306 CURVE SMOOTH",
"635 306 OFFCURVE",
"640 297 OFFCURVE",
"640 277 CURVE SMOOTH",
"640 190 OFFCURVE",
"542 24 OFFCURVE",
"356 24 CURVE SMOOTH",
"221 24 OFFCURVE",
"148 112 OFFCURVE",
"148 263 CURVE SMOOTH",
"148 475 OFFCURVE",
"293 667 OFFCURVE",
"509 667 CURVE SMOOTH",
"591 667 OFFCURVE",
"674 639 OFFCURVE",
"689 555 CURVE SMOOTH",
"692 539 OFFCURVE",
"695 498 OFFCURVE",
"696 484 CURVE",
"701 487 OFFCURVE",
"716 489 OFFCURVE",
"723 489 CURVE",
"729 558 OFFCURVE",
"736 593 OFFCURVE",
"750 632 CURVE",
"702 675 OFFCURVE",
"621 713 OFFCURVE",
"510 713 CURVE SMOOTH",
"240 713 OFFCURVE",
"86 488 OFFCURVE",
"86 264 CURVE SMOOTH",
"86 91 OFFCURVE",
"177 -21 OFFCURVE",
"349 -21 CURVE SMOOTH",
"500 -21 OFFCURVE",
"589 66 OFFCURVE",
"631 141 CURVE",
"626 160 LINE",
"518 -181 OFFCURVE",
"385 -374 OFFCURVE",
"168 -374 CURVE SMOOTH",
"102 -374 OFFCURVE",
"56 -356 OFFCURVE",
"28 -339 CURVE",
"34 -354 LINE SMOOTH",
"47 -386 OFFCURVE",
"92 -414 OFFCURVE",
"185 -414 CURVE SMOOTH"
);
}
);
width = 775;
},
{
anchors = (
{
name = bottom;
position = "{375, 0}";
},
{
name = top;
position = "{508, 680}";
}
);
layerId = "73F3E0E0-4CEF-4E72-8F22-4B031C019FE7";
paths = (
{
closed = 1;
nodes = (
"424 -414 OFFCURVE",
"524 -274 OFFCURVE",
"554 -226 CURVE SMOOTH",
"633 -99 OFFCURVE",
"677 102 OFFCURVE",
"713 268 CURVE SMOOTH",
"719 297 OFFCURVE",
"725 304 OFFCURVE",
"762 314 CURVE",
"762 325 OFFCURVE",
"757 356 OFFCURVE",
"754 362 CURVE",
"687 339 OFFCURVE",
"545 337 OFFCURVE",
"459 337 CURVE",
"453 325 OFFCURVE",
"449 295 OFFCURVE",
"449 281 CURVE",
"510 290 OFFCURVE",
"563 294 OFFCURVE",
"585 294 CURVE SMOOTH",
"612 294 OFFCURVE",
"625 288 OFFCURVE",
"625 245 CURVE SMOOTH",
"625 128 OFFCURVE",
"530 34 OFFCURVE",
"385 34 CURVE SMOOTH",
"242 34 OFFCURVE",
"176 126 OFFCURVE",
"176 273 CURVE SMOOTH",
"176 455 OFFCURVE",
"276 657 OFFCURVE",
"512 657 CURVE SMOOTH",
"583 657 OFFCURVE",
"685 639 OFFCURVE",
"700 555 CURVE SMOOTH",
"703 539 OFFCURVE",
"705 498 OFFCURVE",
"706 484 CURVE",
"712 487 OFFCURVE",
"726 489 OFFCURVE",
"733 489 CURVE",
"744 558 OFFCURVE",
"756 600 OFFCURVE",
"770 639 CURVE",
"712 684 OFFCURVE",
"615 713 OFFCURVE",
"518 713 CURVE SMOOTH",
"260 713 OFFCURVE",
"79 510 OFFCURVE",
"79 274 CURVE SMOOTH",
"79 79 OFFCURVE",
"202 -21 OFFCURVE",
"370 -21 CURVE SMOOTH",
"534 -21 OFFCURVE",
"607 75 OFFCURVE",
"637 146 CURVE",
"610 155 LINE",
"549 -190 OFFCURVE",
"422 -362 OFFCURVE",
"215 -362 CURVE SMOOTH",
"154 -362 OFFCURVE",
"74 -347 OFFCURVE",
"47 -329 CURVE",
"59 -353 LINE SMOOTH",
"68 -371 OFFCURVE",
"122 -414 OFFCURVE",
"230 -414 CURVE SMOOTH"
);
}
);
width = 795;
}
);
note = G;
unicode = 0047;
},
{
color = 4;
glyphname = H;
lastChange = "2018-03-15 16:16:43 +0000";
layers = (
{
anchors = (
{
name = bottom;
position = "{363, 0}";
},
{
name = center;
position = "{435, 350}";
},
{
name = top;
position = "{506, 700}";
},
{
name = topleft;
position = "{126, 696}";
}
);
layerId = "4C458150-A1D2-4ED7-A293-C8767657F79E";
paths = (
{
closed = 1;
nodes = (
"739 -6 OFFCURVE",
"832 28 OFFCURVE",
"814 79 CURVE",
"787 61 OFFCURVE",
"740 41 OFFCURVE",
"679 41 CURVE SMOOTH",
"610 41 OFFCURVE",
"604 66 OFFCURVE",
"604 106 CURVE SMOOTH",
"604 138 OFFCURVE",
"608 219 OFFCURVE",
"645 389 CURVE SMOOTH",
"672 513 OFFCURVE",
"715 672 OFFCURVE",
"739 702 CURVE SMOOTH",
"760 729 OFFCURVE",
"848 760 OFFCURVE",
"879 760 CURVE",
"879 771 OFFCURVE",
"876 787 OFFCURVE",
"851 787 CURVE SMOOTH",
"813 787 OFFCURVE",
"723 752 OFFCURVE",
"699 735 CURVE SMOOTH",
"691 729 OFFCURVE",
"686 722 OFFCURVE",
"681 706 CURVE SMOOTH",
"649 603 OFFCURVE",
"618 484 OFFCURVE",
"594 370 CURVE SMOOTH",
"569 252 OFFCURVE",
"552 145 OFFCURVE",
"552 95 CURVE SMOOTH",
"552 20 OFFCURVE",
"590 -6 OFFCURVE",
"660 -6 CURVE SMOOTH"
);
},
{
closed = 1;
nodes = (
"119 5 OFFCURVE",
"127 6 OFFCURVE",
"142 7 CURVE SMOOTH",
"155 8 OFFCURVE",
"157 10 OFFCURVE",
"160 24 CURVE SMOOTH",
"181 134 OFFCURVE",
"183 143 OFFCURVE",
"246 367 CURVE SMOOTH",
"298 552 OFFCURVE",
"311 597 OFFCURVE",
"337 686 CURVE SMOOTH",
"342 702 OFFCURVE",
"337 706 OFFCURVE",
"322 706 CURVE SMOOTH",
"309 706 OFFCURVE",
"304 703 OFFCURVE",
"134 696 CURVE SMOOTH",
"126 696 OFFCURVE",
"122 693 OFFCURVE",
"122 684 CURVE SMOOTH",
"122 673 OFFCURVE",
"127 665 OFFCURVE",
"133 654 CURVE",
"156 658 OFFCURVE",
"202 662 OFFCURVE",
"226 662 CURVE SMOOTH",
"249 662 OFFCURVE",
"263 658 OFFCURVE",
"264 634 CURVE SMOOTH",
"266 597 OFFCURVE",
"242 515 OFFCURVE",
"201 367 CURVE SMOOTH",
"134 126 OFFCURVE",
"124 83 OFFCURVE",
"91 -5 CURVE",
"97 -7 LINE"
);
},
{
closed = 1;
nodes = (
"614 383 LINE",
"567 381 OFFCURVE",
"497 380 OFFCURVE",
"431 380 CURVE SMOOTH",
"270 380 OFFCURVE",
"195 386 OFFCURVE",
"172 386 CURVE SMOOTH",
"158 386 OFFCURVE",
"156 384 OFFCURVE",
"156 378 CURVE SMOOTH",
"156 358 OFFCURVE",
"175 339 OFFCURVE",
"188 339 CURVE SMOOTH",
"264 339 OFFCURVE",
"344 340 OFFCURVE",
"418 340 CURVE SMOOTH",
"492 340 OFFCURVE",
"585 339 OFFCURVE",
"603 337 CURVE"
);
}
);
width = 820;
},
{
anchors = (
{
name = bottom;
position = "{376, 0}";
},
{
name = center;
position = "{438, 350}";
},
{
name = top;
position = "{493, 660}";
},
{
name = topleft;
position = "{131, 700}";
}
);
layerId = "73F3E0E0-4CEF-4E72-8F22-4B031C019FE7";
paths = (
{
closed = 1;
nodes = (
"744 -6 OFFCURVE",
"851 28 OFFCURVE",
"836 89 CURVE",
"807 71 OFFCURVE",
"766 51 OFFCURVE",
"695 51 CURVE SMOOTH",
"636 51 OFFCURVE",
"625 65 OFFCURVE",
"625 134 CURVE SMOOTH",
"625 185 OFFCURVE",
"631 277 OFFCURVE",
"655 389 CURVE SMOOTH",
"681 512 OFFCURVE",
"734 663 OFFCURVE",
"757 692 CURVE SMOOTH",
"780 720 OFFCURVE",
"865 750 OFFCURVE",
"897 750 CURVE",
"897 762 OFFCURVE",
"897 787 OFFCURVE",
"869 787 CURVE SMOOTH",
"838 787 OFFCURVE",
"710 758 OFFCURVE",
"679 735 CURVE SMOOTH",
"673 731 OFFCURVE",
"666 723 OFFCURVE",
"661 706 CURVE SMOOTH",
"630 604 OFFCURVE",
"595 472 OFFCURVE",
"573 369 CURVE SMOOTH",
"549 257 OFFCURVE",
"527 122 OFFCURVE",
"532 81 CURVE SMOOTH",
"538 28 OFFCURVE",
"606 -6 OFFCURVE",
"678 -6 CURVE SMOOTH"
);
},
{
closed = 1;
nodes = (
"114 3 OFFCURVE",
"124 4 OFFCURVE",
"177 7 CURVE SMOOTH",
"190 8 OFFCURVE",
"192 11 OFFCURVE",
"195 24 CURVE SMOOTH",
"207 75 OFFCURVE",
"204 58 OFFCURVE",
"276 367 CURVE SMOOTH",
"302 476 OFFCURVE",
"354 679 OFFCURVE",
"354 698 CURVE SMOOTH",
"354 703 OFFCURVE",
"350 706 OFFCURVE",
"335 706 CURVE SMOOTH",
"317 706 OFFCURVE",
"312 702 OFFCURVE",
"109 696 CURVE SMOOTH",
"101 696 OFFCURVE",
"97 692 OFFCURVE",
"97 683 CURVE SMOOTH",
"97 673 OFFCURVE",
"101 655 OFFCURVE",
"106 644 CURVE",
"129 648 OFFCURVE",
"175 652 OFFCURVE",
"198 652 CURVE SMOOTH",
"230 652 OFFCURVE",
"238 644 OFFCURVE",
"238 614 CURVE SMOOTH",
"238 580 OFFCURVE",
"228 497 OFFCURVE",
"201 367 CURVE SMOOTH",
"165 192 OFFCURVE",
"133 120 OFFCURVE",
"86 -5 CURVE",
"92 -7 LINE"
);
},
{
closed = 1;
nodes = (
"635 388 LINE",
"588 386 OFFCURVE",
"518 385 OFFCURVE",
"452 385 CURVE SMOOTH",
"291 385 OFFCURVE",
"186 391 OFFCURVE",
"163 391 CURVE SMOOTH",
"149 391 OFFCURVE",
"146 389 OFFCURVE",
"146 381 CURVE SMOOTH",
"146 362 OFFCURVE",
"164 334 OFFCURVE",
"177 334 CURVE SMOOTH",
"253 334 OFFCURVE",
"363 335 OFFCURVE",
"437 335 CURVE SMOOTH",
"511 335 OFFCURVE",
"604 334 OFFCURVE",
"622 332 CURVE"
);
}
);
width = 830;
}
);
note = H;
unicode = 0048;
},
{
color = 4;
glyphname = I;
lastChange = "2018-03-15 16:19:16 +0000";
layers = (
{
anchors = (
{
name = bottom;
position = "{138, 0}";
},
{
name = ogonek;
position = "{165, 10}";
},
{
name = top;
position = "{283, 700}";
},
{
name = topleft;
position = "{146, 700}";
}
);
layerId = "4C458150-A1D2-4ED7-A293-C8767657F79E";
paths = (
{
closed = 1;
nodes = (
"148 -7 OFFCURVE",
"177 -1 OFFCURVE",
"186 40 CURVE SMOOTH",
"225 219 OFFCURVE",
"273 486 OFFCURVE",
"316 648 CURVE SMOOTH",
"320 663 OFFCURVE",
"343 672 OFFCURVE",
"364 674 CURVE",
"365 682 OFFCURVE",
"363 701 OFFCURVE",
"355 704 CURVE",
"293 695 OFFCURVE",
"253 694 OFFCURVE",
"146 693 CURVE SMOOTH",
"130 693 OFFCURVE",
"123 678 OFFCURVE",
"123 650 CURVE",
"148 655 OFFCURVE",
"194 657 OFFCURVE",
"217 657 CURVE SMOOTH",
"249 657 OFFCURVE",
"260 653 OFFCURVE",
"260 626 CURVE SMOOTH",
"260 572 OFFCURVE",
"214 375 OFFCURVE",
"127 32 CURVE SMOOTH",
"123 17 OFFCURVE",
"109 10 OFFCURVE",
"91 8 CURVE",
"101 -4 LINE"
);
}
);
width = 394;
},
{
anchors = (
{
name = bottom;
position = "{138, 0}";
},
{
name = ogonek;
position = "{165, 10}";
},
{
name = top;
position = "{259, 680}";
},
{
name = topleft;
position = "{136, 700}";
}
);
layerId = "73F3E0E0-4CEF-4E72-8F22-4B031C019FE7";
paths = (
{
closed = 1;
nodes = (
"138 -4 OFFCURVE",
"187 3 OFFCURVE",
"196 40 CURVE SMOOTH",
"204 70 OFFCURVE",
"305 584 OFFCURVE",
"319 633 CURVE SMOOTH",
"325 655 OFFCURVE",
"335 659 OFFCURVE",
"378 664 CURVE",
"379 672 OFFCURVE",
"379 701 OFFCURVE",
"372 704 CURVE",
"298 696 OFFCURVE",
"281 695 OFFCURVE",
"122 693 CURVE SMOOTH",
"102 693 OFFCURVE",
"97 662 OFFCURVE",
"97 640 CURVE",
"122 645 OFFCURVE",
"163 647 OFFCURVE",
"185 647 CURVE SMOOTH",
"222 647 OFFCURVE",
"233 641 OFFCURVE",
"229 611 CURVE SMOOTH",
"222 558 OFFCURVE",
"133 169 OFFCURVE",
"99 41 CURVE SMOOTH",
"95 26 OFFCURVE",
"81 17 OFFCURVE",
"61 8 CURVE",
"71 -4 LINE"
);
}
);
width = 394;
}
);
note = I;
unicode = 0049;
},
{
color = 4;
glyphname = J;
lastChange = "2018-03-15 16:18:57 +0000";
layers = (
{
anchors = (
{
name = bottom;
position = "{284, 0}";
},
{
name = top;
position = "{470, 700}";
}
);
layerId = "4C458150-A1D2-4ED7-A293-C8767657F79E";
paths = (
{
closed = 1;
nodes = (
"226 -168 OFFCURVE",
"297 -25 OFFCURVE",
"328 60 CURVE SMOOTH",
"385 215 OFFCURVE",
"466 562 OFFCURVE",
"471 586 CURVE SMOOTH",
"490 670 OFFCURVE",
"496 681 OFFCURVE",
"539 681 CURVE SMOOTH",
"557 681 OFFCURVE",
"601 679 OFFCURVE",
"608 679 CURVE",
"606 700 OFFCURVE",
"600 715 OFFCURVE",
"590 715 CURVE SMOOTH",
"291 715 OFFCURVE",
"42 697 OFFCURVE",
"56 546 CURVE SMOOTH",
"61 493 OFFCURVE",
"94 462 OFFCURVE",
"131 450 CURVE",
"138 450 OFFCURVE",
"146 451 OFFCURVE",
"150 453 CURVE",
"117 471 OFFCURVE",
"104 500 OFFCURVE",
"102 528 CURVE SMOOTH",
"93 643 OFFCURVE",
"270 673 OFFCURVE",
"419 673 CURVE SMOOTH",
"437 673 OFFCURVE",
"438 661 OFFCURVE",
"436 647 CURVE SMOOTH",
"424 540 OFFCURVE",
"324 195 OFFCURVE",
"279 72 CURVE SMOOTH",
"230 -62 OFFCURVE",
"169 -139 OFFCURVE",
"38 -139 CURVE SMOOTH",
"-62 -139 OFFCURVE",
"-109 -94 OFFCURVE",
"-136 -37 CURVE",
"-152 -41 LINE",
"-150 -76 OFFCURVE",
"-144 -106 OFFCURVE",
"-136 -135 CURVE",
"-103 -148 OFFCURVE",
"-43 -168 OFFCURVE",
"30 -168 CURVE SMOOTH"
);
}
);
width = 500;
},
{
anchors = (
{
name = bottom;
position = "{295, 0}";
},
{
name = top;
position = "{455, 680}";
}
);
layerId = "73F3E0E0-4CEF-4E72-8F22-4B031C019FE7";
paths = (
{
closed = 1;
nodes = (
"195 -168 OFFCURVE",
"309 -88 OFFCURVE",
"351 90 CURVE SMOOTH",
"371 175 OFFCURVE",
"416 455 OFFCURVE",
"443 586 CURVE SMOOTH",
"458 660 OFFCURVE",
"466 671 OFFCURVE",
"508 671 CURVE SMOOTH",
"526 671 OFFCURVE",
"584 669 OFFCURVE",
"590 669 CURVE",
"588 690 OFFCURVE",
"584 715 OFFCURVE",
"574 715 CURVE SMOOTH",
"276 715 OFFCURVE",
"21 667 OFFCURVE",
"21 514 CURVE SMOOTH",
"21 449 OFFCURVE",
"67 411 OFFCURVE",
"135 395 CURVE",
"142 395 OFFCURVE",
"153 396 OFFCURVE",
"164 398 CURVE",
"130 416 OFFCURVE",
"108 454 OFFCURVE",
"108 500 CURVE SMOOTH",
"108 606 OFFCURVE",
"225 663 OFFCURVE",
"338 663 CURVE SMOOTH",
"359 663 OFFCURVE",
"367 661 OFFCURVE",
"367 645 CURVE SMOOTH",
"367 593 OFFCURVE",
"286 199 OFFCURVE",
"262 102 CURVE SMOOTH",
"220 -69 OFFCURVE",
"161 -128 OFFCURVE",
"52 -128 CURVE SMOOTH",
"-33 -128 OFFCURVE",
"-63 -92 OFFCURVE",
"-87 -27 CURVE",
"-104 -31 LINE",
"-104 -55 OFFCURVE",
"-105 -95 OFFCURVE",
"-99 -135 CURVE",
"-59 -154 OFFCURVE",
"-27 -168 OFFCURVE",
"38 -168 CURVE SMOOTH"
);
}
);
width = 520;
}
);
note = J;
unicode = 004A;
},
{
color = 4;
glyphname = K;
lastChange = "2018-03-15 16:19:53 +0000";
layers = (
{
anchors = (
{
name = bottom;
position = "{367, 0}";
},
{
name = top;
position = "{490, 700}";
}
);
layerId = "4C458150-A1D2-4ED7-A293-C8767657F79E";
paths = (
{
closed = 1;
nodes = (
"1272 -194 OFFCURVE",
"1398 -154 OFFCURVE",
"1398 -96 CURVE SMOOTH",
"1398 -85 OFFCURVE",
"1393 -73 OFFCURVE",
"1386 -69 CURVE",
"1333 -111 OFFCURVE",
"1275 -154 OFFCURVE",
"1147 -154 CURVE SMOOTH",
"877 -154 OFFCURVE",
"528 36 OFFCURVE",
"302 340 CURVE",
"302 329 LINE",
"394 404 OFFCURVE",
"771 695 OFFCURVE",
"807 689 CURVE",
"807 697 LINE",
"792 702 OFFCURVE",
"769 711 OFFCURVE",
"756 718 CURVE",
"750 718 LINE",
"572 600 OFFCURVE",
"413 450 OFFCURVE",
"252 336 CURVE",
"458 25 OFFCURVE",
"878 -194 OFFCURVE",
"1154 -194 CURVE SMOOTH"
);
},
{
closed = 1;
nodes = (
"144 -3 OFFCURVE",
"158 -1 OFFCURVE",
"178 0 CURVE SMOOTH",
"193 1 OFFCURVE",
"198 3 OFFCURVE",
"203 25 CURVE SMOOTH",
"247 223 OFFCURVE",
"266 303 OFFCURVE",
"351 655 CURVE SMOOTH",
"353 664 OFFCURVE",
"361 668 OFFCURVE",
"368 668 CURVE SMOOTH",
"373 668 OFFCURVE",
"434 670 OFFCURVE",
"439 670 CURVE",
"441 679 OFFCURVE",
"445 700 OFFCURVE",
"445 712 CURVE",
"372 706 OFFCURVE",
"332 700 OFFCURVE",
"248 699 CURVE SMOOTH",
"193 699 OFFCURVE",
"114 698 OFFCURVE",
"111 726 CURVE",
"95 726 OFFCURVE",
"85 683 OFFCURVE",
"85 668 CURVE SMOOTH",
"85 658 OFFCURVE",
"89 655 OFFCURVE",
"111 655 CURVE SMOOTH",
"149 655 OFFCURVE",
"224 664 OFFCURVE",
"282 664 CURVE SMOOTH",
"291 664 OFFCURVE",
"293 657 OFFCURVE",
"293 654 CURVE SMOOTH",
"293 633 OFFCURVE",
"203 190 OFFCURVE",
"123 -5 CURVE",
"123 -10 OFFCURVE",
"128 -12 OFFCURVE",
"134 -12 CURVE"
);
}
);
width = 777;
},
{
anchors = (
{
name = bottom;
position = "{344, 0}";
},
{
name = top;
position = "{463, 680}";
}
);
layerId = "73F3E0E0-4CEF-4E72-8F22-4B031C019FE7";
paths = (
{
closed = 1;
nodes = (
"1295 -274 OFFCURVE",
"1395 -228 OFFCURVE",
"1404 -158 CURVE SMOOTH",
"1407 -136 OFFCURVE",
"1400 -118 OFFCURVE",
"1387 -103 CURVE",
"1339 -148 OFFCURVE",
"1270 -184 OFFCURVE",
"1156 -184 CURVE SMOOTH",
"867 -184 OFFCURVE",
"542 47 OFFCURVE",
"348 348 CURVE",
"348 337 LINE",
"440 412 OFFCURVE",
"822 695 OFFCURVE",
"858 689 CURVE",
"858 697 LINE",
"843 702 OFFCURVE",
"777 711 OFFCURVE",
"763 718 CURVE",
"747 718 LINE",
"569 600 OFFCURVE",
"417 450 OFFCURVE",
"259 336 CURVE",
"447 27 OFFCURVE",
"777 -274 OFFCURVE",
"1149 -274 CURVE SMOOTH"
);
},
{
closed = 1;
nodes = (
"113 -2 OFFCURVE",
"123 -1 OFFCURVE",
"185 0 CURVE SMOOTH",
"199 0 OFFCURVE",
"206 5 OFFCURVE",
"210 25 CURVE SMOOTH",
"251 224 OFFCURVE",
"288 438 OFFCURVE",
"347 645 CURVE SMOOTH",
"350 656 OFFCURVE",
"359 658 OFFCURVE",
"364 658 CURVE SMOOTH",
"369 658 OFFCURVE",
"440 660 OFFCURVE",
"445 660 CURVE",
"446 669 OFFCURVE",
"452 700 OFFCURVE",
"452 712 CURVE",
"379 706 OFFCURVE",
"314 699 OFFCURVE",
"251 699 CURVE SMOOTH",
"197 699 OFFCURVE",
"119 699 OFFCURVE",
"118 726 CURVE",
"106 726 OFFCURVE",
"96 698 OFFCURVE",
"92 676 CURVE SMOOTH",
"87 649 OFFCURVE",
"91 645 OFFCURVE",
"115 645 CURVE SMOOTH",
"152 645 OFFCURVE",
"183 654 OFFCURVE",
"225 654 CURVE SMOOTH",
"249 654 OFFCURVE",
"251 651 OFFCURVE",
"244 609 CURVE SMOOTH",
"227 508 OFFCURVE",
"145 115 OFFCURVE",
"90 -5 CURVE",
"90 -10 OFFCURVE",
"95 -12 OFFCURVE",
"101 -12 CURVE"
);
}
);
width = 777;
}
);
note = K;
unicode = 004B;
},
{
color = 4;
glyphname = L;
lastChange = "2018-03-15 16:21:44 +0000";
layers = (
{
anchors = (
{
name = bottom;
position = "{263, 0}";
},
{
name = center;
position = "{324, 350}";
},
{
name = top;
position = "{386, 700}";
},
{
name = topright;
position = "{545, 485}";
}
);
layerId = "4C458150-A1D2-4ED7-A293-C8767657F79E";
paths = (
{
closed = 1;
nodes = (
"584 -11 OFFCURVE",
"583 32 OFFCURVE",
"579 47 CURVE SMOOTH",
"573 67 OFFCURVE",
"552 76 OFFCURVE",
"486 76 CURVE SMOOTH",
"366 76 OFFCURVE",
"181 46 OFFCURVE",
"64 43 CURVE",
"68 32 LINE",
"163 67 OFFCURVE",
"211 160 OFFCURVE",
"252 325 CURVE SMOOTH",
"273 408 OFFCURVE",
"292 512 OFFCURVE",
"317 625 CURVE SMOOTH",
"324 657 OFFCURVE",
"339 682 OFFCURVE",
"389 682 CURVE SMOOTH",
"403 682 OFFCURVE",
"440 680 OFFCURVE",
"455 676 CURVE",
"459 680 OFFCURVE",
"450 721 OFFCURVE",
"437 724 CURVE",
"381 724 OFFCURVE",
"324 715 OFFCURVE",
"289 700 CURVE SMOOTH",
"279 696 OFFCURVE",
"272 691 OFFCURVE",
"268 672 CURVE SMOOTH",
"248 576 OFFCURVE",
"238 525 OFFCURVE",
"212 392 CURVE SMOOTH",
"147 63 OFFCURVE",
"55 48 OFFCURVE",
"-13 37 CURVE SMOOTH",
"-19 36 OFFCURVE",
"-22 35 OFFCURVE",
"-22 29 CURVE SMOOTH",
"-22 15 OFFCURVE",
"-6 -13 OFFCURVE",
"3 -13 CURVE",
"73 7 OFFCURVE",
"192 18 OFFCURVE",
"322 18 CURVE SMOOTH",
"426 18 OFFCURVE",
"513 11 OFFCURVE",
"546 1 CURVE SMOOTH",
"561 -4 OFFCURVE",
"567 -9 OFFCURVE",
"570 -35 CURVE",
"584 -38 LINE"
);
}
);
width = 640;
},
{
anchors = (
{
name = bottom;
position = "{323, 0}";
},
{
name = center;
position = "{385, 350}";
},
{
name = top;
position = "{372, 700}";
},
{
name = topright;
position = "{474, 485}";
}
);
layerId = "73F3E0E0-4CEF-4E72-8F22-4B031C019FE7";
paths = (
{
closed = 1;
nodes = (
"586 4 OFFCURVE",
"581 42 OFFCURVE",
"576 66 CURVE SMOOTH",
"571 90 OFFCURVE",
"559 105 OFFCURVE",
"502 105 CURVE SMOOTH",
"402 105 OFFCURVE",
"236 59 OFFCURVE",
"77 54 CURVE",
"69 31 LINE",
"145 58 OFFCURVE",
"210 103 OFFCURVE",
"265 310 CURVE SMOOTH",
"286 390 OFFCURVE",
"309 502 OFFCURVE",
"333 609 CURVE SMOOTH",
"343 651 OFFCURVE",
"357 667 OFFCURVE",
"397 667 CURVE SMOOTH",
"414 667 OFFCURVE",
"454 664 OFFCURVE",
"472 661 CURVE",
"475 673 OFFCURVE",
"472 715 OFFCURVE",
"462 718 CURVE",
"406 718 OFFCURVE",
"289 707 OFFCURVE",
"257 693 CURVE SMOOTH",
"248 689 OFFCURVE",
"239 682 OFFCURVE",
"237 669 CURVE SMOOTH",
"224 585 OFFCURVE",
"209 480 OFFCURVE",
"193 391 CURVE SMOOTH",
"158 198 OFFCURVE",
"117 78 OFFCURVE",
"-3 58 CURVE SMOOTH",
"-10 57 OFFCURVE",
"-19 55 OFFCURVE",
"-19 44 CURVE SMOOTH",
"-19 30 OFFCURVE",
"-6 4 OFFCURVE",
"3 -13 CURVE",
"74 7 OFFCURVE",
"193 18 OFFCURVE",
"332 18 CURVE SMOOTH",
"373 18 OFFCURVE",
"486 17 OFFCURVE",
"542 0 CURVE SMOOTH",
"563 -6 OFFCURVE",
"565 -12 OFFCURVE",
"566 -35 CURVE",
"586 -40 LINE"
);
}
);
width = 640;
}
);
note = L;
unicode = 004C;
},
{
color = 4;
glyphname = M;
lastChange = "2018-03-15 16:22:53 +0000";
layers = (
{
anchors = (
{
name = bottom;
position = "{575, 20}";
},
{
name = top;
position = "{768, 660}";
}
);
layerId = "4C458150-A1D2-4ED7-A293-C8767657F79E";
paths = (
{
closed = 1;
nodes = (
"1140 -31 OFFCURVE",
"1198 64 OFFCURVE",
"1198 139 CURVE SMOOTH",
"1198 165 OFFCURVE",
"1191 175 OFFCURVE",
"1182 180 CURVE",
"1164 84 OFFCURVE",
"1117 18 OFFCURVE",
"1049 18 CURVE SMOOTH",
"968 18 OFFCURVE",
"935 112 OFFCURVE",
"935 251 CURVE SMOOTH",
"935 356 OFFCURVE",
"954 515 OFFCURVE",
"1008 620 CURVE SMOOTH",
"1037 676 OFFCURVE",
"1073 710 OFFCURVE",
"1109 710 CURVE",
"1103 731 OFFCURVE",
"1083 761 OFFCURVE",
"1059 761 CURVE SMOOTH",
"1033 761 OFFCURVE",
"1005 728 OFFCURVE",
"950 646 CURVE SMOOTH",
"879 540 OFFCURVE",
"785 385 OFFCURVE",
"620 105 CURVE",
"635 92 LINE",
"622 178 OFFCURVE",
"582 451 OFFCURVE",
"567 553 CURVE",
"571 602 OFFCURVE",
"582 662 OFFCURVE",
"582 681 CURVE SMOOTH",
"582 720 OFFCURVE",
"547 725 OFFCURVE",
"535 725 CURVE SMOOTH",
"519 725 OFFCURVE",
"501 716 OFFCURVE",
"501 689 CURVE SMOOTH",
"501 664 OFFCURVE",
"508 625 OFFCURVE",
"517 566 CURVE",
"380 232 OFFCURVE",
"291 35 OFFCURVE",
"130 35 CURVE SMOOTH",
"50 35 OFFCURVE",
"8 83 OFFCURVE",
"8 164 CURVE SMOOTH",
"8 214 OFFCURVE",
"24 255 OFFCURVE",
"59 292 CURVE",
"54 296 OFFCURVE",
"48 297 OFFCURVE",
"43 297 CURVE SMOOTH",
"5 297 OFFCURVE",
"-47 238 OFFCURVE",
"-47 150 CURVE SMOOTH",
"-47 57 OFFCURVE",
"12 -22 OFFCURVE",
"121 -22 CURVE SMOOTH",
"322 -22 OFFCURVE",
"437 250 OFFCURVE",
"544 520 CURVE",
"527 521 LINE",
"541 440 OFFCURVE",
"590 126 OFFCURVE",
"590 44 CURVE SMOOTH",
"590 15 OFFCURVE",
"584 11 OFFCURVE",
"580 8 CURVE",
"581 6 OFFCURVE",
"584 -2 OFFCURVE",
"591 -2 CURVE SMOOTH",
"597 -2 OFFCURVE",
"595 3 OFFCURVE",
"642 18 CURVE SMOOTH",
"649 20 OFFCURVE",
"650 22 OFFCURVE",
"650 25 CURVE SMOOTH",
"650 29 OFFCURVE",
"647 34 OFFCURVE",
"647 42 CURVE SMOOTH",
"647 58 OFFCURVE",
"660 80 OFFCURVE",
"669 95 CURVE SMOOTH",
"826 356 OFFCURVE",
"881 447 OFFCURVE",
"945 535 CURVE",
"938 541 LINE",
"913 467 OFFCURVE",
"881 336 OFFCURVE",
"881 225 CURVE SMOOTH",
"881 84 OFFCURVE",
"933 -31 OFFCURVE",
"1041 -31 CURVE SMOOTH"
);
}
);
width = 1180;
},
{
anchors = (
{
name = bottom;
position = "{595, 0}";
},
{
name = top;
position = "{741, 660}";
}
);
layerId = "73F3E0E0-4CEF-4E72-8F22-4B031C019FE7";
paths = (
{
closed = 1;
nodes = (
"1127 -26 OFFCURVE",
"1224 37 OFFCURVE",
"1224 126 CURVE SMOOTH",
"1224 154 OFFCURVE",
"1214 171 OFFCURVE",
"1198 180 CURVE",
"1176 101 OFFCURVE",
"1130 38 OFFCURVE",
"1056 38 CURVE SMOOTH",
"967 38 OFFCURVE",
"940 127 OFFCURVE",
"940 236 CURVE SMOOTH",
"940 347 OFFCURVE",
"968 522 OFFCURVE",
"1003 610 CURVE SMOOTH",
"1025 666 OFFCURVE",
"1054 697 OFFCURVE",
"1079 707 CURVE",
"1064 729 OFFCURVE",
"1044 751 OFFCURVE",
"1016 751 CURVE SMOOTH",
"988 751 OFFCURVE",
"971 730 OFFCURVE",
"904 626 CURVE SMOOTH",
"831 513 OFFCURVE",
"754 388 OFFCURVE",
"610 111 CURVE",
"635 112 LINE",
"627 228 OFFCURVE",
"578 421 OFFCURVE",
"567 543 CURVE",
"575 587 OFFCURVE",
"579 627 OFFCURVE",
"579 662 CURVE SMOOTH",
"579 705 OFFCURVE",
"564 725 OFFCURVE",
"517 725 CURVE SMOOTH",
"486 725 OFFCURVE",
"458 716 OFFCURVE",
"458 691 CURVE SMOOTH",
"458 673 OFFCURVE",
"480 581 OFFCURVE",
"489 530 CURVE",
"383 234 OFFCURVE",
"277 26 OFFCURVE",
"121 26 CURVE SMOOTH",
"62 26 OFFCURVE",
"27 56 OFFCURVE",
"27 120 CURVE SMOOTH",
"27 175 OFFCURVE",
"53 237 OFFCURVE",
"92 276 CURVE",
"77 282 OFFCURVE",
"66 287 OFFCURVE",
"52 287 CURVE SMOOTH",
"-8 287 OFFCURVE",
"-52 196 OFFCURVE",
"-52 122 CURVE SMOOTH",
"-52 19 OFFCURVE",
"33 -24 OFFCURVE",
"115 -24 CURVE SMOOTH",
"319 -24 OFFCURVE",
"438 238 OFFCURVE",
"541 500 CURVE",
"498 491 LINE",
"499 464 OFFCURVE",
"550 148 OFFCURVE",
"550 57 CURVE SMOOTH",
"550 28 OFFCURVE",
"545 10 OFFCURVE",
"536 4 CURVE",
"537 -1 OFFCURVE",
"542 -10 OFFCURVE",
"548 -10 CURVE SMOOTH",
"558 -10 OFFCURVE",
"591 13 OFFCURVE",
"639 26 CURVE SMOOTH",
"644 27 OFFCURVE",
"648 30 OFFCURVE",
"648 38 CURVE SMOOTH",
"648 42 OFFCURVE",
"647 47 OFFCURVE",
"647 53 CURVE SMOOTH",
"647 75 OFFCURVE",
"659 96 OFFCURVE",
"669 115 CURVE SMOOTH",
"771 306 OFFCURVE",
"881 492 OFFCURVE",
"948 582 CURVE",
"931 588 LINE",
"888 458 OFFCURVE",
"844 362 OFFCURVE",
"844 210 CURVE SMOOTH",
"844 66 OFFCURVE",
"884 -26 OFFCURVE",
"1017 -26 CURVE SMOOTH"
);
}
);
width = 1200;
}
);
note = M;
unicode = 004D;
},
{
color = 4;
glyphname = N;
lastChange = "2018-03-15 18:07:13 +0000";
layers = (
{
anchors = (
{
name = bottom;
position = "{368, 0}";
},
{
name = top;
position = "{481, 650}";
}
);
layerId = "4C458150-A1D2-4ED7-A293-C8767657F79E";
paths = (
{
closed = 1;
nodes = (
"167 -15 LINE",
"167 202 OFFCURVE",
"230 388 OFFCURVE",
"288 614 CURVE",
"275 607 LINE",
"363 436 OFFCURVE",
"430 284 OFFCURVE",
"563 -8 CURVE",
"578 -8 OFFCURVE",
"594 -6 OFFCURVE",
"607 -2 CURVE",
"685 457 OFFCURVE",
"723 768 OFFCURVE",
"910 768 CURVE",
"904 776 OFFCURVE",
"870 805 OFFCURVE",
"833 805 CURVE SMOOTH",
"701 805 OFFCURVE",
"627 433 OFFCURVE",
"571 55 CURVE",
"583 72 LINE",
"511 225 OFFCURVE",
"393 477 OFFCURVE",
"293 678 CURVE SMOOTH",
"288 688 OFFCURVE",
"281 694 OFFCURVE",
"275 694 CURVE",
"243 683 OFFCURVE",
"222 677 OFFCURVE",
"172 677 CURVE SMOOTH",
"152 677 OFFCURVE",
"117 678 OFFCURVE",
"93 687 CURVE",
"90 677 OFFCURVE",
"88 668 OFFCURVE",
"88 660 CURVE SMOOTH",
"88 638 OFFCURVE",
"102 636 OFFCURVE",
"116 636 CURVE SMOOTH",
"134 636 OFFCURVE",
"169 639 OFFCURVE",
"188 639 CURVE SMOOTH",
"221 639 OFFCURVE",
"228 630 OFFCURVE",
"228 605 CURVE SMOOTH",
"228 501 OFFCURVE",
"109 173 OFFCURVE",
"109 48 CURVE SMOOTH",
"109 -5 OFFCURVE",
"130 -15 OFFCURVE",
"162 -15 CURVE"
);
}
);
width = 780;
},
{
anchors = (
{
name = bottom;
position = "{368, 0}";
},
{
name = top;
position = "{481, 650}";
}
);
layerId = "73F3E0E0-4CEF-4E72-8F22-4B031C019FE7";
paths = (
{
closed = 1;
nodes = (
"169 -11 LINE",
"207 206 OFFCURVE",
"220 333 OFFCURVE",
"273 559 CURVE",
"260 552 LINE",
"346 380 OFFCURVE",
"407 264 OFFCURVE",
"543 -8 CURVE",
"564 -8 OFFCURVE",
"595 0 OFFCURVE",
"608 8 CURVE",
"699 467 OFFCURVE",
"729 768 OFFCURVE",
"914 768 CURVE",
"914 773 OFFCURVE",
"836 805 OFFCURVE",
"792 805 CURVE SMOOTH",
"688 805 OFFCURVE",
"657 630 OFFCURVE",
"555 103 CURVE",
"568 116 LINE",
"326 598 OFFCURVE",
"413 425 OFFCURVE",
"288 678 CURVE SMOOTH",
"283 688 OFFCURVE",
"275 694 OFFCURVE",
"269 694 CURVE",
"242 684 OFFCURVE",
"212 677 OFFCURVE",
"181 677 CURVE SMOOTH",
"152 677 OFFCURVE",
"117 683 OFFCURVE",
"97 692 CURVE",
"94 684 OFFCURVE",
"89 664 OFFCURVE",
"89 647 CURVE SMOOTH",
"89 629 OFFCURVE",
"95 626 OFFCURVE",
"116 626 CURVE SMOOTH",
"136 626 OFFCURVE",
"167 629 OFFCURVE",
"186 629 CURVE SMOOTH",
"207 629 OFFCURVE",
"216 625 OFFCURVE",
"216 614 CURVE SMOOTH",
"216 572 OFFCURVE",
"83 68 OFFCURVE",
"83 19 CURVE SMOOTH",
"83 4 OFFCURVE",
"95 -11 OFFCURVE",
"124 -11 CURVE"
);
}
);
width = 780;
}
);
note = N;
unicode = 004E;
},
{
color = 4;
glyphname = O;
lastChange = "2018-03-15 16:27:03 +0000";
layers = (
{
anchors = (
{
name = bottom;
position = "{369, 0}";
},
{
name = center;
position = "{413, 350}";
},
{
name = ogonek;
position = "{479, 10}";
},
{
name = top;
position = "{488, 700}";
},
{
name = topleft;
position = "{80, 700}";
},
{
name = topright;
position = "{706, 625}";
}
);
layerId = "4C458150-A1D2-4ED7-A293-C8767657F79E";
paths = (
{
closed = 1;
nodes = (
"634 -15 OFFCURVE",
"773 188 OFFCURVE",
"773 408 CURVE SMOOTH",
"773 607 OFFCURVE",
"660 719 OFFCURVE",
"475 719 CURVE SMOOTH",
"232 719 OFFCURVE",
"85 524 OFFCURVE",
"85 301 CURVE SMOOTH",
"85 103 OFFCURVE",
"201 -15 OFFCURVE",
"389 -15 CURVE SMOOTH"
);
},
{
closed = 1;
nodes = (
"232 30 OFFCURVE",
"147 126 OFFCURVE",
"147 294 CURVE SMOOTH",
"147 496 OFFCURVE",
"269 677 OFFCURVE",
"476 677 CURVE SMOOTH",
"625 677 OFFCURVE",
"711 584 OFFCURVE",
"711 410 CURVE SMOOTH",
"711 198 OFFCURVE",
"583 30 OFFCURVE",
"383 30 CURVE SMOOTH"
);
}
);
width = 806;
},
{
anchors = (
{
name = bottom;
position = "{367, 0}";
},
{
name = center;
position = "{399, 350}";
},
{
name = ogonek;
position = "{477, 10}";
},
{
name = top;
position = "{460, 680}";
},
{
name = topleft;
position = "{88, 700}";
},
{
name = topright;
position = "{706, 625}";
}
);
background = {
paths = (
{
closed = 1;
nodes = (
"609 -15 OFFCURVE",
"738 155 OFFCURVE",
"738 358 CURVE SMOOTH",
"738 573 OFFCURVE",
"622 719 OFFCURVE",
"411 719 CURVE SMOOTH",
"189 719 OFFCURVE",
"54 556 OFFCURVE",
"54 351 CURVE SMOOTH",
"54 135 OFFCURVE",
"173 -15 OFFCURVE",
"384 -15 CURVE SMOOTH"
);
},
{
closed = 1;
nodes = (
"221 30 OFFCURVE",
"117 167 OFFCURVE",
"117 342 CURVE SMOOTH",
"117 529 OFFCURVE",
"202 677 OFFCURVE",
"409 677 CURVE SMOOTH",
"573 677 OFFCURVE",
"675 541 OFFCURVE",
"675 360 CURVE SMOOTH",
"675 168 OFFCURVE",
"584 30 OFFCURVE",
"379 30 CURVE SMOOTH"
);
}
);
};
layerId = "73F3E0E0-4CEF-4E72-8F22-4B031C019FE7";
paths = (
{
closed = 1;
nodes = (
"608 -15 OFFCURVE",
"774 176 OFFCURVE",
"774 417 CURVE SMOOTH",
"774 617 OFFCURVE",
"660 719 OFFCURVE",
"478 719 CURVE SMOOTH",
"236 719 OFFCURVE",
"66 540 OFFCURVE",
"66 293 CURVE SMOOTH",
"66 91 OFFCURVE",
"179 -15 OFFCURVE",
"362 -15 CURVE SMOOTH"
);
},
{
closed = 1;
nodes = (
"243 40 OFFCURVE",
"167 122 OFFCURVE",
"167 292 CURVE SMOOTH",
"167 495 OFFCURVE",
"275 667 OFFCURVE",
"458 667 CURVE SMOOTH",
"582 667 OFFCURVE",
"670 589 OFFCURVE",
"670 408 CURVE SMOOTH",
"670 217 OFFCURVE",
"571 40 OFFCURVE",
"376 40 CURVE SMOOTH"
);
}
);
width = 792;
}
);
note = O;
unicode = 004F;
},
{
color = 4;
glyphname = P;
lastChange = "2018-03-15 16:38:25 +0000";
layers = (
{
anchors = (
{
name = bottom;
position = "{289, 0}";
},
{
name = top;
position = "{433, 680}";
}
);
layerId = "4C458150-A1D2-4ED7-A293-C8767657F79E";
paths = (
{
closed = 1;
nodes = (
"167 -8 OFFCURVE",
"182 -7 OFFCURVE",
"194 -4 CURVE",
"192 2 OFFCURVE",
"190 11 OFFCURVE",
"190 23 CURVE SMOOTH",
"190 107 OFFCURVE",
"296 582 OFFCURVE",
"315 634 CURVE SMOOTH",
"323 657 OFFCURVE",
"344 670 OFFCURVE",
"413 670 CURVE SMOOTH",
"541 670 OFFCURVE",
"605 626 OFFCURVE",
"605 528 CURVE SMOOTH",
"605 416 OFFCURVE",
"520 336 OFFCURVE",
"391 336 CURVE SMOOTH",
"353 336 OFFCURVE",
"314 343 OFFCURVE",
"301 347 CURVE",
"297 344 OFFCURVE",
"293 338 OFFCURVE",
"293 330 CURVE SMOOTH",
"293 306 OFFCURVE",
"330 293 OFFCURVE",
"393 293 CURVE SMOOTH",
"581 293 OFFCURVE",
"662 407 OFFCURVE",
"662 530 CURVE SMOOTH",
"662 660 OFFCURVE",
"572 716 OFFCURVE",
"442 716 CURVE SMOOTH",
"360 716 OFFCURVE",
"246 694 OFFCURVE",
"130 694 CURVE SMOOTH",
"89 694 OFFCURVE",
"69 694 OFFCURVE",
"34 716 CURVE",
"29 702 OFFCURVE",
"24 676 OFFCURVE",
"26 664 CURVE SMOOTH",
"29 649 OFFCURVE",
"43 646 OFFCURVE",
"67 646 CURVE SMOOTH",
"121 646 OFFCURVE",
"210 661 OFFCURVE",
"243 661 CURVE SMOOTH",
"258 661 OFFCURVE",
"264 658 OFFCURVE",
"264 644 CURVE SMOOTH",
"264 576 OFFCURVE",
"130 103 OFFCURVE",
"130 18 CURVE SMOOTH",
"130 -4 OFFCURVE",
"139 -8 OFFCURVE",
"158 -8 CURVE SMOOTH"
);
}
);
width = 645;
},
{
anchors = (
{
name = bottom;
position = "{281, 0}";
},
{
name = top;
position = "{401, 680}";
}
);
layerId = "73F3E0E0-4CEF-4E72-8F22-4B031C019FE7";
paths = (
{
closed = 1;
nodes = (
"132 -7 OFFCURVE",
"163 0 OFFCURVE",
"175 3 CURVE",
"175 12 OFFCURVE",
"173 29 OFFCURVE",
"173 39 CURVE SMOOTH",
"173 89 OFFCURVE",
"261 533 OFFCURVE",
"282 622 CURVE SMOOTH",
"289 651 OFFCURVE",
"348 660 OFFCURVE",
"392 660 CURVE SMOOTH",
"483 660 OFFCURVE",
"541 622 OFFCURVE",
"541 527 CURVE SMOOTH",
"541 427 OFFCURVE",
"476 346 OFFCURVE",
"359 346 CURVE SMOOTH",
"320 346 OFFCURVE",
"289 355 OFFCURVE",
"278 364 CURVE",
"271 358 OFFCURVE",
"263 346 OFFCURVE",
"263 333 CURVE SMOOTH",
"263 314 OFFCURVE",
"279 286 OFFCURVE",
"360 286 CURVE SMOOTH",
"511 286 OFFCURVE",
"639 385 OFFCURVE",
"639 541 CURVE SMOOTH",
"639 664 OFFCURVE",
"559 716 OFFCURVE",
"404 716 CURVE SMOOTH",
"313 716 OFFCURVE",
"194 698 OFFCURVE",
"115 698 CURVE SMOOTH",
"78 698 OFFCURVE",
"50 702 OFFCURVE",
"24 712 CURVE",
"16 700 OFFCURVE",
"7 669 OFFCURVE",
"7 651 CURVE SMOOTH",
"7 632 OFFCURVE",
"17 626 OFFCURVE",
"48 626 CURVE SMOOTH",
"97 626 OFFCURVE",
"147 641 OFFCURVE",
"176 641 CURVE SMOOTH",
"191 641 OFFCURVE",
"193 637 OFFCURVE",
"193 633 CURVE SMOOTH",
"193 580 OFFCURVE",
"72 84 OFFCURVE",
"72 17 CURVE SMOOTH",
"72 0 OFFCURVE",
"78 -7 OFFCURVE",
"105 -7 CURVE SMOOTH"
);
}
);
width = 645;
}
);
note = P;
unicode = 0050;
},
{
color = 4;
glyphname = Q;
lastChange = "2018-03-15 16:39:49 +0000";
layers = (
{
anchors = (
{
name = bottom;
position = "{339, 0}";
},
{
name = top;
position = "{459, 680}";
}
);
layerId = "4C458150-A1D2-4ED7-A293-C8767657F79E";
paths = (
{
closed = 1;
nodes = (
"767 -140 OFFCURVE",
"867 -96 OFFCURVE",
"867 -49 CURVE SMOOTH",
"867 -35 OFFCURVE",
"858 -32 OFFCURVE",
"846 -17 CURVE",
"808 -73 OFFCURVE",
"740 -114 OFFCURVE",
"654 -114 CURVE SMOOTH",
"447 -114 OFFCURVE",
"313 120 OFFCURVE",
"215 372 CURVE",
"143 353 OFFCURVE",
"95 277 OFFCURVE",
"95 196 CURVE SMOOTH",
"95 75 OFFCURVE",
"202 -8 OFFCURVE",
"351 -8 CURVE SMOOTH",
"591 -8 OFFCURVE",
"744 206 OFFCURVE",
"744 422 CURVE SMOOTH",
"744 620 OFFCURVE",
"616 713 OFFCURVE",
"444 713 CURVE SMOOTH",
"187 713 OFFCURVE",
"102 507 OFFCURVE",
"102 426 CURVE SMOOTH",
"102 394 OFFCURVE",
"115 384 OFFCURVE",
"138 384 CURVE",
"152 509 OFFCURVE",
"245 684 OFFCURVE",
"445 684 CURVE SMOOTH",
"595 684 OFFCURVE",
"680 585 OFFCURVE",
"680 418 CURVE SMOOTH",
"680 230 OFFCURVE",
"573 28 OFFCURVE",
"359 28 CURVE SMOOTH",
"250 28 OFFCURVE",
"141 81 OFFCURVE",
"141 199 CURVE SMOOTH",
"141 247 OFFCURVE",
"159 301 OFFCURVE",
"201 327 CURVE",
"170 326 LINE",
"256 95 OFFCURVE",
"406 -140 OFFCURVE",
"658 -140 CURVE SMOOTH"
);
}
);
width = 779;
},
{
anchors = (
{
name = bottom;
position = "{343, 0}";
},
{
name = top;
position = "{463, 680}";
}
);
layerId = "73F3E0E0-4CEF-4E72-8F22-4B031C019FE7";
paths = (
{
closed = 1;
nodes = (
"779 -184 OFFCURVE",
"854 -139 OFFCURVE",
"854 -81 CURVE SMOOTH",
"854 -60 OFFCURVE",
"844 -50 OFFCURVE",
"831 -41 CURVE",
"803 -99 OFFCURVE",
"741 -124 OFFCURVE",
"672 -124 CURVE SMOOTH",
"471 -124 OFFCURVE",
"366 85 OFFCURVE",
"258 375 CURVE",
"164 372 OFFCURVE",
"88 313 OFFCURVE",
"88 206 CURVE SMOOTH",
"88 81 OFFCURVE",
"192 -8 OFFCURVE",
"346 -8 CURVE SMOOTH",
"575 -8 OFFCURVE",
"751 189 OFFCURVE",
"751 415 CURVE SMOOTH",
"751 598 OFFCURVE",
"635 713 OFFCURVE",
"455 713 CURVE SMOOTH",
"255 713 OFFCURVE",
"91 571 OFFCURVE",
"91 450 CURVE SMOOTH",
"91 415 OFFCURVE",
"105 394 OFFCURVE",
"164 394 CURVE",
"178 549 OFFCURVE",
"279 661 OFFCURVE",
"440 661 CURVE SMOOTH",
"576 661 OFFCURVE",
"652 582 OFFCURVE",
"652 428 CURVE SMOOTH",
"652 229 OFFCURVE",
"526 41 OFFCURVE",
"343 41 CURVE SMOOTH",
"230 41 OFFCURVE",
"155 113 OFFCURVE",
"155 204 CURVE SMOOTH",
"155 259 OFFCURVE",
"182 287 OFFCURVE",
"221 306 CURVE",
"190 305 LINE",
"285 54 OFFCURVE",
"434 -184 OFFCURVE",
"674 -184 CURVE SMOOTH"
);
}
);
width = 779;
}
);
note = Q;
unicode = 0051;
},
{
color = 4;
glyphname = R;
lastChange = "2018-03-15 16:40:37 +0000";
layers = (
{
anchors = (
{
name = bottom;
position = "{329, 0}";
},
{
name = top;
position = "{551, 700}";
}
);
layerId = "4C458150-A1D2-4ED7-A293-C8767657F79E";
paths = (
{
closed = 1;
nodes = (
"1343 -239 OFFCURVE",
"1389 -184 OFFCURVE",
"1389 -150 CURVE SMOOTH",
"1389 -140 OFFCURVE",
"1385 -135 OFFCURVE",
"1381 -132 CURVE",
"1347 -168 OFFCURVE",
"1301 -199 OFFCURVE",
"1211 -199 CURVE SMOOTH",
"912 -199 OFFCURVE",
"594 139 OFFCURVE",
"443 340 CURVE",
"440 329 LINE",
"617 359 OFFCURVE",
"720 458 OFFCURVE",
"720 555 CURVE SMOOTH",
"720 661 OFFCURVE",
"596 713 OFFCURVE",
"433 713 CURVE SMOOTH",
"225 713 OFFCURVE",
"43 628 OFFCURVE",
"43 493 CURVE SMOOTH",
"43 450 OFFCURVE",
"62 429 OFFCURVE",
"85 417 CURVE SMOOTH",
"97 411 OFFCURVE",
"108 408 OFFCURVE",
"125 408 CURVE",
"103 441 OFFCURVE",
"95 467 OFFCURVE",
"95 493 CURVE SMOOTH",
"95 587 OFFCURVE",
"202 671 OFFCURVE",
"308 671 CURVE SMOOTH",
"320 671 OFFCURVE",
"326 670 OFFCURVE",
"326 662 CURVE SMOOTH",
"326 659 OFFCURVE",
"325 651 OFFCURVE",
"324 647 CURVE SMOOTH",
"287 497 OFFCURVE",
"216 264 OFFCURVE",
"110 -27 CURVE",
"114 -29 OFFCURVE",
"120 -33 OFFCURVE",
"123 -33 CURVE",
"136 -14 OFFCURVE",
"155 7 OFFCURVE",
"188 4 CURVE",
"257 264 OFFCURVE",
"329 504 OFFCURVE",
"386 658 CURVE SMOOTH",
"393 677 OFFCURVE",
"413 679 OFFCURVE",
"442 679 CURVE SMOOTH",
"589 679 OFFCURVE",
"660 626 OFFCURVE",
"660 533 CURVE SMOOTH",
"660 428 OFFCURVE",
"534 374 OFFCURVE",
"379 362 CURVE SMOOTH",
"370 361 OFFCURVE",
"364 360 OFFCURVE",
"364 350 CURVE",
"592 65 OFFCURVE",
"885 -239 OFFCURVE",
"1206 -239 CURVE SMOOTH"
);
}
);
width = 720;
},
{
anchors = (
{
name = bottom;
position = "{325, 0}";
},
{
name = top;
position = "{445, 680}";
}
);
layerId = "73F3E0E0-4CEF-4E72-8F22-4B031C019FE7";
paths = (
{
closed = 1;
nodes = (
"1333 -249 OFFCURVE",
"1397 -186 OFFCURVE",
"1397 -131 CURVE SMOOTH",
"1397 -116 OFFCURVE",
"1392 -110 OFFCURVE",
"1380 -103 CURVE",
"1352 -138 OFFCURVE",
"1289 -164 OFFCURVE",
"1195 -164 CURVE SMOOTH",
"873 -164 OFFCURVE",
"557 137 OFFCURVE",
"451 340 CURVE",
"449 329 LINE",
"578 350 OFFCURVE",
"718 428 OFFCURVE",
"718 537 CURVE SMOOTH",
"718 665 OFFCURVE",
"526 713 OFFCURVE",
"363 713 CURVE SMOOTH",
"166 713 OFFCURVE",
"-13 643 OFFCURVE",
"-13 508 CURVE SMOOTH",
"-13 468 OFFCURVE",
"3 430 OFFCURVE",
"37 417 CURVE SMOOTH",
"56 410 OFFCURVE",
"100 403 OFFCURVE",
"117 403 CURVE",
"95 424 OFFCURVE",
"77 457 OFFCURVE",
"77 503 CURVE SMOOTH",
"77 589 OFFCURVE",
"142 665 OFFCURVE",
"231 665 CURVE SMOOTH",
"246 665 OFFCURVE",
"252 663 OFFCURVE",
"252 651 CURVE SMOOTH",
"252 601 OFFCURVE",
"154 146 OFFCURVE",
"109 -27 CURVE",
"113 -29 OFFCURVE",
"119 -33 OFFCURVE",
"122 -33 CURVE",
"133 -14 OFFCURVE",
"190 7 OFFCURVE",
"224 4 CURVE",
"236 79 OFFCURVE",
"251 168 OFFCURVE",
"260 221 CURVE SMOOTH",
"289 390 OFFCURVE",
"322 537 OFFCURVE",
"351 648 CURVE SMOOTH",
"356 667 OFFCURVE",
"372 669 OFFCURVE",
"398 669 CURVE SMOOTH",
"518 669 OFFCURVE",
"620 626 OFFCURVE",
"620 514 CURVE SMOOTH",
"620 397 OFFCURVE",
"502 377 OFFCURVE",
"357 362 CURVE SMOOTH",
"349 361 OFFCURVE",
"345 358 OFFCURVE",
"343 345 CURVE",
"534 57 OFFCURVE",
"847 -249 OFFCURVE",
"1181 -249 CURVE SMOOTH"
);
}
);
width = 720;
}
);
note = R;
unicode = 0052;
},
{
color = 4;
glyphname = S;
lastChange = "2018-03-15 16:40:37 +0000";
layers = (
{
anchors = (
{
name = bottom;
position = "{228, 0}";
},
{
name = top;
position = "{407, 700}";
}
);
layerId = "4C458150-A1D2-4ED7-A293-C8767657F79E";
paths = (
{
closed = 1;
nodes = (
"326 -12 OFFCURVE",
"481 49 OFFCURVE",
"480 195 CURVE SMOOTH",
"479 260 OFFCURVE",
"450 298 OFFCURVE",
"369 371 CURVE SMOOTH",
"306 428 OFFCURVE",
"242 476 OFFCURVE",
"242 546 CURVE SMOOTH",
"242 615 OFFCURVE",
"303 665 OFFCURVE",
"402 665 CURVE SMOOTH",
"470 665 OFFCURVE",
"503 641 OFFCURVE",
"503 578 CURVE SMOOTH",
"503 559 OFFCURVE",
"500 550 OFFCURVE",
"498 529 CURVE",
"504 527 OFFCURVE",
"514 525 OFFCURVE",
"523 525 CURVE",
"528 548 OFFCURVE",
"543 603 OFFCURVE",
"543 640 CURVE",
"529 672 OFFCURVE",
"474 707 OFFCURVE",
"391 707 CURVE SMOOTH",
"270 707 OFFCURVE",
"192 632 OFFCURVE",
"192 535 CURVE SMOOTH",
"192 450 OFFCURVE",
"253 408 OFFCURVE",
"320 345 CURVE SMOOTH",
"396 274 OFFCURVE",
"420 230 OFFCURVE",
"420 180 CURVE SMOOTH",
"420 79 OFFCURVE",
"320 28 OFFCURVE",
"201 28 CURVE SMOOTH",
"96 28 OFFCURVE",
"65 68 OFFCURVE",
"65 178 CURVE",
"57 178 OFFCURVE",
"48 176 OFFCURVE",
"42 171 CURVE",
"42 143 OFFCURVE",
"36 76 OFFCURVE",
"29 42 CURVE",
"42 15 OFFCURVE",
"131 -12 OFFCURVE",
"209 -12 CURVE SMOOTH"
);
}
);
width = 550;
},
{
anchors = (
{
name = bottom;
position = "{248, 0}";
},
{
name = top;
position = "{356, 680}";
}
);
layerId = "73F3E0E0-4CEF-4E72-8F22-4B031C019FE7";
paths = (
{
closed = 1;
nodes = (
"363 -12 OFFCURVE",
"485 64 OFFCURVE",
"485 198 CURVE SMOOTH",
"485 303 OFFCURVE",
"411 348 OFFCURVE",
"332 396 CURVE SMOOTH",
"286 424 OFFCURVE",
"224 466 OFFCURVE",
"224 539 CURVE SMOOTH",
"224 595 OFFCURVE",
"259 665 OFFCURVE",
"361 665 CURVE SMOOTH",
"423 665 OFFCURVE",
"471 639 OFFCURVE",
"471 583 CURVE SMOOTH",
"471 561 OFFCURVE",
"464 538 OFFCURVE",
"458 522 CURVE",
"468 522 OFFCURVE",
"484 524 OFFCURVE",
"494 528 CURVE",
"501 560 OFFCURVE",
"524 611 OFFCURVE",
"541 649 CURVE",
"524 675 OFFCURVE",
"450 707 OFFCURVE",
"360 707 CURVE SMOOTH",
"231 707 OFFCURVE",
"129 642 OFFCURVE",
"129 528 CURVE SMOOTH",
"129 438 OFFCURVE",
"192 388 OFFCURVE",
"276 330 CURVE SMOOTH",
"335 290 OFFCURVE",
"374 261 OFFCURVE",
"374 191 CURVE SMOOTH",
"374 103 OFFCURVE",
"313 38 OFFCURVE",
"214 38 CURVE SMOOTH",
"119 38 OFFCURVE",
"71 98 OFFCURVE",
"66 203 CURVE",
"55 202 OFFCURVE",
"44 197 OFFCURVE",
"38 192 CURVE",
"37 163 OFFCURVE",
"28 86 OFFCURVE",
"21 52 CURVE",
"34 25 OFFCURVE",
"119 -12 OFFCURVE",
"219 -12 CURVE SMOOTH"
);
}
);
width = 550;
}
);
note = S;
unicode = 0053;
},
{
color = 4;
glyphname = T;
lastChange = "2018-03-15 18:36:37 +0000";
layers = (
{
anchors = (
{
name = bottom;
position = "{98, 0}";
},
{
name = center;
position = "{401, 350}";
},
{
name = top;
position = "{539, 700}";
}
);
layerId = "4C458150-A1D2-4ED7-A293-C8767657F79E";
paths = (
{
closed = 1;
nodes = (
"168 299 OFFCURVE",
"183 299 OFFCURVE",
"206 299 CURVE",
"210 304 LINE",
"124 365 OFFCURVE",
"73 424 OFFCURVE",
"73 502 CURVE SMOOTH",
"73 613 OFFCURVE",
"176 680 OFFCURVE",
"288 680 CURVE SMOOTH",
"383 680 OFFCURVE",
"582 632 OFFCURVE",
"678 632 CURVE SMOOTH",
"776 632 OFFCURVE",
"821 681 OFFCURVE",
"834 740 CURVE",
"804 694 OFFCURVE",
"747 679 OFFCURVE",
"694 679 CURVE SMOOTH",
"603 679 OFFCURVE",
"502 722 OFFCURVE",
"354 722 CURVE SMOOTH",
"125 722 OFFCURVE",
"19 619 OFFCURVE",
"19 504 CURVE SMOOTH",
"19 419 OFFCURVE",
"77 331 OFFCURVE",
"146 291 CURVE"
);
},
{
closed = 1;
nodes = (
"265 -15 OFFCURVE",
"361 86 OFFCURVE",
"408 274 CURVE SMOOTH",
"430 363 OFFCURVE",
"471 577 OFFCURVE",
"516 637 CURVE",
"507 640 LINE",
"479 628 OFFCURVE",
"454 617 OFFCURVE",
"430 589 CURVE",
"402 496 OFFCURVE",
"366 330 OFFCURVE",
"353 276 CURVE SMOOTH",
"299 56 OFFCURVE",
"210 14 OFFCURVE",
"105 14 CURVE SMOOTH",
"32 14 OFFCURVE",
"-9 34 OFFCURVE",
"-55 79 CURVE",
"-64 69 LINE",
"-60 51 OFFCURVE",
"-55 35 OFFCURVE",
"-47 14 CURVE",
"-14 -1 OFFCURVE",
"53 -15 OFFCURVE",
"111 -15 CURVE SMOOTH"
);
}
);
width = 597;
},
{
anchors = (
{
name = bottom;
position = "{144, 0}";
},
{
name = center;
position = "{401, 350}";
},
{
name = top;
position = "{539, 700}";
}
);
layerId = "73F3E0E0-4CEF-4E72-8F22-4B031C019FE7";
paths = (
{
closed = 1;
nodes = (
"148 299 OFFCURVE",
"203 299 OFFCURVE",
"226 299 CURVE",
"230 304 LINE",
"144 346 OFFCURVE",
"109 397 OFFCURVE",
"109 476 CURVE SMOOTH",
"109 578 OFFCURVE",
"168 680 OFFCURVE",
"287 680 CURVE SMOOTH",
"397 680 OFFCURVE",
"543 592 OFFCURVE",
"670 592 CURVE SMOOTH",
"773 592 OFFCURVE",
"829 650 OFFCURVE",
"834 740 CURVE",
"802 695 OFFCURVE",
"748 679 OFFCURVE",
"694 679 CURVE SMOOTH",
"606 679 OFFCURVE",
"492 722 OFFCURVE",
"361 722 CURVE SMOOTH",
"162 722 OFFCURVE",
"13 623 OFFCURVE",
"13 459 CURVE SMOOTH",
"13 363 OFFCURVE",
"64 309 OFFCURVE",
"125 291 CURVE"
);
},
{
closed = 1;
nodes = (
"233 -15 OFFCURVE",
"358 55 OFFCURVE",
"407 256 CURVE SMOOTH",
"426 334 OFFCURVE",
"461 545 OFFCURVE",
"498 626 CURVE",
"489 629 LINE",
"459 617 OFFCURVE",
"416 587 OFFCURVE",
"388 549 CURVE",
"366 463 OFFCURVE",
"349 391 OFFCURVE",
"317 253 CURVE SMOOTH",
"281 97 OFFCURVE",
"206 23 OFFCURVE",
"98 23 CURVE SMOOTH",
"17 23 OFFCURVE",
"-30 64 OFFCURVE",
"-57 93 CURVE",
"-63 82 LINE",
"-63 62 OFFCURVE",
"-61 36 OFFCURVE",
"-55 13 CURVE",
"-28 1 OFFCURVE",
"26 -15 OFFCURVE",
"93 -15 CURVE SMOOTH"
);
}
);
width = 597;
}
);
note = T;
unicode = 0054;
},
{
color = 4;
glyphname = U;
lastChange = "2018-03-15 16:43:56 +0000";
layers = (
{
anchors = (
{
name = bottom;
position = "{296, 0}";
},
{
name = ogonek;
position = "{802, 10}";
},
{
name = top;
position = "{520, 660}";
},
{
name = topright;
position = "{778, 686}";
}
);
layerId = "4C458150-A1D2-4ED7-A293-C8767657F79E";
paths = (
{
closed = 1;
nodes = (
"810 -9 OFFCURVE",
"899 49 OFFCURVE",
"899 87 CURVE SMOOTH",
"899 94 OFFCURVE",
"896 100 OFFCURVE",
"892 103 CURVE",
"863 73 OFFCURVE",
"815 39 OFFCURVE",
"743 39 CURVE SMOOTH",
"668 39 OFFCURVE",
"638 76 OFFCURVE",
"638 148 CURVE SMOOTH",
"638 177 OFFCURVE",
"643 210 OFFCURVE",
"657 277 CURVE SMOOTH",
"683 399 OFFCURVE",
"715 517 OFFCURVE",
"768 641 CURVE SMOOTH",
"783 676 OFFCURVE",
"789 687 OFFCURVE",
"805 700 CURVE",
"788 705 OFFCURVE",
"768 709 OFFCURVE",
"754 709 CURVE SMOOTH",
"724 709 OFFCURVE",
"719 690 OFFCURVE",
"696 611 CURVE SMOOTH",
"664 502 OFFCURVE",
"643 428 OFFCURVE",
"603 308 CURVE SMOOTH",
"557 170 OFFCURVE",
"425 45 OFFCURVE",
"300 45 CURVE SMOOTH",
"227 45 OFFCURVE",
"199 87 OFFCURVE",
"199 168 CURVE SMOOTH",
"199 300 OFFCURVE",
"329 607 OFFCURVE",
"329 669 CURVE SMOOTH",
"329 693 OFFCURVE",
"317 702 OFFCURVE",
"280 702 CURVE SMOOTH",
"263 702 OFFCURVE",
"181 700 OFFCURVE",
"156 700 CURVE SMOOTH",
"130 700 OFFCURVE",
"122 702 OFFCURVE",
"109 710 CURVE",
"106 702 OFFCURVE",
"104 688 OFFCURVE",
"104 679 CURVE SMOOTH",
"104 657 OFFCURVE",
"117 649 OFFCURVE",
"141 649 CURVE SMOOTH",
"164 649 OFFCURVE",
"208 657 OFFCURVE",
"234 657 CURVE SMOOTH",
"259 657 OFFCURVE",
"269 649 OFFCURVE",
"265 634 CURVE SMOOTH",
"244 554 OFFCURVE",
"136 246 OFFCURVE",
"136 148 CURVE SMOOTH",
"136 42 OFFCURVE",
"197 -8 OFFCURVE",
"284 -8 CURVE SMOOTH",
"410 -8 OFFCURVE",
"556 97 OFFCURVE",
"624 280 CURVE",
"612 282 LINE",
"595 235 OFFCURVE",
"587 178 OFFCURVE",
"587 139 CURVE SMOOTH",
"587 43 OFFCURVE",
"635 -9 OFFCURVE",
"720 -9 CURVE SMOOTH"
);
}
);
width = 816;
},
{
anchors = (
{
name = bottom;
position = "{296, 0}";
},
{
name = ogonek;
position = "{802, 10}";
},
{
name = top;
position = "{450, 660}";
},
{
name = topright;
position = "{778, 686}";
}
);
layerId = "73F3E0E0-4CEF-4E72-8F22-4B031C019FE7";
paths = (
{
closed = 1;
nodes = (
"788 -9 OFFCURVE",
"899 37 OFFCURVE",
"899 92 CURVE SMOOTH",
"899 102 OFFCURVE",
"895 106 OFFCURVE",
"890 109 CURVE",
"863 80 OFFCURVE",
"817 49 OFFCURVE",
"751 49 CURVE SMOOTH",
"666 49 OFFCURVE",
"651 101 OFFCURVE",
"651 168 CURVE SMOOTH",
"651 207 OFFCURVE",
"656 239 OFFCURVE",
"665 287 CURVE SMOOTH",
"691 426 OFFCURVE",
"723 559 OFFCURVE",
"754 641 CURVE SMOOTH",
"768 679 OFFCURVE",
"777 689 OFFCURVE",
"791 700 CURVE",
"774 705 OFFCURVE",
"718 709 OFFCURVE",
"704 709 CURVE SMOOTH",
"675 709 OFFCURVE",
"669 691 OFFCURVE",
"646 611 CURVE SMOOTH",
"608 479 OFFCURVE",
"600 440 OFFCURVE",
"573 308 CURVE SMOOTH",
"544 164 OFFCURVE",
"428 55 OFFCURVE",
"321 55 CURVE SMOOTH",
"246 55 OFFCURVE",
"218 110 OFFCURVE",
"218 170 CURVE SMOOTH",
"218 280 OFFCURVE",
"310 572 OFFCURVE",
"310 652 CURVE SMOOTH",
"310 685 OFFCURVE",
"295 702 OFFCURVE",
"252 702 CURVE SMOOTH",
"220 702 OFFCURVE",
"150 693 OFFCURVE",
"112 693 CURVE SMOOTH",
"90 693 OFFCURVE",
"77 696 OFFCURVE",
"68 702 CURVE",
"65 697 OFFCURVE",
"60 674 OFFCURVE",
"60 660 CURVE SMOOTH",
"60 642 OFFCURVE",
"68 631 OFFCURVE",
"97 631 CURVE SMOOTH",
"131 631 OFFCURVE",
"166 647 OFFCURVE",
"192 647 CURVE SMOOTH",
"208 647 OFFCURVE",
"213 641 OFFCURVE",
"213 625 CURVE SMOOTH",
"213 556 OFFCURVE",
"122 287 OFFCURVE",
"122 171 CURVE SMOOTH",
"122 68 OFFCURVE",
"193 -8 OFFCURVE",
"304 -8 CURVE SMOOTH",
"438 -8 OFFCURVE",
"572 101 OFFCURVE",
"612 270 CURVE",
"587 282 LINE",
"573 243 OFFCURVE",
"558 183 OFFCURVE",
"558 135 CURVE SMOOTH",
"558 41 OFFCURVE",
"614 -9 OFFCURVE",
"703 -9 CURVE SMOOTH"
);
}
);
width = 836;
}
);
note = U;
unicode = 0055;
},
{
color = 4;
glyphname = V;
lastChange = "2018-03-15 16:43:56 +0000";
layers = (
{
layerId = "4C458150-A1D2-4ED7-A293-C8767657F79E";
paths = (
{
closed = 1;
nodes = (
"294 -10 OFFCURVE",
"316 -9 OFFCURVE",
"350 -6 CURVE SMOOTH",
"363 -5 OFFCURVE",
"365 -3 OFFCURVE",
"372 15 CURVE SMOOTH",
"458 235 OFFCURVE",
"670 521 OFFCURVE",
"763 675 CURVE SMOOTH",
"792 723 OFFCURVE",
"799 750 OFFCURVE",
"799 780 CURVE SMOOTH",
"799 814 OFFCURVE",
"783 829 OFFCURVE",
"757 829 CURVE SMOOTH",
"742 829 OFFCURVE",
"729 824 OFFCURVE",
"719 821 CURVE",
"727 809 OFFCURVE",
"730 792 OFFCURVE",
"730 781 CURVE SMOOTH",
"730 676 OFFCURVE",
"442 258 OFFCURVE",
"327 74 CURVE",
"337 71 LINE",
"337 143 OFFCURVE",
"339 99 OFFCURVE",
"339 259 CURVE SMOOTH",
"339 580 OFFCURVE",
"331 708 OFFCURVE",
"178 708 CURVE SMOOTH",
"86 708 OFFCURVE",
"-17 662 OFFCURVE",
"-17 617 CURVE SMOOTH",
"-17 608 OFFCURVE",
"-12 601 OFFCURVE",
"-6 598 CURVE",
"32 637 OFFCURVE",
"85 661 OFFCURVE",
"143 661 CURVE SMOOTH",
"286 661 OFFCURVE",
"287 514 OFFCURVE",
"286 233 CURVE SMOOTH",
"286 141 OFFCURVE",
"284 44 OFFCURVE",
"272 -13 CURVE",
"275 -16 OFFCURVE",
"278 -18 OFFCURVE",
"282 -20 CURVE"
);
}
);
width = 669;
},
{
layerId = "73F3E0E0-4CEF-4E72-8F22-4B031C019FE7";
paths = (
{
closed = 1;
nodes = (
"271 -11 OFFCURVE",
"302 -8 OFFCURVE",
"340 -6 CURVE SMOOTH",
"353 -5 OFFCURVE",
"355 -3 OFFCURVE",
"362 15 CURVE SMOOTH",
"442 219 OFFCURVE",
"620 454 OFFCURVE",
"758 675 CURVE SMOOTH",
"785 718 OFFCURVE",
"800 744 OFFCURVE",
"804 773 CURVE SMOOTH",
"809 809 OFFCURVE",
"796 829 OFFCURVE",
"760 829 CURVE SMOOTH",
"729 829 OFFCURVE",
"699 815 OFFCURVE",
"678 811 CURVE",
"686 799 OFFCURVE",
"691 786 OFFCURVE",
"688 766 CURVE SMOOTH",
"672 653 OFFCURVE",
"406 218 OFFCURVE",
"326 71 CURVE",
"337 71 LINE",
"336 230 OFFCURVE",
"334 414 OFFCURVE",
"327 503 CURVE SMOOTH",
"316 641 OFFCURVE",
"276 708 OFFCURVE",
"159 708 CURVE SMOOTH",
"65 708 OFFCURVE",
"-7 664 OFFCURVE",
"-17 617 CURVE SMOOTH",
"-20 601 OFFCURVE",
"-17 584 OFFCURVE",
"-11 578 CURVE",
"32 621 OFFCURVE",
"65 641 OFFCURVE",
"121 641 CURVE SMOOTH",
"194 641 OFFCURVE",
"229 607 OFFCURVE",
"242 499 CURVE SMOOTH",
"253 409 OFFCURVE",
"276 67 OFFCURVE",
"252 -13 CURVE",
"255 -16 OFFCURVE",
"258 -18 OFFCURVE",
"262 -20 CURVE"
);
}
);
width = 669;
}
);
note = V;
unicode = 0056;
},
{
color = 4;
glyphname = W;
lastChange = "2018-03-15 16:47:09 +0000";
layers = (
{
anchors = (
{
name = bottom;
position = "{461, 0}";
},
{
name = top;
position = "{580, 670}";
}
);
layerId = "4C458150-A1D2-4ED7-A293-C8767657F79E";
paths = (
{
closed = 1;
nodes = (
"225 -18 OFFCURVE",
"206 -14 OFFCURVE",
"261 -5 CURVE SMOOTH",
"268 -4 OFFCURVE",
"270 -1 OFFCURVE",
"274 9 CURVE SMOOTH",
"331 139 OFFCURVE",
"464 427 OFFCURVE",
"557 544 CURVE",
"548 549 LINE",
"580 384 OFFCURVE",
"611 265 OFFCURVE",
"642 -4 CURVE SMOOTH",
"644 -19 OFFCURVE",
"645 -24 OFFCURVE",
"654 -24 CURVE SMOOTH",
"656 -24 OFFCURVE",
"655 -24 OFFCURVE",
"657 -23 CURVE SMOOTH",
"682 -12 OFFCURVE",
"686 -9 OFFCURVE",
"705 -6 CURVE",
"719 -2 OFFCURVE",
"720 6 OFFCURVE",
"723 15 CURVE",
"811 301 OFFCURVE",
"982 689 OFFCURVE",
"1108 734 CURVE SMOOTH",
"1116 737 OFFCURVE",
"1122 737 OFFCURVE",
"1134 738 CURVE",
"1121 756 OFFCURVE",
"1106 770 OFFCURVE",
"1082 770 CURVE SMOOTH",
"955 770 OFFCURVE",
"804 392 OFFCURVE",
"678 54 CURVE",
"691 58 LINE",
"653 240 OFFCURVE",
"622 403 OFFCURVE",
"596 632 CURVE",
"572 632 OFFCURVE",
"549 629 OFFCURVE",
"541 621 CURVE",
"436 445 OFFCURVE",
"338 253 OFFCURVE",
"241 76 CURVE",
"257 77 LINE",
"257 91 OFFCURVE",
"253 513 OFFCURVE",
"257 588 CURVE SMOOTH",
"260 651 OFFCURVE",
"266 667 OFFCURVE",
"278 696 CURVE SMOOTH",
"283 709 OFFCURVE",
"279 713 OFFCURVE",
"273 713 CURVE SMOOTH",
"258 713 OFFCURVE",
"201 685 OFFCURVE",
"81 665 CURVE",
"76 665 OFFCURVE",
"74 659 OFFCURVE",
"74 651 CURVE SMOOTH",
"74 638 OFFCURVE",
"79 619 OFFCURVE",
"92 619 CURVE SMOOTH",
"103 619 OFFCURVE",
"142 632 OFFCURVE",
"168 632 CURVE SMOOTH",
"187 632 OFFCURVE",
"194 625 OFFCURVE",
"198 609 CURVE SMOOTH",
"208 571 OFFCURVE",
"214 446 OFFCURVE",
"214 323 CURVE SMOOTH",
"214 182 OFFCURVE",
"206 31 OFFCURVE",
"196 -15 CURVE SMOOTH",
"194 -24 OFFCURVE",
"197 -29 OFFCURVE",
"204 -29 CURVE"
);
}
);
width = 935;
},
{
anchors = (
{
name = bottom;
position = "{441, 0}";
},
{
name = top;
position = "{551, 650}";
}
);
layerId = "73F3E0E0-4CEF-4E72-8F22-4B031C019FE7";
paths = (
{
closed = 1;
nodes = (
"205 -13 OFFCURVE",
"222 -9 OFFCURVE",
"261 -5 CURVE SMOOTH",
"269 -4 OFFCURVE",
"268 -3 OFFCURVE",
"274 14 CURVE SMOOTH",
"302 93 OFFCURVE",
"465 418 OFFCURVE",
"528 519 CURVE",
"513 519 LINE",
"542 365 OFFCURVE",
"576 217 OFFCURVE",
"583 35 CURVE SMOOTH",
"584 20 OFFCURVE",
"583 31 OFFCURVE",
"584 -4 CURVE SMOOTH",
"584 -15 OFFCURVE",
"589 -24 OFFCURVE",
"601 -24 CURVE SMOOTH",
"619 -24 OFFCURVE",
"645 -6 OFFCURVE",
"675 -6 CURVE",
"689 -2 OFFCURVE",
"690 6 OFFCURVE",
"693 15 CURVE SMOOTH",
"788 299 OFFCURVE",
"949 679 OFFCURVE",
"1076 724 CURVE SMOOTH",
"1084 727 OFFCURVE",
"1090 727 OFFCURVE",
"1102 728 CURVE",
"1083 749 OFFCURVE",
"1049 770 OFFCURVE",
"1009 770 CURVE SMOOTH",
"884 770 OFFCURVE",
"735 368 OFFCURVE",
"628 54 CURVE",
"651 58 LINE",
"633 240 OFFCURVE",
"603 413 OFFCURVE",
"580 652 CURVE",
"556 652 OFFCURVE",
"510 639 OFFCURVE",
"503 631 CURVE",
"418 455 OFFCURVE",
"332 273 OFFCURVE",
"229 66 CURVE",
"245 67 LINE",
"246 242 OFFCURVE",
"253 511 OFFCURVE",
"257 588 CURVE SMOOTH",
"262 674 OFFCURVE",
"273 682 OFFCURVE",
"278 696 CURVE SMOOTH",
"280 702 OFFCURVE",
"280 713 OFFCURVE",
"269 713 CURVE SMOOTH",
"264 713 OFFCURVE",
"106 677 OFFCURVE",
"51 665 CURVE SMOOTH",
"46 664 OFFCURVE",
"44 659 OFFCURVE",
"44 652 CURVE SMOOTH",
"44 641 OFFCURVE",
"48 619 OFFCURVE",
"62 619 CURVE SMOOTH",
"73 619 OFFCURVE",
"102 632 OFFCURVE",
"128 632 CURVE SMOOTH",
"147 632 OFFCURVE",
"154 625 OFFCURVE",
"158 609 CURVE SMOOTH",
"171 558 OFFCURVE",
"179 382 OFFCURVE",
"179 233 CURVE SMOOTH",
"179 84 OFFCURVE",
"171 23 OFFCURVE",
"166 -15 CURVE SMOOTH",
"165 -23 OFFCURVE",
"165 -29 OFFCURVE",
"174 -29 CURVE"
);
}
);
width = 935;
}
);
note = W;
unicode = 0057;
},
{
color = 4;
glyphname = X;
lastChange = "2018-03-15 16:48:04 +0000";
layers = (
{
layerId = "4C458150-A1D2-4ED7-A293-C8767657F79E";
paths = (
{
closed = 1;
nodes = (
"96 -89 OFFCURVE",
"95 -79 OFFCURVE",
"95 -63 CURVE SMOOTH",
"95 13 OFFCURVE",
"119 50 OFFCURVE",
"150 85 CURVE SMOOTH",
"222 165 OFFCURVE",
"580 491 OFFCURVE",
"769 680 CURVE SMOOTH",
"774 685 OFFCURVE",
"777 691 OFFCURVE",
"777 695 CURVE SMOOTH",
"777 709 OFFCURVE",
"735 759 OFFCURVE",
"726 759 CURVE SMOOTH",
"717 759 OFFCURVE",
"714 758 OFFCURVE",
"712 755 CURVE",
"719 748 OFFCURVE",
"722 737 OFFCURVE",
"722 729 CURVE SMOOTH",
"722 722 OFFCURVE",
"720 716 OFFCURVE",
"715 710 CURVE SMOOTH",
"597 568 OFFCURVE",
"261 259 OFFCURVE",
"132 142 CURVE SMOOTH",
"93 107 OFFCURVE",
"37 52 OFFCURVE",
"37 -18 CURVE SMOOTH",
"37 -58 OFFCURVE",
"55 -79 OFFCURVE",
"98 -100 CURVE"
);
},
{
closed = 1;
nodes = (
"680 -13 OFFCURVE",
"774 48 OFFCURVE",
"774 86 CURVE SMOOTH",
"774 94 OFFCURVE",
"770 102 OFFCURVE",
"765 106 CURVE",
"733 70 OFFCURVE",
"687 41 OFFCURVE",
"635 41 CURVE SMOOTH",
"586 41 OFFCURVE",
"551 67 OFFCURVE",
"514 150 CURVE SMOOTH",
"461 269 OFFCURVE",
"411 495 OFFCURVE",
"379 580 CURVE SMOOTH",
"350 658 OFFCURVE",
"305 704 OFFCURVE",
"230 704 CURVE SMOOTH",
"158 704 OFFCURVE",
"72 661 OFFCURVE",
"72 623 CURVE SMOOTH",
"72 613 OFFCURVE",
"78 605 OFFCURVE",
"83 600 CURVE",
"122 636 OFFCURVE",
"157 657 OFFCURVE",
"213 657 CURVE SMOOTH",
"261 657 OFFCURVE",
"294 642 OFFCURVE",
"319 574 CURVE SMOOTH",
"347 499 OFFCURVE",
"403 264 OFFCURVE",
"452 141 CURVE SMOOTH",
"494 37 OFFCURVE",
"542 -13 OFFCURVE",
"608 -13 CURVE SMOOTH"
);
}
);
width = 802;
},
{
layerId = "73F3E0E0-4CEF-4E72-8F22-4B031C019FE7";
paths = (
{
closed = 1;
nodes = (
"139 -75 OFFCURVE",
"138 -64 OFFCURVE",
"138 -54 CURVE SMOOTH",
"138 24 OFFCURVE",
"199 96 OFFCURVE",
"257 160 CURVE SMOOTH",
"414 333 OFFCURVE",
"571 478 OFFCURVE",
"781 669 CURVE SMOOTH",
"785 672 OFFCURVE",
"788 677 OFFCURVE",
"788 680 CURVE SMOOTH",
"788 695 OFFCURVE",
"697 754 OFFCURVE",
"686 754 CURVE SMOOTH",
"677 754 OFFCURVE",
"674 753 OFFCURVE",
"673 750 CURVE",
"678 744 OFFCURVE",
"682 736 OFFCURVE",
"682 728 CURVE SMOOTH",
"682 722 OFFCURVE",
"680 718 OFFCURVE",
"675 713 CURVE SMOOTH",
"429 457 OFFCURVE",
"396 422 OFFCURVE",
"198 211 CURVE SMOOTH",
"126 134 OFFCURVE",
"39 45 OFFCURVE",
"39 -19 CURVE SMOOTH",
"39 -63 OFFCURVE",
"80 -66 OFFCURVE",
"142 -90 CURVE"
);
},
{
closed = 1;
nodes = (
"713 -13 OFFCURVE",
"776 48 OFFCURVE",
"776 87 CURVE SMOOTH",
"776 94 OFFCURVE",
"774 112 OFFCURVE",
"769 116 CURVE",
"735 77 OFFCURVE",
"699 63 OFFCURVE",
"661 63 CURVE SMOOTH",
"611 63 OFFCURVE",
"584 88 OFFCURVE",
"550 174 CURVE SMOOTH",
"528 231 OFFCURVE",
"458 429 OFFCURVE",
"394 593 CURVE SMOOTH",
"363 672 OFFCURVE",
"307 704 OFFCURVE",
"239 704 CURVE SMOOTH",
"160 704 OFFCURVE",
"74 661 OFFCURVE",
"74 623 CURVE SMOOTH",
"74 613 OFFCURVE",
"80 605 OFFCURVE",
"85 600 CURVE",
"118 614 OFFCURVE",
"151 637 OFFCURVE",
"200 637 CURVE SMOOTH",
"254 637 OFFCURVE",
"298 609 OFFCURVE",
"324 543 CURVE SMOOTH",
"404 340 OFFCURVE",
"427 273 OFFCURVE",
"478 122 CURVE SMOOTH",
"514 15 OFFCURVE",
"561 -13 OFFCURVE",
"622 -13 CURVE SMOOTH"
);
}
);
width = 802;
}
);
note = X;
unicode = 0058;
},
{
color = 4;
glyphname = Y;
lastChange = "2018-03-15 17:04:03 +0000";
layers = (
{
anchors = (
{
name = bottom;
position = "{284, 0}";
},
{
name = top;
position = "{445, 670}";
},
{
name = topleft;
position = "{116, 700}";
}
);
layerId = "4C458150-A1D2-4ED7-A293-C8767657F79E";
paths = (
{
closed = 1;
nodes = (
"254 1 OFFCURVE",
"262 0 OFFCURVE",
"312 0 CURVE SMOOTH",
"328 0 OFFCURVE",
"333 11 OFFCURVE",
"334 28 CURVE SMOOTH",
"336 84 OFFCURVE",
"339 130 OFFCURVE",
"359 199 CURVE SMOOTH",
"435 462 OFFCURVE",
"645 698 OFFCURVE",
"853 698 CURVE SMOOTH",
"867 698 OFFCURVE",
"881 697 OFFCURVE",
"896 691 CURVE",
"901 697 OFFCURVE",
"904 706 OFFCURVE",
"903 716 CURVE SMOOTH",
"901 738 OFFCURVE",
"882 754 OFFCURVE",
"837 754 CURVE SMOOTH",
"654 754 OFFCURVE",
"421 485 OFFCURVE",
"357 310 CURVE",
"376 310 LINE",
"378 337 OFFCURVE",
"378 362 OFFCURVE",
"376 390 CURVE SMOOTH",
"364 561 OFFCURVE",
"292 709 OFFCURVE",
"150 709 CURVE SMOOTH",
"51 709 OFFCURVE",
"-8 638 OFFCURVE",
"-8 588 CURVE SMOOTH",
"-8 569 OFFCURVE",
"0 564 OFFCURVE",
"7 558 CURVE",
"40 610 OFFCURVE",
"78 647 OFFCURVE",
"141 647 CURVE SMOOTH",
"261 647 OFFCURVE",
"319 512 OFFCURVE",
"319 359 CURVE SMOOTH",
"319 219 OFFCURVE",
"271 63 OFFCURVE",
"218 -3 CURVE",
"218 -7 OFFCURVE",
"220 -10 OFFCURVE",
"223 -14 CURVE"
);
}
);
width = 685;
},
{
anchors = (
{
name = bottom;
position = "{306, 0}";
},
{
name = top;
position = "{446, 650}";
},
{
name = topleft;
position = "{156, 700}";
}
);
layerId = "73F3E0E0-4CEF-4E72-8F22-4B031C019FE7";
paths = (
{
closed = 1;
nodes = (
"263 0 OFFCURVE",
"313 0 OFFCURVE",
"342 0 CURVE SMOOTH",
"352 0 OFFCURVE",
"358 3 OFFCURVE",
"361 18 CURVE SMOOTH",
"364 34 OFFCURVE",
"368 93 OFFCURVE",
"378 147 CURVE SMOOTH",
"425 409 OFFCURVE",
"619 665 OFFCURVE",
"842 665 CURVE SMOOTH",
"856 665 OFFCURVE",
"882 664 OFFCURVE",
"897 658 CURVE",
"903 665 OFFCURVE",
"910 682 OFFCURVE",
"910 700 CURVE SMOOTH",
"910 728 OFFCURVE",
"895 754 OFFCURVE",
"836 754 CURVE SMOOTH",
"653 754 OFFCURVE",
"422 505 OFFCURVE",
"350 270 CURVE",
"370 270 LINE",
"375 314 OFFCURVE",
"378 355 OFFCURVE",
"378 395 CURVE SMOOTH",
"378 584 OFFCURVE",
"310 709 OFFCURVE",
"180 709 CURVE SMOOTH",
"61 709 OFFCURVE",
"-3 605 OFFCURVE",
"-3 556 CURVE SMOOTH",
"-3 540 OFFCURVE",
"4 523 OFFCURVE",
"20 518 CURVE",
"56 573 OFFCURVE",
"89 617 OFFCURVE",
"160 617 CURVE SMOOTH",
"270 617 OFFCURVE",
"313 513 OFFCURVE",
"313 370 CURVE SMOOTH",
"313 261 OFFCURVE",
"288 93 OFFCURVE",
"230 -2 CURVE",
"230 -6 OFFCURVE",
"232 -9 OFFCURVE",
"235 -13 CURVE"
);
}
);
width = 700;
}
);
note = Y;
unicode = 0059;
},
{
color = 4;
glyphname = Z;
lastChange = "2018-03-15 17:04:03 +0000";
layers = (
{
anchors = (
{
name = bottom;
position = "{310, 0}";
},
{
name = top;
position = "{433, 700}";
}
);
layerId = "4C458150-A1D2-4ED7-A293-C8767657F79E";
paths = (
{
closed = 1;
nodes = (
"955 -174 OFFCURVE",
"988 -123 OFFCURVE",
"988 -83 CURVE SMOOTH",
"988 -62 OFFCURVE",
"979 -44 OFFCURVE",
"966 -37 CURVE",
"952 -84 OFFCURVE",
"897 -101 OFFCURVE",
"806 -101 CURVE SMOOTH",
"709 -101 OFFCURVE",
"597 -75 OFFCURVE",
"483 -43 CURVE SMOOTH",
"358 -9 OFFCURVE",
"231 31 OFFCURVE",
"117 50 CURVE",
"123 35 LINE",
"159 58 OFFCURVE",
"183 82 OFFCURVE",
"203 105 CURVE SMOOTH",
"380 308 OFFCURVE",
"559 485 OFFCURVE",
"699 634 CURVE SMOOTH",
"715 651 OFFCURVE",
"729 657 OFFCURVE",
"742 659 CURVE",
"741 672 OFFCURVE",
"741 697 OFFCURVE",
"720 697 CURVE SMOOTH",
"665 697 OFFCURVE",
"542 699 OFFCURVE",
"432 699 CURVE SMOOTH",
"321 699 OFFCURVE",
"218 697 OFFCURVE",
"154 692 CURVE SMOOTH",
"142 691 OFFCURVE",
"133 684 OFFCURVE",
"131 669 CURVE SMOOTH",
"128 648 OFFCURVE",
"124 602 OFFCURVE",
"119 580 CURVE",
"123 576 OFFCURVE",
"129 571 OFFCURVE",
"137 571 CURVE",
"142 583 OFFCURVE",
"147 603 OFFCURVE",
"158 620 CURVE SMOOTH",
"185 661 OFFCURVE",
"360 661 OFFCURVE",
"550 656 CURVE SMOOTH",
"590 655 OFFCURVE",
"630 654 OFFCURVE",
"669 653 CURVE",
"658 663 LINE",
"520 525 OFFCURVE",
"187 142 OFFCURVE",
"108 77 CURVE SMOOTH",
"91 63 OFFCURVE",
"68 50 OFFCURVE",
"39 50 CURVE SMOOTH",
"32 50 OFFCURVE",
"31 42 OFFCURVE",
"31 33 CURVE SMOOTH",
"32 19 OFFCURVE",
"40 2 OFFCURVE",
"45 2 CURVE SMOOTH",
"202 2 OFFCURVE",
"340 -34 OFFCURVE",
"464 -74 CURVE SMOOTH",
"611 -120 OFFCURVE",
"738 -171 OFFCURVE",
"856 -173 CURVE SMOOTH"
);
}
);
width = 732;
},
{
anchors = (
{
name = bottom;
position = "{313, 0}";
},
{
name = top;
position = "{433, 680}";
}
);
layerId = "73F3E0E0-4CEF-4E72-8F22-4B031C019FE7";
paths = (
{
closed = 1;
nodes = (
"954 -213 OFFCURVE",
"990 -141 OFFCURVE",
"990 -88 CURVE SMOOTH",
"990 -64 OFFCURVE",
"982 -44 OFFCURVE",
"970 -37 CURVE",
"955 -84 OFFCURVE",
"900 -101 OFFCURVE",
"809 -101 CURVE SMOOTH",
"714 -101 OFFCURVE",
"600 -72 OFFCURVE",
"484 -38 CURVE SMOOTH",
"353 1 OFFCURVE",
"219 46 OFFCURVE",
"104 65 CURVE",
"103 47 LINE",
"153 59 OFFCURVE",
"182 74 OFFCURVE",
"224 120 CURVE SMOOTH",
"429 341 OFFCURVE",
"559 465 OFFCURVE",
"699 614 CURVE SMOOTH",
"715 631 OFFCURVE",
"729 637 OFFCURVE",
"742 639 CURVE",
"743 655 OFFCURVE",
"744 697 OFFCURVE",
"723 697 CURVE SMOOTH",
"667 697 OFFCURVE",
"560 699 OFFCURVE",
"452 699 CURVE SMOOTH",
"352 699 OFFCURVE",
"252 696 OFFCURVE",
"187 692 CURVE SMOOTH",
"170 691 OFFCURVE",
"161 677 OFFCURVE",
"161 659 CURVE SMOOTH",
"161 636 OFFCURVE",
"159 581 OFFCURVE",
"158 549 CURVE",
"162 545 OFFCURVE",
"177 537 OFFCURVE",
"185 537 CURVE",
"190 549 OFFCURVE",
"196 569 OFFCURVE",
"206 586 CURVE SMOOTH",
"231 629 OFFCURVE",
"370 645 OFFCURVE",
"551 645 CURVE SMOOTH",
"584 645 OFFCURVE",
"618 644 OFFCURVE",
"653 643 CURVE",
"631 663 LINE",
"492 515 OFFCURVE",
"175 161 OFFCURVE",
"95 97 CURVE SMOOTH",
"78 83 OFFCURVE",
"46 70 OFFCURVE",
"17 70 CURVE SMOOTH",
"11 70 OFFCURVE",
"7 59 OFFCURVE",
"7 46 CURVE SMOOTH",
"7 34 OFFCURVE",
"13 2 OFFCURVE",
"19 2 CURVE SMOOTH",
"170 2 OFFCURVE",
"307 -39 OFFCURVE",
"432 -85 CURVE SMOOTH",
"593 -145 OFFCURVE",
"733 -213 OFFCURVE",
"855 -213 CURVE SMOOTH"
);
}
);
width = 732;
}
);
note = Z;
unicode = 005A;
},
{
color = 4;
glyphname = a;
lastChange = "2018-03-15 17:05:27 +0000";
layers = (
{
anchors = (
{
name = bottom;
position = "{238, 0}";
},
{
name = ogonek;
position = "{458, 10}";
},
{
name = top;
position = "{310, 420}";
}
);
layerId = "4C458150-A1D2-4ED7-A293-C8767657F79E";
paths = (
{
closed = 1;
nodes = (
"501 -12 OFFCURVE",
"648 109 OFFCURVE",
"648 205 CURVE SMOOTH",
"648 221 OFFCURVE",
"644 231 OFFCURVE",
"635 231 CURVE",
"591 107 OFFCURVE",
"474 28 OFFCURVE",
"413 28 CURVE SMOOTH",
"378 28 OFFCURVE",
"365 54 OFFCURVE",
"365 109 CURVE SMOOTH",
"365 169 OFFCURVE",
"381 235 OFFCURVE",
"419 377 CURVE SMOOTH",
"424 395 OFFCURVE",
"432 414 OFFCURVE",
"448 427 CURVE",
"445 429 LINE",
"396 424 LINE SMOOTH",
"383 423 OFFCURVE",
"381 419 OFFCURVE",
"367 382 CURVE SMOOTH",
"355 351 OFFCURVE",
"317 167 OFFCURVE",
"309 137 CURVE SMOOTH",
"292 75 OFFCURVE",
"223 39 OFFCURVE",
"192 39 CURVE SMOOTH",
"163 39 OFFCURVE",
"136 72 OFFCURVE",
"133 104 CURVE",
"146 161 OFFCURVE",
"137 122 OFFCURVE",
"173 282 CURVE SMOOTH",
"180 314 OFFCURVE",
"223 380 OFFCURVE",
"290 380 CURVE SMOOTH",
"332 380 OFFCURVE",
"361 355 OFFCURVE",
"377 328 CURVE",
"390 364 LINE",
"376 384 OFFCURVE",
"342 418 OFFCURVE",
"288 418 CURVE SMOOTH",
"213 418 OFFCURVE",
"139 351 OFFCURVE",
"127 303 CURVE SMOOTH",
"108 225 OFFCURVE",
"81 114 OFFCURVE",
"78 101 CURVE",
"80 55 OFFCURVE",
"133 -8 OFFCURVE",
"188 -8 CURVE SMOOTH",
"245 -8 OFFCURVE",
"342 61 OFFCURVE",
"350 158 CURVE",
"327 157 LINE",
"322 132 OFFCURVE",
"318 116 OFFCURVE",
"318 93 CURVE SMOOTH",
"318 38 OFFCURVE",
"342 -12 OFFCURVE",
"404 -12 CURVE SMOOTH"
);
}
);
width = 520;
},
{
anchors = (
{
name = bottom;
position = "{238, 0}";
},
{
name = ogonek;
position = "{458, 10}";
},
{
name = top;
position = "{310, 420}";
}
);
layerId = "73F3E0E0-4CEF-4E72-8F22-4B031C019FE7";
paths = (
{
closed = 1;
nodes = (
"509 -12 OFFCURVE",
"649 111 OFFCURVE",
"649 211 CURVE SMOOTH",
"649 232 OFFCURVE",
"643 241 OFFCURVE",
"631 241 CURVE",
"597 116 OFFCURVE",
"495 36 OFFCURVE",
"437 36 CURVE SMOOTH",
"395 36 OFFCURVE",
"381 79 OFFCURVE",
"381 110 CURVE SMOOTH",
"381 158 OFFCURVE",
"415 304 OFFCURVE",
"437 377 CURVE SMOOTH",
"442 394 OFFCURVE",
"448 412 OFFCURVE",
"466 427 CURVE",
"463 429 LINE",
"376 424 LINE SMOOTH",
"363 423 OFFCURVE",
"361 419 OFFCURVE",
"347 382 CURVE SMOOTH",
"335 351 OFFCURVE",
"306 189 OFFCURVE",
"298 157 CURVE SMOOTH",
"283 96 OFFCURVE",
"229 52 OFFCURVE",
"202 52 CURVE SMOOTH",
"180 52 OFFCURVE",
"154 84 OFFCURVE",
"151 118 CURVE",
"163 177 OFFCURVE",
"167 198 OFFCURVE",
"182 269 CURVE SMOOTH",
"189 303 OFFCURVE",
"212 365 OFFCURVE",
"284 365 CURVE SMOOTH",
"320 365 OFFCURVE",
"359 350 OFFCURVE",
"374 323 CURVE",
"388 364 LINE",
"375 383 OFFCURVE",
"335 418 OFFCURVE",
"282 418 CURVE SMOOTH",
"200 418 OFFCURVE",
"103 332 OFFCURVE",
"96 293 CURVE SMOOTH",
"81 211 OFFCURVE",
"75 182 OFFCURVE",
"55 95 CURVE",
"58 47 OFFCURVE",
"117 -8 OFFCURVE",
"170 -8 CURVE SMOOTH",
"230 -8 OFFCURVE",
"335 63 OFFCURVE",
"342 158 CURVE",
"305 157 LINE",
"300 134 OFFCURVE",
"297 123 OFFCURVE",
"297 107 CURVE SMOOTH",
"297 46 OFFCURVE",
"342 -12 OFFCURVE",
"410 -12 CURVE SMOOTH"
);
}
);
width = 520;
}
);
note = a;
unicode = 0061;
},
{
color = 4;
glyphname = b;
lastChange = "2018-03-15 17:05:27 +0000";
layers = (
{
layerId = "4C458150-A1D2-4ED7-A293-C8767657F79E";
paths = (
{
closed = 1;
nodes = (
"282 -12 OFFCURVE",
"361 83 OFFCURVE",
"361 229 CURVE SMOOTH",
"361 275 OFFCURVE",
"353 296 OFFCURVE",
"332 347 CURVE",
"321 336 LINE",
"345 284 OFFCURVE",
"406 252 OFFCURVE",
"477 252 CURVE SMOOTH",
"560 252 OFFCURVE",
"641 295 OFFCURVE",
"641 336 CURVE SMOOTH",
"641 342 OFFCURVE",
"639 345 OFFCURVE",
"636 348 CURVE",
"598 310 OFFCURVE",
"553 292 OFFCURVE",
"493 292 CURVE SMOOTH",
"386 292 OFFCURVE",
"355 349 OFFCURVE",
"320 409 CURVE",
"308 406 OFFCURVE",
"280 380 OFFCURVE",
"280 366 CURVE",
"298 339 OFFCURVE",
"316 281 OFFCURVE",
"316 225 CURVE SMOOTH",
"316 117 OFFCURVE",
"250 36 OFFCURVE",
"203 36 CURVE SMOOTH",
"173 36 OFFCURVE",
"138 69 OFFCURVE",
"138 104 CURVE",
"153 212 OFFCURVE",
"211 469 OFFCURVE",
"227 534 CURVE SMOOTH",
"308 866 OFFCURVE",
"446 1004 OFFCURVE",
"605 1004 CURVE SMOOTH",
"635 1004 OFFCURVE",
"675 999 OFFCURVE",
"717 981 CURVE",
"717 990 LINE",
"706 1030 OFFCURVE",
"658 1068 OFFCURVE",
"573 1068 CURVE SMOOTH",
"352 1068 OFFCURVE",
"247 807 OFFCURVE",
"180 546 CURVE SMOOTH",
"132 360 OFFCURVE",
"90 132 OFFCURVE",
"85 103 CURVE",
"85 52 OFFCURVE",
"130 -12 OFFCURVE",
"199 -12 CURVE SMOOTH"
);
}
);
width = 489;
},
{
layerId = "73F3E0E0-4CEF-4E72-8F22-4B031C019FE7";
paths = (
{
closed = 1;
nodes = (
"292 -12 OFFCURVE",
"379 88 OFFCURVE",
"379 209 CURVE SMOOTH",
"379 259 OFFCURVE",
"364 296 OFFCURVE",
"343 347 CURVE",
"310 326 LINE",
"333 276 OFFCURVE",
"413 252 OFFCURVE",
"479 252 CURVE SMOOTH",
"568 252 OFFCURVE",
"647 296 OFFCURVE",
"647 336 CURVE SMOOTH",
"647 342 OFFCURVE",
"645 345 OFFCURVE",
"642 348 CURVE",
"606 311 OFFCURVE",
"558 302 OFFCURVE",
"510 302 CURVE SMOOTH",
"389 302 OFFCURVE",
"350 359 OFFCURVE",
"313 419 CURVE",
"301 416 OFFCURVE",
"259 370 OFFCURVE",
"260 356 CURVE",
"281 322 OFFCURVE",
"295 271 OFFCURVE",
"295 220 CURVE SMOOTH",
"295 146 OFFCURVE",
"266 46 OFFCURVE",
"201 46 CURVE SMOOTH",
"163 46 OFFCURVE",
"151 79 OFFCURVE",
"151 114 CURVE",
"174 250 OFFCURVE",
"226 505 OFFCURVE",
"244 585 CURVE SMOOTH",
"319 919 OFFCURVE",
"419 984 OFFCURVE",
"584 984 CURVE SMOOTH",
"625 984 OFFCURVE",
"659 980 OFFCURVE",
"704 961 CURVE",
"705 970 LINE",
"687 1026 OFFCURVE",
"654 1068 OFFCURVE",
"564 1068 CURVE SMOOTH",
"389 1068 OFFCURVE",
"233 910 OFFCURVE",
"147 546 CURVE SMOOTH",
"120 430 OFFCURVE",
"73 201 OFFCURVE",
"54 93 CURVE",
"54 43 OFFCURVE",
"118 -12 OFFCURVE",
"192 -12 CURVE SMOOTH"
);
}
);
width = 495;
}
);
note = b;
unicode = 0062;
},
{
color = 4;
glyphname = c;
lastChange = "2018-03-15 17:05:27 +0000";
layers = (
{
anchors = (
{
name = bottom;
position = "{168, 0}";
},
{
name = top;
position = "{253, 420}";
}
);
layerId = "4C458150-A1D2-4ED7-A293-C8767657F79E";
paths = (
{
closed = 1;
nodes = (
"517 125 OFFCURVE",
"511 221 CURVE SMOOTH",
"510 233 OFFCURVE",
"507 242 OFFCURVE",
"495 242 CURVE",
"428 75 OFFCURVE",
"285 40 OFFCURVE",
"229 40 CURVE SMOOTH",
"155 40 OFFCURVE",
"126 100 OFFCURVE",
"126 121 CURVE",
"148 226 OFFCURVE",
"150 230 OFFCURVE",
"167 321 CURVE SMOOTH",
"172 349 OFFCURVE",
"220 372 OFFCURVE",
"248 372 CURVE SMOOTH",
"283 372 OFFCURVE",
"317 337 OFFCURVE",
"320 292 CURVE",
"325 291 LINE",
"345 306 OFFCURVE",
"354 326 OFFCURVE",
"352 345 CURVE SMOOTH",
"348 382 OFFCURVE",
"293 415 OFFCURVE",
"251 415 CURVE SMOOTH",
"207 415 OFFCURVE",
"133 380 OFFCURVE",
"125 338 CURVE SMOOTH",
"111 267 OFFCURVE",
"101 219 OFFCURVE",
"73 114 CURVE",
"73 102 OFFCURVE",
"106 -5 OFFCURVE",
"221 -5 CURVE SMOOTH",
"347 -5 OFFCURVE"
);
}
);
width = 382;
},
{
anchors = (
{
name = bottom;
position = "{167, 0}";
},
{
name = top;
position = "{252, 420}";
}
);
layerId = "73F3E0E0-4CEF-4E72-8F22-4B031C019FE7";
paths = (
{
closed = 1;
nodes = (
"521 103 OFFCURVE",
"521 204 CURVE SMOOTH",
"521 228 OFFCURVE",
"511 232 OFFCURVE",
"501 232 CURVE",
"437 68 OFFCURVE",
"308 50 OFFCURVE",
"253 50 CURVE SMOOTH",
"176 50 OFFCURVE",
"160 85 OFFCURVE",
"155 121 CURVE",
"177 225 OFFCURVE",
"184 263 OFFCURVE",
"193 312 CURVE SMOOTH",
"198 340 OFFCURVE",
"238 382 OFFCURVE",
"268 382 CURVE SMOOTH",
"300 382 OFFCURVE",
"327 333 OFFCURVE",
"330 287 CURVE",
"334 286 LINE",
"381 303 OFFCURVE",
"392 329 OFFCURVE",
"392 350 CURVE SMOOTH",
"392 404 OFFCURVE",
"320 425 OFFCURVE",
"279 425 CURVE SMOOTH",
"211 425 OFFCURVE",
"118 365 OFFCURVE",
"111 327 CURVE SMOOTH",
"99 261 OFFCURVE",
"90 218 OFFCURVE",
"62 112 CURVE",
"62 82 OFFCURVE",
"133 -5 OFFCURVE",
"229 -5 CURVE SMOOTH",
"335 -5 OFFCURVE"
);
}
);
width = 392;
}
);
note = c;
unicode = 0063;
},
{
color = 4;
glyphname = d;
lastChange = "2018-03-15 17:07:09 +0000";
layers = (
{
anchors = (
{
name = bottom;
position = "{167, 0}";
},
{
name = center;
position = "{208, 235}";
},
{
name = top;
position = "{245, 420}";
},
{
name = topright;
position = "{432, 420}";
}
);
layerId = "4C458150-A1D2-4ED7-A293-C8767657F79E";
paths = (
{
closed = 1;
nodes = (
"238 -8 OFFCURVE",
"307 43 OFFCURVE",
"327 100 CURVE",
"301 97 LINE",
"301 33 OFFCURVE",
"331 -5 OFFCURVE",
"385 -5 CURVE SMOOTH",
"481 -5 OFFCURVE",
"599 116 OFFCURVE",
"599 190 CURVE SMOOTH",
"599 207 OFFCURVE",
"593 214 OFFCURVE",
"585 214 CURVE",
"530 99 OFFCURVE",
"446 42 OFFCURVE",
"392 42 CURVE SMOOTH",
"360 42 OFFCURVE",
"351 63 OFFCURVE",
"351 94 CURVE SMOOTH",
"351 174 OFFCURVE",
"412 427 OFFCURVE",
"442 534 CURVE SMOOTH",
"534 864 OFFCURVE",
"658 1003 OFFCURVE",
"816 1003 CURVE SMOOTH",
"851 1003 OFFCURVE",
"889 996 OFFCURVE",
"932 975 CURVE",
"932 984 LINE",
"920 1027 OFFCURVE",
"869 1058 OFFCURVE",
"790 1058 CURVE SMOOTH",
"611 1058 OFFCURVE",
"497 901 OFFCURVE",
"395 546 CURVE SMOOTH",
"340 355 OFFCURVE",
"316 200 OFFCURVE",
"308 163 CURVE SMOOTH",
"290 78 OFFCURVE",
"229 33 OFFCURVE",
"192 33 CURVE SMOOTH",
"157 33 OFFCURVE",
"123 75 OFFCURVE",
"123 104 CURVE",
"137 156 OFFCURVE",
"155 265 OFFCURVE",
"167 300 CURVE SMOOTH",
"185 353 OFFCURVE",
"237 378 OFFCURVE",
"279 378 CURVE SMOOTH",
"327 378 OFFCURVE",
"365 344 OFFCURVE",
"368 337 CURVE",
"385 377 LINE",
"384 383 OFFCURVE",
"333 421 OFFCURVE",
"278 421 CURVE SMOOTH",
"208 421 OFFCURVE",
"131 361 OFFCURVE",
"122 316 CURVE SMOOTH",
"105 233 OFFCURVE",
"91 171 OFFCURVE",
"70 101 CURVE",
"70 53 OFFCURVE",
"128 -8 OFFCURVE",
"185 -8 CURVE SMOOTH"
);
}
);
width = 475;
},
{
anchors = (
{
name = bottom;
position = "{217, 0}";
},
{
name = center;
position = "{245, 235}";
},
{
name = top;
position = "{227, 420}";
},
{
name = topright;
position = "{402, 420}";
}
);
layerId = "73F3E0E0-4CEF-4E72-8F22-4B031C019FE7";
paths = (
{
closed = 1;
nodes = (
"236 -8 OFFCURVE",
"323 86 OFFCURVE",
"340 145 CURVE",
"304 146 LINE",
"300 59 OFFCURVE",
"339 -5 OFFCURVE",
"408 -5 CURVE SMOOTH",
"542 -5 OFFCURVE",
"648 132 OFFCURVE",
"648 194 CURVE SMOOTH",
"648 207 OFFCURVE",
"642 212 OFFCURVE",
"635 214 CURVE",
"582 120 OFFCURVE",
"503 52 OFFCURVE",
"442 52 CURVE SMOOTH",
"413 52 OFFCURVE",
"397 72 OFFCURVE",
"397 123 CURVE SMOOTH",
"397 200 OFFCURVE",
"459 496 OFFCURVE",
"506 671 CURVE SMOOTH",
"578 940 OFFCURVE",
"681 973 OFFCURVE",
"818 973 CURVE SMOOTH",
"865 973 OFFCURVE",
"911 967 OFFCURVE",
"957 945 CURVE",
"957 954 LINE",
"949 1020 OFFCURVE",
"895 1058 OFFCURVE",
"822 1058 CURVE SMOOTH",
"636 1058 OFFCURVE",
"470 915 OFFCURVE",
"387 556 CURVE SMOOTH",
"354 414 OFFCURVE",
"339 315 OFFCURVE",
"322 235 CURVE SMOOTH",
"297 119 OFFCURVE",
"238 52 OFFCURVE",
"187 52 CURVE SMOOTH",
"165 52 OFFCURVE",
"145 80 OFFCURVE",
"145 114 CURVE",
"157 162 OFFCURVE",
"166 227 OFFCURVE",
"181 287 CURVE SMOOTH",
"193 334 OFFCURVE",
"231 368 OFFCURVE",
"272 368 CURVE SMOOTH",
"303 368 OFFCURVE",
"354 347 OFFCURVE",
"366 327 CURVE",
"383 367 LINE",
"371 387 OFFCURVE",
"316 421 OFFCURVE",
"273 421 CURVE SMOOTH",
"182 421 OFFCURVE",
"103 339 OFFCURVE",
"95 300 CURVE SMOOTH",
"80 227 OFFCURVE",
"73 160 OFFCURVE",
"56 101 CURVE",
"56 53 OFFCURVE",
"103 -8 OFFCURVE",
"162 -8 CURVE SMOOTH"
);
}
);
width = 525;
}
);
note = d;
unicode = 0064;
},
{
color = 4;
glyphname = e;
lastChange = "2018-03-15 17:08:57 +0000";
layers = (
{
anchors = (
{
name = bottom;
position = "{194, 0}";
},
{
name = ogonek;
position = "{280, 10}";
},
{
name = top;
position = "{258, 420}";
}
);
layerId = "4C458150-A1D2-4ED7-A293-C8767657F79E";
paths = (
{
closed = 1;
nodes = (
"316 -5 OFFCURVE",
"509 135 OFFCURVE",
"509 219 CURVE SMOOTH",
"509 230 OFFCURVE",
"504 237 OFFCURVE",
"491 239 CURVE",
"449 154 OFFCURVE",
"329 38 OFFCURVE",
"227 38 CURVE SMOOTH",
"146 38 OFFCURVE",
"123 112 OFFCURVE",
"123 123 CURVE",
"138 194 OFFCURVE",
"150 260 OFFCURVE",
"162 316 CURVE SMOOTH",
"168 344 OFFCURVE",
"223 379 OFFCURVE",
"246 379 CURVE SMOOTH",
"266 379 OFFCURVE",
"299 354 OFFCURVE",
"299 318 CURVE SMOOTH",
"299 275 OFFCURVE",
"251 225 OFFCURVE",
"128 225 CURVE",
"120 190 LINE",
"270 184 OFFCURVE",
"345 258 OFFCURVE",
"345 330 CURVE SMOOTH",
"345 397 OFFCURVE",
"279 420 OFFCURVE",
"254 420 CURVE SMOOTH",
"216 420 OFFCURVE",
"128 371 OFFCURVE",
"119 328 CURVE SMOOTH",
"105 260 OFFCURVE",
"96 200 OFFCURVE",
"73 114 CURVE",
"73 93 OFFCURVE",
"119 -5 OFFCURVE",
"219 -5 CURVE SMOOTH"
);
}
);
width = 378;
},
{
anchors = (
{
name = bottom;
position = "{214, 0}";
},
{
name = ogonek;
position = "{280, 10}";
},
{
name = top;
position = "{268, 420}";
}
);
layerId = "73F3E0E0-4CEF-4E72-8F22-4B031C019FE7";
paths = (
{
closed = 1;
nodes = (
"355 -5 OFFCURVE",
"543 110 OFFCURVE",
"547 203 CURVE SMOOTH",
"548 217 OFFCURVE",
"542 224 OFFCURVE",
"530 229 CURVE",
"476 126 OFFCURVE",
"353 52 OFFCURVE",
"252 52 CURVE SMOOTH",
"176 52 OFFCURVE",
"148 93 OFFCURVE",
"145 128 CURVE",
"153 165 OFFCURVE",
"174 291 OFFCURVE",
"178 306 CURVE SMOOTH",
"185 335 OFFCURVE",
"220 378 OFFCURVE",
"256 378 CURVE SMOOTH",
"282 378 OFFCURVE",
"305 357 OFFCURVE",
"305 323 CURVE SMOOTH",
"305 263 OFFCURVE",
"232 215 OFFCURVE",
"147 215 CURVE",
"137 170 LINE",
"247 166 OFFCURVE",
"392 244 OFFCURVE",
"392 324 CURVE SMOOTH",
"392 386 OFFCURVE",
"305 420 OFFCURVE",
"265 420 CURVE SMOOTH",
"212 420 OFFCURVE",
"103 361 OFFCURVE",
"94 318 CURVE SMOOTH",
"76 232 OFFCURVE",
"67 164 OFFCURVE",
"52 107 CURVE",
"52 88 OFFCURVE",
"101 -5 OFFCURVE",
"221 -5 CURVE SMOOTH"
);
}
);
width = 418;
}
);
note = e;
unicode = 0065;
},
{
color = 4;
glyphname = f;
lastChange = "2018-03-15 17:08:57 +0000";
layers = (
{
layerId = "4C458150-A1D2-4ED7-A293-C8767657F79E";
paths = (
{
closed = 1;
nodes = (
"6 -577 OFFCURVE",
"86 -341 OFFCURVE",
"164 -30 CURVE SMOOTH",
"195 95 OFFCURVE",
"206 141 OFFCURVE",
"255 360 CURVE SMOOTH",
"360 828 OFFCURVE",
"398 936 OFFCURVE",
"513 936 CURVE SMOOTH",
"551 936 OFFCURVE",
"591 924 OFFCURVE",
"618 901 CURVE",
"631 908 OFFCURVE",
"640 921 OFFCURVE",
"639 939 CURVE SMOOTH",
"637 969 OFFCURVE",
"607 990 OFFCURVE",
"558 990 CURVE SMOOTH",
"519 990 OFFCURVE",
"481 977 OFFCURVE",
"441 951 CURVE SMOOTH",
"324 874 OFFCURVE",
"292 747 OFFCURVE",
"205 365 CURVE SMOOTH",
"180 255 OFFCURVE",
"122 1 OFFCURVE",
"98 -98 CURVE SMOOTH",
"23 -410 OFFCURVE",
"-39 -517 OFFCURVE",
"-143 -517 CURVE SMOOTH",
"-234 -517 OFFCURVE",
"-267 -435 OFFCURVE",
"-290 -286 CURVE",
"-309 -320 OFFCURVE",
"-333 -340 OFFCURVE",
"-331 -379 CURVE SMOOTH",
"-329 -418 OFFCURVE",
"-294 -577 OFFCURVE",
"-159 -577 CURVE SMOOTH"
);
},
{
closed = 1;
nodes = (
"40 336 OFFCURVE",
"62 343 OFFCURVE",
"222 347 CURVE SMOOTH",
"292 349 OFFCURVE",
"368 351 OFFCURVE",
"432 352 CURVE SMOOTH",
"445 352 OFFCURVE",
"466 365 OFFCURVE",
"466 381 CURVE SMOOTH",
"466 384 OFFCURVE",
"466 387 OFFCURVE",
"464 390 CURVE",
"449 390 OFFCURVE",
"296 388 OFFCURVE",
"237 387 CURVE SMOOTH",
"220 387 OFFCURVE",
"103 385 OFFCURVE",
"63 376 CURVE SMOOTH",
"31 369 OFFCURVE",
"16 348 OFFCURVE",
"1 270 CURVE",
"14 266 LINE"
);
}
);
width = 388;
},
{
layerId = "73F3E0E0-4CEF-4E72-8F22-4B031C019FE7";
paths = (
{
closed = 1;
nodes = (
"-18 -577 OFFCURVE",
"98 -388 OFFCURVE",
"184 -30 CURVE SMOOTH",
"205 57 OFFCURVE",
"254 283 OFFCURVE",
"275 380 CURVE SMOOTH",
"383 876 OFFCURVE",
"388 916 OFFCURVE",
"473 916 CURVE SMOOTH",
"529 916 OFFCURVE",
"565 899 OFFCURVE",
"603 876 CURVE",
"616 884 OFFCURVE",
"633 909 OFFCURVE",
"633 933 CURVE SMOOTH",
"633 970 OFFCURVE",
"590 990 OFFCURVE",
"541 990 CURVE SMOOTH",
"497 990 OFFCURVE",
"457 974 OFFCURVE",
"420 951 CURVE SMOOTH",
"321 890 OFFCURVE",
"263 792 OFFCURVE",
"175 385 CURVE SMOOTH",
"131 180 OFFCURVE",
"118 77 OFFCURVE",
"78 -98 CURVE SMOOTH",
"6 -416 OFFCURVE",
"-52 -517 OFFCURVE",
"-136 -517 CURVE SMOOTH",
"-215 -517 OFFCURVE",
"-235 -428 OFFCURVE",
"-247 -296 CURVE",
"-272 -334 OFFCURVE",
"-328 -340 OFFCURVE",
"-328 -413 CURVE SMOOTH",
"-328 -499 OFFCURVE",
"-249 -577 OFFCURVE",
"-159 -577 CURVE SMOOTH"
);
},
{
closed = 1;
nodes = (
"52 353 OFFCURVE",
"53 354 OFFCURVE",
"220 359 CURVE SMOOTH",
"315 362 OFFCURVE",
"371 364 OFFCURVE",
"421 366 CURVE SMOOTH",
"437 367 OFFCURVE",
"455 384 OFFCURVE",
"455 399 CURVE SMOOTH",
"455 402 OFFCURVE",
"455 406 OFFCURVE",
"454 410 CURVE",
"376 410 OFFCURVE",
"292 409 OFFCURVE",
"237 409 CURVE SMOOTH",
"186 409 OFFCURVE",
"95 406 OFFCURVE",
"63 399 CURVE SMOOTH",
"35 393 OFFCURVE",
"17 378 OFFCURVE",
"1 293 CURVE",
"14 289 LINE"
);
}
);
width = 360;
}
);
note = f;
unicode = 0066;
},
{
color = 4;
glyphname = g;
lastChange = "2018-03-15 19:04:40 +0000";
layers = (
{
anchors = (
{
name = bottom;
position = "{-141, -594}";
},
{
name = top;
position = "{274, 420}";
}
);
layerId = "4C458150-A1D2-4ED7-A293-C8767657F79E";
paths = (
{
closed = 1;
nodes = (
"141 -605 OFFCURVE",
"241 -386 OFFCURVE",
"336 1 CURVE SMOOTH",
"363 110 OFFCURVE",
"401 281 OFFCURVE",
"429 390 CURVE SMOOTH",
"431 396 OFFCURVE",
"433 403 OFFCURVE",
"433 410 CURVE SMOOTH",
"433 429 OFFCURVE",
"418 429 OFFCURVE",
"392 455 CURVE",
"388 454 LINE",
"380 404 OFFCURVE",
"377 374 OFFCURVE",
"364 318 CURVE SMOOTH",
"322 137 LINE SMOOTH",
"307 72 OFFCURVE",
"214 38 OFFCURVE",
"184 38 CURVE SMOOTH",
"153 38 OFFCURVE",
"126 73 OFFCURVE",
"126 104 CURVE",
"137 161 OFFCURVE",
"149 236 OFFCURVE",
"164 306 CURVE SMOOTH",
"174 351 OFFCURVE",
"239 383 OFFCURVE",
"269 383 CURVE SMOOTH",
"301 383 OFFCURVE",
"338 347 OFFCURVE",
"364 295 CURVE",
"382 337 LINE",
"356 388 OFFCURVE",
"315 428 OFFCURVE",
"273 428 CURVE SMOOTH",
"222 428 OFFCURVE",
"130 371 OFFCURVE",
"120 327 CURVE SMOOTH",
"103 253 OFFCURVE",
"86 169 OFFCURVE",
"70 101 CURVE",
"70 53 OFFCURVE",
"121 -8 OFFCURVE",
"175 -8 CURVE SMOOTH",
"211 -8 OFFCURVE",
"292 20 OFFCURVE",
"330 83 CURVE",
"312 90 LINE",
"305 62 OFFCURVE",
"306 63 OFFCURVE",
"290 0 CURVE SMOOTH",
"203 -341 OFFCURVE",
"115 -547 OFFCURVE",
"-108 -547 CURVE SMOOTH",
"-210 -547 OFFCURVE",
"-297 -504 OFFCURVE",
"-340 -386 CURVE",
"-350 -403 OFFCURVE",
"-352 -408 OFFCURVE",
"-352 -422 CURVE SMOOTH",
"-352 -503 OFFCURVE",
"-281 -605 OFFCURVE",
"-110 -605 CURVE SMOOTH"
);
}
);
width = 454;
},
{
anchors = (
{
name = bottom;
position = "{-174, -577}";
},
{
name = top;
position = "{267, 420}";
}
);
layerId = "73F3E0E0-4CEF-4E72-8F22-4B031C019FE7";
paths = (
{
closed = 1;
nodes = (
"69 -585 OFFCURVE",
"246 -454 OFFCURVE",
"341 -24 CURVE SMOOTH",
"348 9 OFFCURVE",
"434 395 OFFCURVE",
"434 411 CURVE SMOOTH",
"434 414 OFFCURVE",
"431 420 OFFCURVE",
"424 424 CURVE SMOOTH",
"410 432 OFFCURVE",
"364 438 OFFCURVE",
"354 451 CURVE",
"350 450 LINE",
"341 391 OFFCURVE",
"337 366 OFFCURVE",
"328 318 CURVE SMOOTH",
"297 148 LINE SMOOTH",
"285 83 OFFCURVE",
"231 48 OFFCURVE",
"198 48 CURVE SMOOTH",
"167 48 OFFCURVE",
"140 78 OFFCURVE",
"140 112 CURVE",
"149 158 OFFCURVE",
"166 261 OFFCURVE",
"172 286 CURVE SMOOTH",
"185 338 OFFCURVE",
"229 373 OFFCURVE",
"272 373 CURVE SMOOTH",
"291 373 OFFCURVE",
"332 366 OFFCURVE",
"359 310 CURVE",
"377 352 LINE",
"355 398 OFFCURVE",
"299 428 OFFCURVE",
"261 428 CURVE SMOOTH",
"202 428 OFFCURVE",
"97 355 OFFCURVE",
"88 309 CURVE SMOOTH",
"73 228 OFFCURVE",
"66 191 OFFCURVE",
"45 99 CURVE",
"45 51 OFFCURVE",
"125 -8 OFFCURVE",
"178 -8 CURVE SMOOTH",
"219 -8 OFFCURVE",
"287 26 OFFCURVE",
"323 86 CURVE",
"285 93 LINE",
"283 81 OFFCURVE",
"266 -11 OFFCURVE",
"263 -29 CURVE SMOOTH",
"242 -146 OFFCURVE",
"181 -477 OFFCURVE",
"-104 -477 CURVE SMOOTH",
"-196 -477 OFFCURVE",
"-274 -442 OFFCURVE",
"-313 -356 CURVE",
"-324 -374 OFFCURVE",
"-331 -409 OFFCURVE",
"-331 -436 CURVE SMOOTH",
"-331 -503 OFFCURVE",
"-289 -585 OFFCURVE",
"-131 -585 CURVE SMOOTH"
);
}
);
width = 470;
}
);
note = g;
unicode = 0067;
},
{
color = 4;
glyphname = h;
lastChange = "2018-03-15 17:11:24 +0000";
layers = (
{
anchors = (
{
name = bottom;
position = "{186, 0}";
},
{
name = center;
position = "{228, 210}";
},
{
name = top;
position = "{372, 420}";
}
);
layerId = "4C458150-A1D2-4ED7-A293-C8767657F79E";
paths = (
{
closed = 1;
nodes = (
"443 -12 OFFCURVE",
"548 79 OFFCURVE",
"607 187 CURVE SMOOTH",
"613 198 OFFCURVE",
"616 211 OFFCURVE",
"615 218 CURVE SMOOTH",
"613 232 OFFCURVE",
"608 237 OFFCURVE",
"599 240 CURVE",
"573 187 OFFCURVE",
"477 30 OFFCURVE",
"368 30 CURVE SMOOTH",
"328 30 OFFCURVE",
"322 50 OFFCURVE",
"322 83 CURVE SMOOTH",
"322 125 OFFCURVE",
"371 314 OFFCURVE",
"393 379 CURVE",
"393 389 OFFCURVE",
"364 416 OFFCURVE",
"354 416 CURVE SMOOTH",
"305 416 OFFCURVE",
"186 302 OFFCURVE",
"141 229 CURVE",
"147 217 LINE",
"162 280 OFFCURVE",
"175 341 OFFCURVE",
"194 420 CURVE SMOOTH",
"283 789 OFFCURVE",
"404 1028 OFFCURVE",
"598 1028 CURVE SMOOTH",
"683 1028 OFFCURVE",
"750 988 OFFCURVE",
"780 895 CURVE",
"787 907 LINE",
"787 1022 OFFCURVE",
"715 1088 OFFCURVE",
"601 1088 CURVE SMOOTH",
"390 1088 OFFCURVE",
"242 816 OFFCURVE",
"150 421 CURVE SMOOTH",
"132 344 OFFCURVE",
"87 154 OFFCURVE",
"63 52 CURVE SMOOTH",
"59 35 OFFCURVE",
"57 22 OFFCURVE",
"57 14 CURVE SMOOTH",
"57 1 OFFCURVE",
"87 -7 OFFCURVE",
"99 -7 CURVE SMOOTH",
"107 -7 OFFCURVE",
"109 2 OFFCURVE",
"113 24 CURVE SMOOTH",
"118 49 OFFCURVE",
"126 109 OFFCURVE",
"138 155 CURVE",
"179 242 OFFCURVE",
"297 353 OFFCURVE",
"317 353 CURVE SMOOTH",
"321 353 OFFCURVE",
"327 348 OFFCURVE",
"329 343 CURVE",
"315 287 OFFCURVE",
"272 145 OFFCURVE",
"272 72 CURVE SMOOTH",
"272 17 OFFCURVE",
"303 -12 OFFCURVE",
"349 -12 CURVE SMOOTH"
);
}
);
width = 484;
},
{
anchors = (
{
name = bottom;
position = "{222, 0}";
},
{
name = center;
position = "{288, 210}";
},
{
name = top;
position = "{409, 420}";
}
);
layerId = "73F3E0E0-4CEF-4E72-8F22-4B031C019FE7";
paths = (
{
closed = 1;
nodes = (
"509 -12 OFFCURVE",
"633 112 OFFCURVE",
"651 185 CURVE SMOOTH",
"653 193 OFFCURVE",
"654 202 OFFCURVE",
"654 208 CURVE SMOOTH",
"654 224 OFFCURVE",
"646 228 OFFCURVE",
"639 231 CURVE",
"611 151 OFFCURVE",
"513 40 OFFCURVE",
"427 40 CURVE SMOOTH",
"392 40 OFFCURVE",
"377 58 OFFCURVE",
"377 93 CURVE SMOOTH",
"377 151 OFFCURVE",
"418 316 OFFCURVE",
"436 380 CURVE",
"436 389 OFFCURVE",
"383 417 OFFCURVE",
"364 417 CURVE SMOOTH",
"323 417 OFFCURVE",
"200 290 OFFCURVE",
"155 217 CURVE",
"172 205 LINE",
"206 360 OFFCURVE",
"189 274 OFFCURVE",
"222 440 CURVE SMOOTH",
"297 818 OFFCURVE",
"419 988 OFFCURVE",
"609 988 CURVE SMOOTH",
"700 988 OFFCURVE",
"754 949 OFFCURVE",
"785 855 CURVE",
"792 870 LINE",
"792 943 OFFCURVE",
"754 1088 OFFCURVE",
"592 1088 CURVE SMOOTH",
"415 1088 OFFCURVE",
"227 914 OFFCURVE",
"137 441 CURVE SMOOTH",
"94 218 OFFCURVE",
"134 401 OFFCURVE",
"58 53 CURVE SMOOTH",
"55 39 OFFCURVE",
"53 28 OFFCURVE",
"51 15 CURVE SMOOTH",
"49 1 OFFCURVE",
"93 -4 OFFCURVE",
"119 -4 CURVE SMOOTH",
"135 -4 OFFCURVE",
"138 -2 OFFCURVE",
"144 29 CURVE SMOOTH",
"150 58 OFFCURVE",
"159 115 OFFCURVE",
"168 161 CURVE",
"208 248 OFFCURVE",
"304 329 OFFCURVE",
"324 329 CURVE SMOOTH",
"328 329 OFFCURVE",
"333 326 OFFCURVE",
"334 321 CURVE",
"312 237 OFFCURVE",
"289 152 OFFCURVE",
"289 98 CURVE SMOOTH",
"289 30 OFFCURVE",
"326 -12 OFFCURVE",
"393 -12 CURVE SMOOTH"
);
}
);
width = 544;
}
);
note = h;
unicode = 0068;
},
{
color = 4;
glyphname = k;
lastChange = "2018-03-15 17:22:41 +0000";
layers = (
{
anchors = (
{
name = bottom;
position = "{221, 0}";
},
{
name = top;
position = "{624, 1108}";
}
);
layerId = "4C458150-A1D2-4ED7-A293-C8767657F79E";
paths = (
{
closed = 1;
nodes = (
"94 -14 OFFCURVE",
"103 0 OFFCURVE",
"107 6 CURVE SMOOTH",
"181 117 OFFCURVE",
"351 323 OFFCURVE",
"463 407 CURVE",
"450 420 OFFCURVE",
"432 427 OFFCURVE",
"410 427 CURVE SMOOTH",
"387 427 OFFCURVE",
"172 171 OFFCURVE",
"93 58 CURVE",
"102 50 LINE",
"139 223 OFFCURVE",
"173 399 OFFCURVE",
"223 534 CURVE SMOOTH",
"338 844 OFFCURVE",
"487 1038 OFFCURVE",
"624 1038 CURVE SMOOTH",
"711 1038 OFFCURVE",
"780 1006 OFFCURVE",
"822 908 CURVE",
"824 910 OFFCURVE",
"826 914 OFFCURVE",
"826 917 CURVE SMOOTH",
"826 1055 OFFCURVE",
"733 1108 OFFCURVE",
"640 1108 CURVE SMOOTH",
"449 1108 OFFCURVE",
"301 888 OFFCURVE",
"180 546 CURVE SMOOTH",
"127 396 OFFCURVE",
"50 60 OFFCURVE",
"53 20 CURVE SMOOTH",
"54 8 OFFCURVE",
"78 -14 OFFCURVE",
"89 -14 CURVE SMOOTH"
);
},
{
closed = 1;
nodes = (
"530 -12 OFFCURVE",
"657 182 OFFCURVE",
"652 243 CURVE SMOOTH",
"650 266 OFFCURVE",
"642 281 OFFCURVE",
"631 281 CURVE",
"605 146 OFFCURVE",
"489 30 OFFCURVE",
"438 30 CURVE SMOOTH",
"342 30 OFFCURVE",
"313 172 OFFCURVE",
"286 276 CURVE",
"246 224 LINE",
"292 85 OFFCURVE",
"331 -12 OFFCURVE",
"425 -12 CURVE SMOOTH"
);
}
);
width = 516;
},
{
anchors = (
{
name = bottom;
position = "{221, 0}";
},
{
name = top;
position = "{637, 1108}";
}
);
layerId = "73F3E0E0-4CEF-4E72-8F22-4B031C019FE7";
paths = (
{
closed = 1;
nodes = (
"91 -14 OFFCURVE",
"99 0 OFFCURVE",
"104 6 CURVE SMOOTH",
"243 173 OFFCURVE",
"385 310 OFFCURVE",
"498 394 CURVE",
"486 417 OFFCURVE",
"419 434 OFFCURVE",
"407 434 CURVE SMOOTH",
"384 434 OFFCURVE",
"214 221 OFFCURVE",
"135 108 CURVE",
"144 100 LINE",
"181 273 OFFCURVE",
"201 355 OFFCURVE",
"246 514 CURVE SMOOTH",
"335 830 OFFCURVE",
"478 1008 OFFCURVE",
"615 1008 CURVE SMOOTH",
"702 1008 OFFCURVE",
"772 976 OFFCURVE",
"819 908 CURVE",
"823 918 OFFCURVE",
"826 940 OFFCURVE",
"826 954 CURVE SMOOTH",
"826 1066 OFFCURVE",
"721 1108 OFFCURVE",
"637 1108 CURVE SMOOTH",
"446 1108 OFFCURVE",
"269 922 OFFCURVE",
"172 576 CURVE SMOOTH",
"127 416 OFFCURVE",
"47 60 OFFCURVE",
"50 20 CURVE SMOOTH",
"51 8 OFFCURVE",
"75 -14 OFFCURVE",
"86 -14 CURVE SMOOTH"
);
},
{
closed = 1;
nodes = (
"503 -12 OFFCURVE",
"657 163 OFFCURVE",
"657 235 CURVE SMOOTH",
"657 252 OFFCURVE",
"649 265 OFFCURVE",
"631 265 CURVE",
"593 144 OFFCURVE",
"479 50 OFFCURVE",
"408 50 CURVE SMOOTH",
"342 50 OFFCURVE",
"304 125 OFFCURVE",
"307 270 CURVE",
"243 224 LINE",
"244 85 OFFCURVE",
"288 -12 OFFCURVE",
"382 -12 CURVE SMOOTH"
);
}
);
width = 536;
}
);
note = k;
unicode = 006B;
},
{
color = 4;
glyphname = l;
lastChange = "2018-03-15 17:22:41 +0000";
layers = (
{
layerId = "4C458150-A1D2-4ED7-A293-C8767657F79E";
paths = (
{
closed = 1;
nodes = (
"307 -7 OFFCURVE",
"449 89 OFFCURVE",
"506 209 CURVE SMOOTH",
"512 221 OFFCURVE",
"516 234 OFFCURVE",
"516 247 CURVE SMOOTH",
"516 265 OFFCURVE",
"508 280 OFFCURVE",
"494 280 CURVE",
"447 149 OFFCURVE",
"319 38 OFFCURVE",
"219 38 CURVE SMOOTH",
"176 38 OFFCURVE",
"145 59 OFFCURVE",
"145 127 CURVE SMOOTH",
"145 232 OFFCURVE",
"228 560 OFFCURVE",
"304 835 CURVE SMOOTH",
"340 966 OFFCURVE",
"362 970 OFFCURVE",
"372 970 CURVE SMOOTH",
"402 970 OFFCURVE",
"411 929 OFFCURVE",
"411 894 CURVE SMOOTH",
"411 792 OFFCURVE",
"333 522 OFFCURVE",
"166 320 CURVE",
"151 246 LINE",
"360 467 OFFCURVE",
"457 758 OFFCURVE",
"457 892 CURVE SMOOTH",
"457 985 OFFCURVE",
"410 1025 OFFCURVE",
"371 1025 CURVE SMOOTH",
"333 1025 OFFCURVE",
"303 986 OFFCURVE",
"278 898 CURVE SMOOTH",
"190 585 OFFCURVE",
"95 245 OFFCURVE",
"95 116 CURVE SMOOTH",
"95 39 OFFCURVE",
"127 -7 OFFCURVE",
"201 -7 CURVE SMOOTH"
);
}
);
width = 381;
},
{
layerId = "73F3E0E0-4CEF-4E72-8F22-4B031C019FE7";
paths = (
{
closed = 1;
nodes = (
"374 -7 OFFCURVE",
"498 96 OFFCURVE",
"526 182 CURVE SMOOTH",
"530 194 OFFCURVE",
"532 206 OFFCURVE",
"532 217 CURVE SMOOTH",
"532 239 OFFCURVE",
"524 250 OFFCURVE",
"509 250 CURVE",
"470 150 OFFCURVE",
"361 48 OFFCURVE",
"258 48 CURVE SMOOTH",
"212 48 OFFCURVE",
"186 68 OFFCURVE",
"186 146 CURVE SMOOTH",
"186 283 OFFCURVE",
"266 630 OFFCURVE",
"320 825 CURVE SMOOTH",
"348 925 OFFCURVE",
"358 950 OFFCURVE",
"372 950 CURVE SMOOTH",
"388 950 OFFCURVE",
"395 918 OFFCURVE",
"395 879 CURVE SMOOTH",
"395 713 OFFCURVE",
"268 429 OFFCURVE",
"165 274 CURVE",
"149 186 LINE",
"291 369 OFFCURVE",
"462 679 OFFCURVE",
"462 880 CURVE SMOOTH",
"462 958 OFFCURVE",
"436 1025 OFFCURVE",
"373 1025 CURVE SMOOTH",
"314 1025 OFFCURVE",
"266 968 OFFCURVE",
"230 838 CURVE SMOOTH",
"196 714 OFFCURVE",
"94 249 OFFCURVE",
"94 130 CURVE SMOOTH",
"94 47 OFFCURVE",
"143 -7 OFFCURVE",
"240 -7 CURVE SMOOTH"
);
}
);
width = 401;
}
);
note = l;
unicode = 006C;
},
{
color = 4;
glyphname = m;
lastChange = "2018-03-16 05:56:32 +0000";
layers = (
{
anchors = (
{
name = bottom;
position = "{245, 0}";
},
{
name = top;
position = "{349, 420}";
}
);
layerId = "4C458150-A1D2-4ED7-A293-C8767657F79E";
paths = (
{
closed = 1;
nodes = (
"648 -2 OFFCURVE",
"775 172 OFFCURVE",
"774 231 CURVE SMOOTH",
"774 247 OFFCURVE",
"764 264 OFFCURVE",
"748 264 CURVE",
"711 152 OFFCURVE",
"629 41 OFFCURVE",
"543 41 CURVE SMOOTH",
"507 41 OFFCURVE",
"497 60 OFFCURVE",
"497 98 CURVE SMOOTH",
"497 176 OFFCURVE",
"538 296 OFFCURVE",
"564 376 CURVE",
"563 397 OFFCURVE",
"534 413 OFFCURVE",
"517 413 CURVE SMOOTH",
"465 413 OFFCURVE",
"346 271 OFFCURVE",
"316 224 CURVE",
"324 218 LINE",
"333 246 OFFCURVE",
"354 347 OFFCURVE",
"358 370 CURVE",
"358 380 OFFCURVE",
"328 402 OFFCURVE",
"313 402 CURVE",
"285 402 OFFCURVE",
"191 351 OFFCURVE",
"119 197 CURVE",
"133 199 LINE",
"155 298 OFFCURVE",
"179 374 OFFCURVE",
"186 403 CURVE",
"181 408 OFFCURVE",
"156 419 OFFCURVE",
"147 419 CURVE SMOOTH",
"139 419 OFFCURVE",
"136 413 OFFCURVE",
"133 402 CURVE SMOOTH",
"129 386 OFFCURVE",
"57 108 OFFCURVE",
"48 71 CURVE SMOOTH",
"44 56 OFFCURVE",
"38 31 OFFCURVE",
"38 26 CURVE SMOOTH",
"38 15 OFFCURVE",
"70 5 OFFCURVE",
"80 5 CURVE",
"85 31 OFFCURVE",
"95 78 OFFCURVE",
"107 118 CURVE",
"160 232 OFFCURVE",
"266 360 OFFCURVE",
"297 360 CURVE SMOOTH",
"302 360 OFFCURVE",
"308 357 OFFCURVE",
"312 352 CURVE",
"307 330 OFFCURVE",
"280 216 OFFCURVE",
"244 85 CURVE SMOOTH",
"238 63 OFFCURVE",
"234 47 OFFCURVE",
"234 37 CURVE SMOOTH",
"234 22 OFFCURVE",
"255 4 OFFCURVE",
"266 4 CURVE SMOOTH",
"275 4 OFFCURVE",
"277 16 OFFCURVE",
"281 33 CURVE SMOOTH",
"289 67 OFFCURVE",
"304 131 OFFCURVE",
"314 163 CURVE",
"341 214 OFFCURVE",
"469 360 OFFCURVE",
"496 360 CURVE SMOOTH",
"501 360 OFFCURVE",
"508 356 OFFCURVE",
"508 352 CURVE",
"501 322 OFFCURVE",
"445 181 OFFCURVE",
"445 97 CURVE SMOOTH",
"445 26 OFFCURVE",
"486 -2 OFFCURVE",
"532 -2 CURVE SMOOTH"
);
}
);
width = 641;
},
{
anchors = (
{
name = bottom;
position = "{293, 0}";
},
{
name = top;
position = "{397, 420}";
}
);
layerId = "73F3E0E0-4CEF-4E72-8F22-4B031C019FE7";
paths = (
{
closed = 1;
nodes = (
"731 -2 OFFCURVE",
"829 163 OFFCURVE",
"829 218 CURVE SMOOTH",
"829 236 OFFCURVE",
"818 244 OFFCURVE",
"803 244 CURVE",
"771 127 OFFCURVE",
"697 51 OFFCURVE",
"623 51 CURVE SMOOTH",
"581 51 OFFCURVE",
"565 76 OFFCURVE",
"565 113 CURVE SMOOTH",
"565 173 OFFCURVE",
"607 298 OFFCURVE",
"631 376 CURVE",
"631 397 OFFCURVE",
"571 413 OFFCURVE",
"553 413 CURVE SMOOTH",
"504 413 OFFCURVE",
"422 289 OFFCURVE",
"385 231 CURVE",
"393 225 LINE",
"402 253 OFFCURVE",
"422 347 OFFCURVE",
"426 370 CURVE",
"426 380 OFFCURVE",
"363 402 OFFCURVE",
"348 402 CURVE",
"320 402 OFFCURVE",
"241 356 OFFCURVE",
"168 204 CURVE",
"175 204 LINE",
"202 303 OFFCURVE",
"218 374 OFFCURVE",
"225 403 CURVE",
"220 408 OFFCURVE",
"155 419 OFFCURVE",
"146 419 CURVE SMOOTH",
"138 419 OFFCURVE",
"135 413 OFFCURVE",
"132 402 CURVE SMOOTH",
"93 253 OFFCURVE",
"58 79 OFFCURVE",
"53 57 CURVE SMOOTH",
"49 42 OFFCURVE",
"43 17 OFFCURVE",
"43 13 CURVE SMOOTH",
"43 1 OFFCURVE",
"115 -9 OFFCURVE",
"125 -9 CURVE",
"130 17 OFFCURVE",
"140 64 OFFCURVE",
"155 118 CURVE",
"208 232 OFFCURVE",
"287 340 OFFCURVE",
"318 340 CURVE SMOOTH",
"323 340 OFFCURVE",
"329 337 OFFCURVE",
"333 332 CURVE",
"312 232 OFFCURVE",
"299 180 OFFCURVE",
"269 71 CURVE SMOOTH",
"261 42 OFFCURVE",
"260 33 OFFCURVE",
"260 25 CURVE SMOOTH",
"260 7 OFFCURVE",
"322 -10 OFFCURVE",
"332 -10 CURVE SMOOTH",
"340 -10 OFFCURVE",
"342 2 OFFCURVE",
"346 19 CURVE SMOOTH",
"356 62 OFFCURVE",
"373 134 OFFCURVE",
"382 163 CURVE",
"406 209 OFFCURVE",
"491 340 OFFCURVE",
"519 340 CURVE SMOOTH",
"524 340 OFFCURVE",
"531 336 OFFCURVE",
"531 332 CURVE",
"523 294 OFFCURVE",
"472 168 OFFCURVE",
"472 110 CURVE SMOOTH",
"472 46 OFFCURVE",
"532 -2 OFFCURVE",
"602 -2 CURVE SMOOTH"
);
}
);
width = 698;
}
);
note = m;
unicode = 006D;
},
{
color = 4;
glyphname = n;
lastChange = "2018-03-16 06:04:20 +0000";
layers = (
{
anchors = (
{
name = bottom;
position = "{182, 0}";
},
{
name = top;
position = "{266, 420}";
}
);
layerId = "4C458150-A1D2-4ED7-A293-C8767657F79E";
paths = (
{
closed = 1;
nodes = (
"447 -12 OFFCURVE",
"574 146 OFFCURVE",
"574 216 CURVE SMOOTH",
"574 228 OFFCURVE",
"570 244 OFFCURVE",
"555 244 CURVE",
"512 143 OFFCURVE",
"423 28 OFFCURVE",
"339 28 CURVE SMOOTH",
"309 28 OFFCURVE",
"299 43 OFFCURVE",
"299 63 CURVE SMOOTH",
"299 107 OFFCURVE",
"347 273 OFFCURVE",
"389 384 CURVE",
"385 395 OFFCURVE",
"362 413 OFFCURVE",
"348 413 CURVE SMOOTH",
"315 413 OFFCURVE",
"194 303 OFFCURVE",
"122 216 CURVE",
"129 190 LINE",
"160 292 OFFCURVE",
"182 383 OFFCURVE",
"184 398 CURVE",
"181 410 OFFCURVE",
"159 415 OFFCURVE",
"150 415 CURVE SMOOTH",
"142 415 OFFCURVE",
"137 412 OFFCURVE",
"136 405 CURVE SMOOTH",
"124 334 OFFCURVE",
"116 297 OFFCURVE",
"76 158 CURVE",
"53 85 OFFCURVE",
"35 32 OFFCURVE",
"35 8 CURVE",
"35 1 OFFCURVE",
"66 0 OFFCURVE",
"73 0 CURVE SMOOTH",
"80 0 OFFCURVE",
"79 1 OFFCURVE",
"82 14 CURVE SMOOTH",
"99 97 OFFCURVE",
"91 79 OFFCURVE",
"119 151 CURVE",
"150 206 OFFCURVE",
"276 327 OFFCURVE",
"311 348 CURVE SMOOTH",
"318 352 OFFCURVE",
"323 354 OFFCURVE",
"328 345 CURVE",
"316 314 OFFCURVE",
"245 131 OFFCURVE",
"249 54 CURVE SMOOTH",
"251 8 OFFCURVE",
"280 -12 OFFCURVE",
"324 -12 CURVE SMOOTH"
);
}
);
width = 445;
},
{
anchors = (
{
name = bottom;
position = "{208, 0}";
},
{
name = top;
position = "{282, 420}";
}
);
layerId = "73F3E0E0-4CEF-4E72-8F22-4B031C019FE7";
paths = (
{
closed = 1;
nodes = (
"531 -12 OFFCURVE",
"629 155 OFFCURVE",
"629 201 CURVE SMOOTH",
"629 214 OFFCURVE",
"622 224 OFFCURVE",
"610 224 CURVE",
"578 135 OFFCURVE",
"480 38 OFFCURVE",
"407 38 CURVE SMOOTH",
"378 38 OFFCURVE",
"364 53 OFFCURVE",
"364 84 CURVE SMOOTH",
"364 138 OFFCURVE",
"406 278 OFFCURVE",
"434 384 CURVE",
"431 394 OFFCURVE",
"367 413 OFFCURVE",
"354 413 CURVE SMOOTH",
"320 413 OFFCURVE",
"205 296 OFFCURVE",
"136 206 CURVE",
"146 190 LINE",
"177 291 OFFCURVE",
"195 385 OFFCURVE",
"199 400 CURVE",
"182 412 OFFCURVE",
"155 415 OFFCURVE",
"131 415 CURVE SMOOTH",
"117 415 OFFCURVE",
"114 414 OFFCURVE",
"112 405 CURVE SMOOTH",
"66 182 OFFCURVE",
"70 197 OFFCURVE",
"62 158 CURVE",
"46 85 OFFCURVE",
"35 32 OFFCURVE",
"31 8 CURVE",
"31 1 OFFCURVE",
"103 0 OFFCURVE",
"110 0 CURVE SMOOTH",
"117 0 OFFCURVE",
"116 1 OFFCURVE",
"119 14 CURVE SMOOTH",
"121 25 OFFCURVE",
"124 53 OFFCURVE",
"146 151 CURVE",
"165 196 OFFCURVE",
"297 335 OFFCURVE",
"327 335 CURVE SMOOTH",
"331 335 OFFCURVE",
"334 333 OFFCURVE",
"335 329 CURVE",
"316 249 OFFCURVE",
"273 139 OFFCURVE",
"273 81 CURVE SMOOTH",
"273 27 OFFCURVE",
"310 -12 OFFCURVE",
"382 -12 CURVE SMOOTH"
);
}
);
width = 500;
}
);
note = n;
unicode = 006E;
},
{
color = 4;
glyphname = o;
lastChange = "2018-03-15 17:25:20 +0000";
layers = (
{
anchors = (
{
name = bottom;
position = "{193, 0}";
},
{
name = center;
position = "{230, 210}";
},
{
name = ogonek;
position = "{210, 10}";
},
{
name = top;
position = "{287, 420}";
},
{
name = topright;
position = "{375, 362}";
}
);
layerId = "4C458150-A1D2-4ED7-A293-C8767657F79E";
paths = (
{
closed = 1;
nodes = (
"257 -8 OFFCURVE",
"319 41 OFFCURVE",
"332 71 CURVE",
"342 142 OFFCURVE",
"373 229 OFFCURVE",
"380 283 CURVE",
"340 321 LINE",
"335 234 OFFCURVE",
"302 166 OFFCURVE",
"288 88 CURVE",
"278 64 OFFCURVE",
"234 36 OFFCURVE",
"201 36 CURVE SMOOTH",
"170 36 OFFCURVE",
"123 60 OFFCURVE",
"123 114 CURVE",
"142 185 OFFCURVE",
"146 219 OFFCURVE",
"167 303 CURVE SMOOTH",
"176 339 OFFCURVE",
"213 371 OFFCURVE",
"265 371 CURVE SMOOTH",
"278 371 OFFCURVE",
"289 369 OFFCURVE",
"299 365 CURVE SMOOTH",
"306 363 OFFCURVE",
"306 361 OFFCURVE",
"307 355 CURVE SMOOTH",
"323 270 OFFCURVE",
"395 221 OFFCURVE",
"471 221 CURVE SMOOTH",
"557 221 OFFCURVE",
"621 283 OFFCURVE",
"621 333 CURVE SMOOTH",
"621 345 OFFCURVE",
"617 351 OFFCURVE",
"611 353 CURVE",
"586 295 OFFCURVE",
"543 260 OFFCURVE",
"482 260 CURVE SMOOTH",
"400 260 OFFCURVE",
"352 323 OFFCURVE",
"352 398 CURVE SMOOTH",
"352 413 OFFCURVE",
"354 429 OFFCURVE",
"357 446 CURVE",
"348 448 OFFCURVE",
"341 449 OFFCURVE",
"334 449 CURVE SMOOTH",
"308 449 OFFCURVE",
"300 435 OFFCURVE",
"297 389 CURVE",
"328 400 LINE",
"308 406 OFFCURVE",
"288 412 OFFCURVE",
"265 412 CURVE SMOOTH",
"199 412 OFFCURVE",
"131 362 OFFCURVE",
"121 315 CURVE SMOOTH",
"102 227 OFFCURVE",
"97 191 OFFCURVE",
"71 111 CURVE",
"71 43 OFFCURVE",
"136 -8 OFFCURVE",
"197 -8 CURVE SMOOTH"
);
}
);
width = 470;
},
{
anchors = (
{
name = bottom;
position = "{203, 0}";
},
{
name = center;
position = "{240, 210}";
},
{
name = ogonek;
position = "{220, 10}";
},
{
name = top;
position = "{297, 420}";
},
{
name = topright;
position = "{385, 362}";
}
);
layerId = "73F3E0E0-4CEF-4E72-8F22-4B031C019FE7";
paths = (
{
closed = 1;
nodes = (
"280 -8 OFFCURVE",
"357 55 OFFCURVE",
"371 86 CURVE",
"375 125 OFFCURVE",
"402 247 OFFCURVE",
"408 283 CURVE",
"331 343 LINE",
"325 259 OFFCURVE",
"303 185 OFFCURVE",
"286 93 CURVE",
"277 70 OFFCURVE",
"244 46 OFFCURVE",
"217 46 CURVE SMOOTH",
"190 46 OFFCURVE",
"151 70 OFFCURVE",
"149 114 CURVE",
"167 193 OFFCURVE",
"168 198 OFFCURVE",
"187 289 CURVE SMOOTH",
"195 327 OFFCURVE",
"223 359 OFFCURVE",
"271 359 CURVE SMOOTH",
"279 359 OFFCURVE",
"285 358 OFFCURVE",
"288 357 CURVE SMOOTH",
"293 355 OFFCURVE",
"293 352 OFFCURVE",
"294 346 CURVE SMOOTH",
"306 268 OFFCURVE",
"397 231 OFFCURVE",
"474 231 CURVE SMOOTH",
"567 231 OFFCURVE",
"661 285 OFFCURVE",
"661 342 CURVE SMOOTH",
"661 355 OFFCURVE",
"656 360 OFFCURVE",
"648 363 CURVE",
"621 301 OFFCURVE",
"556 280 OFFCURVE",
"498 280 CURVE SMOOTH",
"420 280 OFFCURVE",
"375 317 OFFCURVE",
"375 377 CURVE SMOOTH",
"375 395 OFFCURVE",
"379 412 OFFCURVE",
"385 437 CURVE",
"380 444 OFFCURVE",
"366 450 OFFCURVE",
"343 450 CURVE SMOOTH",
"300 450 OFFCURVE",
"294 428 OFFCURVE",
"294 383 CURVE",
"339 409 LINE",
"323 413 OFFCURVE",
"297 415 OFFCURVE",
"283 415 CURVE SMOOTH",
"200 415 OFFCURVE",
"109 349 OFFCURVE",
"99 300 CURVE SMOOTH",
"81 213 OFFCURVE",
"82 191 OFFCURVE",
"61 111 CURVE",
"61 43 OFFCURVE",
"142 -8 OFFCURVE",
"207 -8 CURVE SMOOTH"
);
}
);
width = 500;
}
);
note = o;
unicode = 006F;
},
{
color = 4;
glyphname = p;
lastChange = "2018-03-15 17:27:13 +0000";
layers = (
{
layerId = "4C458150-A1D2-4ED7-A293-C8767657F79E";
paths = (
{
closed = 1;
nodes = (
"-87 -624 OFFCURVE",
"-48 -646 OFFCURVE",
"-28 -567 CURVE SMOOTH",
"63 -210 OFFCURVE",
"79 -51 OFFCURVE",
"159 229 CURVE SMOOTH",
"185 320 OFFCURVE",
"272 366 OFFCURVE",
"293 366 CURVE SMOOTH",
"312 366 OFFCURVE",
"348 333 OFFCURVE",
"348 315 CURVE",
"318 199 OFFCURVE",
"285 31 OFFCURVE",
"169 31 CURVE SMOOTH",
"154 31 OFFCURVE",
"141 34 OFFCURVE",
"130 36 CURVE",
"128 30 OFFCURVE",
"127 24 OFFCURVE",
"127 19 CURVE SMOOTH",
"127 -1 OFFCURVE",
"140 -6 OFFCURVE",
"173 -6 CURVE SMOOTH",
"216 -6 OFFCURVE",
"450 3 OFFCURVE",
"560 135 CURVE SMOOTH",
"569 146 OFFCURVE",
"577 157 OFFCURVE",
"577 175 CURVE SMOOTH",
"577 189 OFFCURVE",
"572 199 OFFCURVE",
"562 205 CURVE",
"436 59 OFFCURVE",
"345 44 OFFCURVE",
"220 28 CURVE",
"226 17 LINE",
"360 64 OFFCURVE",
"378 213 OFFCURVE",
"408 322 CURVE",
"408 361 OFFCURVE",
"346 420 OFFCURVE",
"308 420 CURVE SMOOTH",
"272 420 OFFCURVE",
"196 365 OFFCURVE",
"167 318 CURVE",
"175 309 LINE",
"191 365 OFFCURVE",
"226 487 OFFCURVE",
"235 507 CURVE SMOOTH",
"237 510 OFFCURVE",
"239 515 OFFCURVE",
"240 518 CURVE",
"237 522 OFFCURVE",
"234 526 OFFCURVE",
"231 527 CURVE",
"221 526 OFFCURVE",
"210 517 OFFCURVE",
"188 509 CURVE SMOOTH",
"181 507 OFFCURVE",
"175 504 OFFCURVE",
"172 491 CURVE SMOOTH",
"136 339 OFFCURVE",
"55 2 OFFCURVE",
"-56 -434 CURVE SMOOTH",
"-91 -571 OFFCURVE",
"-99 -603 OFFCURVE",
"-210 -652 CURVE",
"-199 -657 LINE"
);
}
);
width = 454;
},
{
layerId = "73F3E0E0-4CEF-4E72-8F22-4B031C019FE7";
paths = (
{
closed = 1;
nodes = (
"-65 -624 OFFCURVE",
"14 -646 OFFCURVE",
"31 -567 CURVE SMOOTH",
"98 -252 OFFCURVE",
"141 116 OFFCURVE",
"175 229 CURVE SMOOTH",
"204 327 OFFCURVE",
"261 351 OFFCURVE",
"282 351 CURVE SMOOTH",
"305 351 OFFCURVE",
"347 323 OFFCURVE",
"346 305 CURVE",
"320 138 OFFCURVE",
"310 51 OFFCURVE",
"214 51 CURVE SMOOTH",
"191 51 OFFCURVE",
"172 56 OFFCURVE",
"161 60 CURVE",
"158 52 OFFCURVE",
"155 45 OFFCURVE",
"153 34 CURVE SMOOTH",
"150 17 OFFCURVE",
"157 -6 OFFCURVE",
"252 -6 CURVE SMOOTH",
"359 -6 OFFCURVE",
"504 23 OFFCURVE",
"584 132 CURVE SMOOTH",
"592 143 OFFCURVE",
"604 161 OFFCURVE",
"604 179 CURVE SMOOTH",
"604 191 OFFCURVE",
"599 204 OFFCURVE",
"587 210 CURVE",
"504 99 OFFCURVE",
"414 50 OFFCURVE",
"294 48 CURVE",
"290 37 LINE",
"412 81 OFFCURVE",
"424 183 OFFCURVE",
"448 322 CURVE",
"446 362 OFFCURVE",
"363 420 OFFCURVE",
"316 420 CURVE SMOOTH",
"269 420 OFFCURVE",
"201 361 OFFCURVE",
"173 314 CURVE",
"187 309 LINE",
"210 407 OFFCURVE",
"222 460 OFFCURVE",
"231 491 CURVE SMOOTH",
"233 498 OFFCURVE",
"246 528 OFFCURVE",
"247 531 CURVE",
"246 533 OFFCURVE",
"242 536 OFFCURVE",
"239 537 CURVE",
"213 518 OFFCURVE",
"206 515 OFFCURVE",
"157 495 CURVE SMOOTH",
"141 489 OFFCURVE",
"133 480 OFFCURVE",
"129 458 CURVE SMOOTH",
"102 310 OFFCURVE",
"109 313 OFFCURVE",
"-40 -404 CURVE SMOOTH",
"-69 -544 OFFCURVE",
"-76 -575 OFFCURVE",
"-187 -652 CURVE",
"-177 -657 LINE"
);
}
);
width = 474;
}
);
note = p;
unicode = 0070;
},
{
color = 4;
glyphname = q;
lastChange = "2018-03-15 17:27:13 +0000";
layers = (
{
layerId = "4C458150-A1D2-4ED7-A293-C8767657F79E";
paths = (
{
closed = 1;
nodes = (
"329 -565 OFFCURVE",
"383 -436 OFFCURVE",
"383 -301 CURVE SMOOTH",
"383 -184 OFFCURVE",
"366 -84 OFFCURVE",
"327 -37 CURVE",
"322 -55 LINE",
"438 0 OFFCURVE",
"653 121 OFFCURVE",
"639 226 CURVE SMOOTH",
"637 241 OFFCURVE",
"632 248 OFFCURVE",
"624 254 CURVE",
"571 139 OFFCURVE",
"429 40 OFFCURVE",
"289 -26 CURVE",
"284 -50 LINE",
"332 -111 OFFCURVE",
"338 -192 OFFCURVE",
"338 -288 CURVE SMOOTH",
"338 -411 OFFCURVE",
"284 -518 OFFCURVE",
"236 -518 CURVE SMOOTH",
"217 -518 OFFCURVE",
"206 -504 OFFCURVE",
"206 -482 CURVE SMOOTH",
"206 -433 OFFCURVE",
"230 -338 OFFCURVE",
"312 -33 CURVE SMOOTH",
"340 71 OFFCURVE",
"376 199 OFFCURVE",
"415 353 CURVE SMOOTH",
"426 396 OFFCURVE",
"428 410 OFFCURVE",
"439 448 CURVE",
"432 457 OFFCURVE",
"402 475 OFFCURVE",
"392 475 CURVE",
"387 442 OFFCURVE",
"382 420 OFFCURVE",
"372 379 CURVE SMOOTH",
"360 328 OFFCURVE",
"327 204 OFFCURVE",
"310 137 CURVE SMOOTH",
"294 75 OFFCURVE",
"226 39 OFFCURVE",
"190 39 CURVE SMOOTH",
"165 39 OFFCURVE",
"134 71 OFFCURVE",
"131 111 CURVE",
"143 170 OFFCURVE",
"152 226 OFFCURVE",
"171 297 CURVE SMOOTH",
"184 345 OFFCURVE",
"219 380 OFFCURVE",
"289 380 CURVE SMOOTH",
"338 380 OFFCURVE",
"380 348 OFFCURVE",
"395 328 CURVE",
"408 364 LINE",
"394 384 OFFCURVE",
"337 418 OFFCURVE",
"286 418 CURVE SMOOTH",
"206 418 OFFCURVE",
"138 363 OFFCURVE",
"125 314 CURVE SMOOTH",
"103 230 OFFCURVE",
"92 178 OFFCURVE",
"76 108 CURVE",
"79 54 OFFCURVE",
"130 -8 OFFCURVE",
"192 -8 CURVE SMOOTH",
"235 -8 OFFCURVE",
"307 37 OFFCURVE",
"338 106 CURVE",
"312 118 LINE",
"309 98 OFFCURVE",
"154 -389 OFFCURVE",
"154 -482 CURVE SMOOTH",
"154 -533 OFFCURVE",
"203 -565 OFFCURVE",
"227 -565 CURVE SMOOTH"
);
}
);
width = 510;
},
{
layerId = "73F3E0E0-4CEF-4E72-8F22-4B031C019FE7";
paths = (
{
closed = 1;
nodes = (
"397 -565 OFFCURVE",
"450 -404 OFFCURVE",
"450 -253 CURVE SMOOTH",
"450 -134 OFFCURVE",
"405 -72 OFFCURVE",
"367 -37 CURVE",
"362 -55 LINE",
"496 -11 OFFCURVE",
"670 105 OFFCURVE",
"670 215 CURVE SMOOTH",
"670 230 OFFCURVE",
"666 245 OFFCURVE",
"654 254 CURVE",
"600 129 OFFCURVE",
"478 35 OFFCURVE",
"318 -31 CURVE",
"314 -50 LINE",
"352 -99 OFFCURVE",
"375 -162 OFFCURVE",
"375 -246 CURVE SMOOTH",
"375 -327 OFFCURVE",
"344 -498 OFFCURVE",
"289 -498 CURVE SMOOTH",
"270 -498 OFFCURVE",
"258 -488 OFFCURVE",
"258 -462 CURVE SMOOTH",
"258 -422 OFFCURVE",
"311 -179 OFFCURVE",
"348 -33 CURVE",
"374 71 OFFCURVE",
"396 199 OFFCURVE",
"435 353 CURVE SMOOTH",
"446 396 OFFCURVE",
"453 424 OFFCURVE",
"459 448 CURVE",
"452 457 OFFCURVE",
"382 475 OFFCURVE",
"372 475 CURVE",
"367 442 OFFCURVE",
"361 410 OFFCURVE",
"354 369 CURVE SMOOTH",
"345 318 OFFCURVE",
"322 204 OFFCURVE",
"304 137 CURVE SMOOTH",
"290 85 OFFCURVE",
"242 49 OFFCURVE",
"206 49 CURVE SMOOTH",
"181 49 OFFCURVE",
"153 74 OFFCURVE",
"150 106 CURVE",
"161 165 OFFCURVE",
"170 221 OFFCURVE",
"186 292 CURVE SMOOTH",
"197 340 OFFCURVE",
"239 370 OFFCURVE",
"274 370 CURVE SMOOTH",
"313 370 OFFCURVE",
"348 333 OFFCURVE",
"361 308 CURVE",
"376 354 LINE",
"363 379 OFFCURVE",
"327 418 OFFCURVE",
"276 418 CURVE SMOOTH",
"221 418 OFFCURVE",
"110 353 OFFCURVE",
"100 304 CURVE SMOOTH",
"83 220 OFFCURVE",
"72 163 OFFCURVE",
"57 98 CURVE",
"58 45 OFFCURVE",
"120 -8 OFFCURVE",
"182 -8 CURVE SMOOTH",
"225 -8 OFFCURVE",
"302 37 OFFCURVE",
"333 106 CURVE",
"304 108 LINE",
"265 -35 OFFCURVE",
"178 -387 OFFCURVE",
"178 -454 CURVE SMOOTH",
"178 -509 OFFCURVE",
"207 -565 OFFCURVE",
"257 -565 CURVE SMOOTH"
);
}
);
width = 530;
}
);
note = q;
unicode = 0071;
},
{
color = 4;
glyphname = r;
lastChange = "2018-03-16 06:12:37 +0000";
layers = (
{
anchors = (
{
name = bottom;
position = "{70, 0}";
},
{
name = top;
position = "{217, 420}";
}
);
layerId = "4C458150-A1D2-4ED7-A293-C8767657F79E";
paths = (
{
closed = 1;
nodes = (
"91 -4 OFFCURVE",
"92 -2 OFFCURVE",
"93 2 CURVE SMOOTH",
"106 81 OFFCURVE",
"119 129 OFFCURVE",
"133 185 CURVE SMOOTH",
"152 260 OFFCURVE",
"208 355 OFFCURVE",
"276 355 CURVE",
"267 361 LINE",
"277 294 OFFCURVE",
"331 256 OFFCURVE",
"399 256 CURVE SMOOTH",
"464 256 OFFCURVE",
"533 296 OFFCURVE",
"533 340 CURVE SMOOTH",
"533 348 OFFCURVE",
"529 355 OFFCURVE",
"523 357 CURVE",
"496 311 OFFCURVE",
"461 295 OFFCURVE",
"408 295 CURVE SMOOTH",
"349 295 OFFCURVE",
"311 324 OFFCURVE",
"311 391 CURVE",
"306 394 OFFCURVE",
"291 398 OFFCURVE",
"277 398 CURVE SMOOTH",
"209 398 OFFCURVE",
"157 328 OFFCURVE",
"130 257 CURVE",
"142 250 LINE",
"155 301 OFFCURVE",
"172 362 OFFCURVE",
"184 396 CURVE",
"172 406 OFFCURVE",
"151 416 OFFCURVE",
"146 416 CURVE SMOOTH",
"138 416 OFFCURVE",
"136 412 OFFCURVE",
"133 401 CURVE SMOOTH",
"121 357 OFFCURVE",
"82 182 OFFCURVE",
"54 52 CURVE SMOOTH",
"51 38 OFFCURVE",
"49 25 OFFCURVE",
"49 15 CURVE SMOOTH",
"49 4 OFFCURVE",
"78 -4 OFFCURVE",
"84 -4 CURVE SMOOTH"
);
}
);
width = 370;
},
{
anchors = (
{
name = bottom;
position = "{87, 0}";
},
{
name = top;
position = "{217, 420}";
}
);
layerId = "73F3E0E0-4CEF-4E72-8F22-4B031C019FE7";
paths = (
{
closed = 1;
nodes = (
"107 0 OFFCURVE",
"123 3 OFFCURVE",
"124 10 CURVE SMOOTH",
"136 79 OFFCURVE",
"153 179 OFFCURVE",
"163 215 CURVE SMOOTH",
"181 279 OFFCURVE",
"232 346 OFFCURVE",
"305 346 CURVE",
"296 352 LINE",
"296 295 OFFCURVE",
"339 250 OFFCURVE",
"415 250 CURVE SMOOTH",
"492 250 OFFCURVE",
"547 296 OFFCURVE",
"553 338 CURVE SMOOTH",
"554 346 OFFCURVE",
"554 352 OFFCURVE",
"545 357 CURVE",
"521 319 OFFCURVE",
"489 295 OFFCURVE",
"446 295 CURVE SMOOTH",
"385 295 OFFCURVE",
"371 345 OFFCURVE",
"371 397 CURVE",
"367 405 OFFCURVE",
"350 412 OFFCURVE",
"327 412 CURVE SMOOTH",
"247 412 OFFCURVE",
"173 323 OFFCURVE",
"143 227 CURVE",
"168 230 LINE",
"181 281 OFFCURVE",
"201 372 OFFCURVE",
"213 406 CURVE",
"201 411 OFFCURVE",
"181 416 OFFCURVE",
"155 416 CURVE SMOOTH",
"135 416 OFFCURVE",
"118 413 OFFCURVE",
"112 391 CURVE SMOOTH",
"106 369 OFFCURVE",
"69 178 OFFCURVE",
"47 55 CURVE SMOOTH",
"45 44 OFFCURVE",
"41 19 OFFCURVE",
"41 14 CURVE SMOOTH",
"41 2 OFFCURVE",
"60 0 OFFCURVE",
"81 0 CURVE SMOOTH"
);
}
);
width = 400;
}
);
note = r;
unicode = 0072;
},
{
color = 4;
glyphname = s;
lastChange = "2018-03-15 17:37:38 +0000";
layers = (
{
anchors = (
{
name = bottom;
position = "{143, 0}";
},
{
name = top;
position = "{248, 417}";
}
);
background = {
paths = (
{
closed = 1;
nodes = (
"343 -6 OFFCURVE",
"489 71 OFFCURVE",
"489 163 CURVE SMOOTH",
"489 176 OFFCURVE",
"484 185 OFFCURVE",
"474 192 CURVE",
"448 113 OFFCURVE",
"369 46 OFFCURVE",
"168 15 CURVE",
"185 9 LINE",
"228 14 OFFCURVE",
"277 81 OFFCURVE",
"277 125 CURVE SMOOTH",
"277 214 OFFCURVE",
"205 268 OFFCURVE",
"205 343 CURVE SMOOTH",
"205 378 OFFCURVE",
"220 397 OFFCURVE",
"250 412 CURVE",
"245 417 OFFCURVE",
"234 420 OFFCURVE",
"222 420 CURVE SMOOTH",
"193 420 OFFCURVE",
"162 389 OFFCURVE",
"162 352 CURVE SMOOTH",
"162 252 OFFCURVE",
"229 199 OFFCURVE",
"229 115 CURVE SMOOTH",
"229 72 OFFCURVE",
"181 26 OFFCURVE",
"141 26 CURVE SMOOTH",
"80 26 OFFCURVE",
"41 76 OFFCURVE",
"41 143 CURVE SMOOTH",
"41 162 OFFCURVE",
"45 182 OFFCURVE",
"53 203 CURVE",
"32 203 OFFCURVE",
"4 173 OFFCURVE",
"4 130 CURVE SMOOTH",
"4 42 OFFCURVE",
"59 -13 OFFCURVE",
"184 -10 CURVE"
);
},
{
closed = 1;
nodes = (
"107 134 OFFCURVE",
"165 232 OFFCURVE",
"192 306 CURVE",
"185 368 LINE",
"155 293 OFFCURVE",
"95 176 OFFCURVE",
"34 128 CURVE",
"44 86 LINE"
);
}
);
};
layerId = "4C458150-A1D2-4ED7-A293-C8767657F79E";
paths = (
{
closed = 1;
nodes = (
"219 -13 OFFCURVE",
"289 63 OFFCURVE",
"289 129 CURVE SMOOTH",
"289 216 OFFCURVE",
"165 246 OFFCURVE",
"165 307 CURVE SMOOTH",
"165 330 OFFCURVE",
"182 377 OFFCURVE",
"230 377 CURVE SMOOTH",
"257 377 OFFCURVE",
"284 361 OFFCURVE",
"302 329 CURVE",
"314 340 OFFCURVE",
"326 356 OFFCURVE",
"326 371 CURVE SMOOTH",
"326 401 OFFCURVE",
"283 417 OFFCURVE",
"248 417 CURVE SMOOTH",
"182 417 OFFCURVE",
"115 360 OFFCURVE",
"115 296 CURVE SMOOTH",
"115 210 OFFCURVE",
"236 188 OFFCURVE",
"236 110 CURVE SMOOTH",
"236 67 OFFCURVE",
"199 25 OFFCURVE",
"137 25 CURVE SMOOTH",
"90 25 OFFCURVE",
"55 49 OFFCURVE",
"40 101 CURVE",
"28 99 OFFCURVE",
"11 86 OFFCURVE",
"11 63 CURVE SMOOTH",
"11 24 OFFCURVE",
"61 -13 OFFCURVE",
"126 -13 CURVE SMOOTH"
);
}
);
width = 360;
},
{
anchors = (
{
name = bottom;
position = "{154, 0}";
},
{
name = top;
position = "{270, 417}";
}
);
layerId = "73F3E0E0-4CEF-4E72-8F22-4B031C019FE7";
paths = (
{
closed = 1;
nodes = (
"254 -13 OFFCURVE",
"339 59 OFFCURVE",
"339 129 CURVE SMOOTH",
"339 217 OFFCURVE",
"204 247 OFFCURVE",
"204 316 CURVE SMOOTH",
"204 349 OFFCURVE",
"234 367 OFFCURVE",
"264 367 CURVE SMOOTH",
"295 367 OFFCURVE",
"314 348 OFFCURVE",
"331 319 CURVE",
"353 329 OFFCURVE",
"363 345 OFFCURVE",
"363 359 CURVE SMOOTH",
"363 391 OFFCURVE",
"304 417 OFFCURVE",
"258 417 CURVE SMOOTH",
"192 417 OFFCURVE",
"115 362 OFFCURVE",
"115 296 CURVE SMOOTH",
"115 211 OFFCURVE",
"246 187 OFFCURVE",
"246 110 CURVE SMOOTH",
"246 71 OFFCURVE",
"213 35 OFFCURVE",
"164 35 CURVE SMOOTH",
"116 35 OFFCURVE",
"84 69 OFFCURVE",
"69 121 CURVE",
"47 119 OFFCURVE",
"23 104 OFFCURVE",
"23 76 CURVE SMOOTH",
"23 32 OFFCURVE",
"82 -13 OFFCURVE",
"158 -13 CURVE SMOOTH"
);
}
);
width = 390;
}
);
note = s;
unicode = 0073;
},
{
color = 4;
glyphname = t;
lastChange = "2018-03-15 17:40:01 +0000";
layers = (
{
anchors = (
{
name = bottom;
position = "{180, 0}";
},
{
name = center;
position = "{177, 210}";
},
{
name = top;
position = "{259, 640}";
},
{
name = topright;
position = "{370, 420}";
}
);
layerId = "4C458150-A1D2-4ED7-A293-C8767657F79E";
paths = (
{
closed = 1;
nodes = (
"420 359 OFFCURVE",
"438 360 CURVE SMOOTH",
"454 361 OFFCURVE",
"455 366 OFFCURVE",
"455 375 CURVE SMOOTH",
"455 379 OFFCURVE",
"454 385 OFFCURVE",
"454 391 CURVE",
"47 393 LINE",
"39 385 OFFCURVE",
"27 360 OFFCURVE",
"22 352 CURVE",
"23 349 OFFCURVE",
"30 344 OFFCURVE",
"32 344 CURVE SMOOTH",
"34 344 OFFCURVE"
);
},
{
closed = 1;
nodes = (
"90 188 OFFCURVE",
"90 96 CURVE SMOOTH",
"90 21 OFFCURVE",
"137 -10 OFFCURVE",
"190 -10 CURVE SMOOTH",
"269 -10 OFFCURVE",
"396 57 OFFCURVE",
"449 120 CURVE SMOOTH",
"458 131 OFFCURVE",
"462 138 OFFCURVE",
"462 149 CURVE SMOOTH",
"462 156 OFFCURVE",
"460 162 OFFCURVE",
"457 166 CURVE",
"376 90 OFFCURVE",
"288 31 OFFCURVE",
"211 31 CURVE SMOOTH",
"164 31 OFFCURVE",
"142 53 OFFCURVE",
"142 99 CURVE SMOOTH",
"142 186 OFFCURVE",
"223 506 OFFCURVE",
"269 623 CURVE SMOOTH",
"282 657 OFFCURVE",
"292 670 OFFCURVE",
"317 679 CURVE",
"316 683 OFFCURVE",
"311 688 OFFCURVE",
"306 690 CURVE",
"297 690 OFFCURVE",
"248 660 OFFCURVE",
"226 643 CURVE",
"161 449 OFFCURVE"
);
}
);
width = 343;
},
{
anchors = (
{
name = bottom;
position = "{200, 0}";
},
{
name = center;
position = "{197, 210}";
},
{
name = top;
position = "{257, 640}";
},
{
name = topright;
position = "{390, 420}";
}
);
layerId = "73F3E0E0-4CEF-4E72-8F22-4B031C019FE7";
paths = (
{
closed = 1;
nodes = (
"376 369 OFFCURVE",
"392 370 CURVE SMOOTH",
"403 370 OFFCURVE",
"411 373 OFFCURVE",
"412 382 CURVE SMOOTH",
"413 389 OFFCURVE",
"411 403 OFFCURVE",
"412 411 CURVE",
"44 413 LINE",
"34 399 OFFCURVE",
"22 375 OFFCURVE",
"18 367 CURVE",
"18 364 OFFCURVE",
"24 354 OFFCURVE",
"26 354 CURVE SMOOTH",
"28 354 OFFCURVE"
);
},
{
closed = 1;
nodes = (
"85 168 OFFCURVE",
"85 97 CURVE SMOOTH",
"85 34 OFFCURVE",
"120 -10 OFFCURVE",
"186 -10 CURVE SMOOTH",
"275 -10 OFFCURVE",
"422 71 OFFCURVE",
"450 138 CURVE SMOOTH",
"452 145 OFFCURVE",
"454 152 OFFCURVE",
"454 159 CURVE SMOOTH",
"454 168 OFFCURVE",
"451 172 OFFCURVE",
"448 176 CURVE",
"376 102 OFFCURVE",
"296 51 OFFCURVE",
"235 51 CURVE SMOOTH",
"193 51 OFFCURVE",
"177 76 OFFCURVE",
"177 110 CURVE SMOOTH",
"177 176 OFFCURVE",
"236 483 OFFCURVE",
"265 613 CURVE SMOOTH",
"272 645 OFFCURVE",
"291 664 OFFCURVE",
"314 675 CURVE",
"314 680 OFFCURVE",
"305 690 OFFCURVE",
"299 690 CURVE",
"255 681 OFFCURVE",
"213 661 OFFCURVE",
"181 643 CURVE",
"130 386 OFFCURVE"
);
}
);
width = 343;
}
);
note = t;
unicode = 0074;
},
{
color = 4;
glyphname = u;
lastChange = "2018-03-15 17:40:01 +0000";
layers = (
{
anchors = (
{
name = bottom;
position = "{195, 0}";
},
{
name = ogonek;
position = "{384, 10}";
},
{
name = top;
position = "{273, 420}";
},
{
name = topright;
position = "{379, 383}";
}
);
layerId = "4C458150-A1D2-4ED7-A293-C8767657F79E";
paths = (
{
closed = 1;
nodes = (
"482 -7 OFFCURVE",
"603 173 OFFCURVE",
"603 216 CURVE",
"602 226 OFFCURVE",
"595 232 OFFCURVE",
"587 234 CURVE",
"519 110 OFFCURVE",
"427 33 OFFCURVE",
"370 33 CURVE SMOOTH",
"343 33 OFFCURVE",
"325 50 OFFCURVE",
"325 98 CURVE SMOOTH",
"325 196 OFFCURVE",
"398 359 OFFCURVE",
"398 387 CURVE SMOOTH",
"398 404 OFFCURVE",
"371 415 OFFCURVE",
"363 415 CURVE SMOOTH",
"360 415 OFFCURVE",
"354 413 OFFCURVE",
"352 404 CURVE SMOOTH",
"346 379 OFFCURVE",
"319 268 OFFCURVE",
"294 202 CURVE SMOOTH",
"247 78 OFFCURVE",
"182 43 OFFCURVE",
"161 43 CURVE SMOOTH",
"144 43 OFFCURVE",
"117 66 OFFCURVE",
"111 83 CURVE",
"113 137 OFFCURVE",
"138 235 OFFCURVE",
"178 369 CURVE SMOOTH",
"181 379 OFFCURVE",
"184 386 OFFCURVE",
"184 391 CURVE SMOOTH",
"184 403 OFFCURVE",
"158 415 OFFCURVE",
"150 415 CURVE SMOOTH",
"144 415 OFFCURVE",
"140 409 OFFCURVE",
"136 396 CURVE SMOOTH",
"77 189 OFFCURVE",
"61 131 OFFCURVE",
"62 68 CURVE",
"70 38 OFFCURVE",
"112 -2 OFFCURVE",
"153 -2 CURVE SMOOTH",
"217 -2 OFFCURVE",
"285 98 OFFCURVE",
"291 120 CURVE",
"287 125 LINE",
"280 109 OFFCURVE",
"278 89 OFFCURVE",
"278 76 CURVE SMOOTH",
"278 26 OFFCURVE",
"307 -7 OFFCURVE",
"359 -7 CURVE SMOOTH"
);
}
);
width = 472;
},
{
anchors = (
{
name = bottom;
position = "{155, 0}";
},
{
name = ogonek;
position = "{414, 10}";
},
{
name = top;
position = "{273, 420}";
},
{
name = topright;
position = "{418, 383}";
}
);
layerId = "73F3E0E0-4CEF-4E72-8F22-4B031C019FE7";
paths = (
{
closed = 1;
nodes = (
"495 -5 OFFCURVE",
"614 173 OFFCURVE",
"614 216 CURVE SMOOTH",
"614 227 OFFCURVE",
"606 232 OFFCURVE",
"598 234 CURVE",
"530 109 OFFCURVE",
"453 45 OFFCURVE",
"399 45 CURVE SMOOTH",
"367 45 OFFCURVE",
"354 67 OFFCURVE",
"354 90 CURVE SMOOTH",
"354 142 OFFCURVE",
"423 388 OFFCURVE",
"423 388 CURVE SMOOTH",
"423 403 OFFCURVE",
"364 415 OFFCURVE",
"353 415 CURVE SMOOTH",
"348 415 OFFCURVE",
"344 413 OFFCURVE",
"342 404 CURVE SMOOTH",
"334 364 OFFCURVE",
"310 250 OFFCURVE",
"296 202 CURVE SMOOTH",
"265 96 OFFCURVE",
"216 60 OFFCURVE",
"183 60 CURVE SMOOTH",
"159 60 OFFCURVE",
"142 80 OFFCURVE",
"139 97 CURVE",
"148 153 OFFCURVE",
"184 327 OFFCURVE",
"190 351 CURVE SMOOTH",
"194 367 OFFCURVE",
"199 386 OFFCURVE",
"199 390 CURVE SMOOTH",
"199 403 OFFCURVE",
"134 415 OFFCURVE",
"124 415 CURVE SMOOTH",
"120 415 OFFCURVE",
"114 412 OFFCURVE",
"111 396 CURVE SMOOTH",
"75 201 OFFCURVE",
"61 123 OFFCURVE",
"52 72 CURVE",
"57 36 OFFCURVE",
"114 -5 OFFCURVE",
"155 -5 CURVE SMOOTH",
"221 -5 OFFCURVE",
"301 100 OFFCURVE",
"310 132 CURVE",
"292 137 LINE",
"285 121 OFFCURVE",
"283 101 OFFCURVE",
"283 89 CURVE SMOOTH",
"283 33 OFFCURVE",
"327 -5 OFFCURVE",
"380 -5 CURVE SMOOTH"
);
}
);
width = 472;
}
);
note = u;
unicode = 0075;
},
{
color = 4;
glyphname = v;
lastChange = "2018-03-15 17:41:21 +0000";
layers = (
{
layerId = "4C458150-A1D2-4ED7-A293-C8767657F79E";
paths = (
{
closed = 1;
nodes = (
"347 181 OFFCURVE",
"414 233 OFFCURVE",
"414 326 CURVE SMOOTH",
"414 402 OFFCURVE",
"370 428 OFFCURVE",
"299 450 CURVE",
"289 445 LINE",
"321 425 OFFCURVE",
"358 392 OFFCURVE",
"358 337 CURVE SMOOTH",
"358 280 OFFCURVE",
"318 214 OFFCURVE",
"146 37 CURVE",
"161 34 LINE",
"165 186 OFFCURVE",
"167 204 OFFCURVE",
"167 325 CURVE SMOOTH",
"167 363 OFFCURVE",
"168 403 OFFCURVE",
"132 416 CURVE",
"99 403 OFFCURVE",
"91 394 OFFCURVE",
"24 387 CURVE",
"18 381 OFFCURVE",
"17 375 OFFCURVE",
"17 367 CURVE",
"86 366 LINE SMOOTH",
"117 366 OFFCURVE",
"113 351 OFFCURVE",
"113 284 CURVE SMOOTH",
"113 250 OFFCURVE",
"114 152 OFFCURVE",
"114 23 CURVE SMOOTH",
"114 18 OFFCURVE",
"112 8 OFFCURVE",
"110 0 CURVE",
"151 0 LINE"
);
}
);
width = 420;
},
{
layerId = "73F3E0E0-4CEF-4E72-8F22-4B031C019FE7";
paths = (
{
closed = 1;
nodes = (
"311 115 OFFCURVE",
"437 228 OFFCURVE",
"437 329 CURVE SMOOTH",
"437 384 OFFCURVE",
"399 414 OFFCURVE",
"326 437 CURVE",
"316 432 LINE",
"335 409 OFFCURVE",
"344 384 OFFCURVE",
"344 348 CURVE SMOOTH",
"344 253 OFFCURVE",
"283 158 OFFCURVE",
"193 57 CURVE",
"207 54 LINE",
"195 207 OFFCURVE",
"190 266 OFFCURVE",
"178 326 CURVE SMOOTH",
"163 400 OFFCURVE",
"151 417 OFFCURVE",
"117 426 CURVE",
"83 413 OFFCURVE",
"69 406 OFFCURVE",
"19 399 CURVE",
"14 394 OFFCURVE",
"11 379 OFFCURVE",
"11 369 CURVE",
"44 368 LINE SMOOTH",
"70 367 OFFCURVE",
"80 355 OFFCURVE",
"94 297 CURVE SMOOTH",
"105 252 OFFCURVE",
"127 141 OFFCURVE",
"136 17 CURVE",
"135 9 OFFCURVE",
"132 5 OFFCURVE",
"129 0 CURVE",
"192 0 LINE"
);
}
);
width = 440;
}
);
note = v;
unicode = 0076;
},
{
color = 4;
glyphname = w;
lastChange = "2018-03-15 17:41:21 +0000";
layers = (
{
anchors = (
{
name = bottom;
position = "{277, 0}";
},
{
name = top;
position = "{377, 420}";
}
);
layerId = "4C458150-A1D2-4ED7-A293-C8767657F79E";
paths = (
{
closed = 1;
nodes = (
"211 -7 OFFCURVE",
"279 25 OFFCURVE",
"308 124 CURVE",
"292 130 LINE",
"288 109 OFFCURVE",
"284 93 OFFCURVE",
"284 83 CURVE",
"292 58 OFFCURVE",
"318 -2 OFFCURVE",
"391 -2 CURVE SMOOTH",
"485 -2 OFFCURVE",
"557 96 OFFCURVE",
"557 224 CURVE SMOOTH",
"557 298 OFFCURVE",
"533 343 OFFCURVE",
"511 366 CURVE",
"500 361 LINE",
"516 333 OFFCURVE",
"562 271 OFFCURVE",
"661 271 CURVE SMOOTH",
"739 271 OFFCURVE",
"817 309 OFFCURVE",
"817 368 CURVE SMOOTH",
"817 378 OFFCURVE",
"815 383 OFFCURVE",
"810 385 CURVE",
"775 331 OFFCURVE",
"712 307 OFFCURVE",
"657 307 CURVE SMOOTH",
"542 307 OFFCURVE",
"512 413 OFFCURVE",
"494 413 CURVE SMOOTH",
"487 413 OFFCURVE",
"471 397 OFFCURVE",
"466 383 CURVE",
"475 357 OFFCURVE",
"511 317 OFFCURVE",
"511 223 CURVE SMOOTH",
"511 97 OFFCURVE",
"446 35 OFFCURVE",
"396 35 CURVE SMOOTH",
"353 35 OFFCURVE",
"331 79 OFFCURVE",
"327 92 CURVE",
"327 116 OFFCURVE",
"331 141 OFFCURVE",
"336 166 CURVE SMOOTH",
"348 226 OFFCURVE",
"371 288 OFFCURVE",
"371 320 CURVE SMOOTH",
"371 343 OFFCURVE",
"360 351 OFFCURVE",
"327 351 CURVE",
"316 289 OFFCURVE",
"293 186 OFFCURVE",
"286 160 CURVE SMOOTH",
"260 65 OFFCURVE",
"207 36 OFFCURVE",
"171 36 CURVE SMOOTH",
"133 36 OFFCURVE",
"117 69 OFFCURVE",
"110 98 CURVE",
"121 175 OFFCURVE",
"161 333 OFFCURVE",
"199 403 CURVE",
"195 413 OFFCURVE",
"187 415 OFFCURVE",
"179 415 CURVE SMOOTH",
"148 415 OFFCURVE",
"138 389 OFFCURVE",
"130 364 CURVE SMOOTH",
"113 310 OFFCURVE",
"74 175 OFFCURVE",
"59 92 CURVE",
"59 77 OFFCURVE",
"92 -7 OFFCURVE",
"166 -7 CURVE SMOOTH"
);
}
);
width = 660;
},
{
anchors = (
{
name = bottom;
position = "{287, 0}";
},
{
name = top;
position = "{387, 420}";
}
);
layerId = "73F3E0E0-4CEF-4E72-8F22-4B031C019FE7";
paths = (
{
closed = 1;
nodes = (
"208 -7 OFFCURVE",
"290 30 OFFCURVE",
"317 124 CURVE",
"302 130 LINE",
"298 109 OFFCURVE",
"294 93 OFFCURVE",
"293 83 CURVE",
"302 56 OFFCURVE",
"327 -2 OFFCURVE",
"402 -2 CURVE SMOOTH",
"502 -2 OFFCURVE",
"589 103 OFFCURVE",
"589 230 CURVE SMOOTH",
"589 294 OFFCURVE",
"567 343 OFFCURVE",
"534 378 CURVE",
"522 368 LINE",
"546 329 OFFCURVE",
"582 262 OFFCURVE",
"679 262 CURVE SMOOTH",
"756 262 OFFCURVE",
"844 304 OFFCURVE",
"844 367 CURVE SMOOTH",
"844 377 OFFCURVE",
"842 383 OFFCURVE",
"836 385 CURVE",
"796 328 OFFCURVE",
"724 317 OFFCURVE",
"687 317 CURVE SMOOTH",
"574 317 OFFCURVE",
"558 420 OFFCURVE",
"531 420 CURVE SMOOTH",
"521 420 OFFCURVE",
"476 406 OFFCURVE",
"470 382 CURVE",
"494 331 OFFCURVE",
"506 303 OFFCURVE",
"506 253 CURVE SMOOTH",
"506 166 OFFCURVE",
"470 45 OFFCURVE",
"403 45 CURVE SMOOTH",
"380 45 OFFCURVE",
"367 59 OFFCURVE",
"356 92 CURVE",
"356 111 OFFCURVE",
"362 152 OFFCURVE",
"366 172 CURVE SMOOTH",
"377 228 OFFCURVE",
"399 298 OFFCURVE",
"401 314 CURVE SMOOTH",
"405 345 OFFCURVE",
"357 351 OFFCURVE",
"316 351 CURVE",
"305 292 OFFCURVE",
"291 218 OFFCURVE",
"278 170 CURVE SMOOTH",
"255 84 OFFCURVE",
"224 46 OFFCURVE",
"181 46 CURVE SMOOTH",
"146 46 OFFCURVE",
"138 71 OFFCURVE",
"139 108 CURVE",
"149 185 OFFCURVE",
"193 332 OFFCURVE",
"223 411 CURVE",
"215 415 OFFCURVE",
"201 420 OFFCURVE",
"184 420 CURVE SMOOTH",
"153 420 OFFCURVE",
"131 403 OFFCURVE",
"121 369 CURVE SMOOTH",
"104 311 OFFCURVE",
"68 194 OFFCURVE",
"51 102 CURVE",
"51 49 OFFCURVE",
"101 -7 OFFCURVE",
"160 -7 CURVE SMOOTH"
);
}
);
width = 680;
}
);
note = w;
unicode = 0077;
},
{
color = 4;
glyphname = x;
lastChange = "2018-03-15 17:44:42 +0000";
layers = (
{
layerId = "4C458150-A1D2-4ED7-A293-C8767657F79E";
paths = (
{
closed = 1;
nodes = (
"-11 -21 OFFCURVE",
"190 236 OFFCURVE",
"404 366 CURVE",
"409 377 OFFCURVE",
"415 412 OFFCURVE",
"399 412 CURVE SMOOTH",
"375 412 OFFCURVE",
"343 392 OFFCURVE",
"301 357 CURVE SMOOTH",
"160 239 OFFCURVE",
"-5 18 OFFCURVE",
"-66 -88 CURVE SMOOTH",
"-81 -114 OFFCURVE",
"-90 -134 OFFCURVE",
"-90 -151 CURVE SMOOTH",
"-90 -175 OFFCURVE",
"-71 -191 OFFCURVE",
"-35 -214 CURVE"
);
},
{
closed = 1;
nodes = (
"404 -7 OFFCURVE",
"498 70 OFFCURVE",
"498 119 CURVE SMOOTH",
"498 129 OFFCURVE",
"494 140 OFFCURVE",
"487 144 CURVE",
"452 72 OFFCURVE",
"380 35 OFFCURVE",
"325 35 CURVE SMOOTH",
"218 35 OFFCURVE",
"159 173 OFFCURVE",
"159 303 CURVE SMOOTH",
"159 348 OFFCURVE",
"166 369 OFFCURVE",
"178 401 CURVE SMOOTH",
"180 405 OFFCURVE",
"176 411 OFFCURVE",
"170 411 CURVE",
"159 400 OFFCURVE",
"151 403 OFFCURVE",
"141 395 CURVE SMOOTH",
"124 380 OFFCURVE",
"120 314 OFFCURVE",
"120 266 CURVE SMOOTH",
"120 138 OFFCURVE",
"183 -7 OFFCURVE",
"311 -7 CURVE SMOOTH"
);
}
);
width = 375;
},
{
layerId = "73F3E0E0-4CEF-4E72-8F22-4B031C019FE7";
paths = (
{
closed = 1;
nodes = (
"66 -1 OFFCURVE",
"251 222 OFFCURVE",
"453 351 CURVE",
"455 354 OFFCURVE",
"444 412 OFFCURVE",
"425 412 CURVE SMOOTH",
"412 412 OFFCURVE",
"374 385 OFFCURVE",
"331 347 CURVE SMOOTH",
"202 233 OFFCURVE",
"30 27 OFFCURVE",
"-39 -94 CURVE SMOOTH",
"-60 -131 OFFCURVE",
"-63 -145 OFFCURVE",
"-63 -154 CURVE SMOOTH",
"-63 -182 OFFCURVE",
"-33 -216 OFFCURVE",
"-5 -234 CURVE"
);
},
{
closed = 1;
nodes = (
"415 -7 OFFCURVE",
"551 55 OFFCURVE",
"551 129 CURVE SMOOTH",
"551 150 OFFCURVE",
"540 159 OFFCURVE",
"532 164 CURVE",
"484 88 OFFCURVE",
"402 55 OFFCURVE",
"338 55 CURVE SMOOTH",
"216 55 OFFCURVE",
"179 175 OFFCURVE",
"179 275 CURVE SMOOTH",
"179 327 OFFCURVE",
"189 364 OFFCURVE",
"200 401 CURVE SMOOTH",
"202 408 OFFCURVE",
"196 411 OFFCURVE",
"192 411 CURVE",
"183 402 OFFCURVE",
"141 394 OFFCURVE",
"128 386 CURVE SMOOTH",
"108 373 OFFCURVE",
"101 317 OFFCURVE",
"101 275 CURVE SMOOTH",
"101 141 OFFCURVE",
"172 -7 OFFCURVE",
"320 -7 CURVE SMOOTH"
);
}
);
width = 415;
}
);
note = x;
unicode = 0078;
},
{
color = 4;
glyphname = y;
lastChange = "2018-03-15 17:44:42 +0000";
layers = (
{
anchors = (
{
name = bottom;
position = "{-170, -513}";
},
{
name = top;
position = "{294, 420}";
}
);
layerId = "4C458150-A1D2-4ED7-A293-C8767657F79E";
paths = (
{
closed = 1;
nodes = (
"145 -513 OFFCURVE",
"255 -193 OFFCURVE",
"343 85 CURVE SMOOTH",
"396 253 OFFCURVE",
"404 300 OFFCURVE",
"429 384 CURVE",
"424 403 OFFCURVE",
"395 418 OFFCURVE",
"379 418 CURVE",
"359 328 OFFCURVE",
"341 226 OFFCURVE",
"301 127 CURVE",
"281 100 OFFCURVE",
"202 48 OFFCURVE",
"171 48 CURVE SMOOTH",
"151 48 OFFCURVE",
"131 69 OFFCURVE",
"131 89 CURVE",
"142 137 OFFCURVE",
"172 263 OFFCURVE",
"207 409 CURVE",
"199 412 OFFCURVE",
"192 414 OFFCURVE",
"181 414 CURVE SMOOTH",
"162 414 OFFCURVE",
"153 408 OFFCURVE",
"148 386 CURVE SMOOTH",
"100 178 OFFCURVE",
"105 201 OFFCURVE",
"78 77 CURVE",
"78 44 OFFCURVE",
"116 0 OFFCURVE",
"155 0 CURVE SMOOTH",
"197 0 OFFCURVE",
"276 49 OFFCURVE",
"310 88 CURVE",
"293 88 LINE",
"200 -260 OFFCURVE",
"76 -450 OFFCURVE",
"-161 -450 CURVE SMOOTH",
"-280 -450 OFFCURVE",
"-341 -402 OFFCURVE",
"-380 -322 CURVE",
"-384 -336 OFFCURVE",
"-388 -337 OFFCURVE",
"-388 -357 CURVE SMOOTH",
"-388 -436 OFFCURVE",
"-324 -513 OFFCURVE",
"-170 -513 CURVE SMOOTH"
);
}
);
width = 454;
},
{
anchors = (
{
name = bottom;
position = "{-141, -513}";
},
{
name = top;
position = "{282, 420}";
}
);
layerId = "73F3E0E0-4CEF-4E72-8F22-4B031C019FE7";
paths = (
{
closed = 1;
nodes = (
"173 -513 OFFCURVE",
"306 -186 OFFCURVE",
"367 45 CURVE SMOOTH",
"392 139 OFFCURVE",
"428 301 OFFCURVE",
"447 395 CURVE",
"442 414 OFFCURVE",
"371 418 OFFCURVE",
"355 418 CURVE",
"340 328 OFFCURVE",
"317 203 OFFCURVE",
"302 117 CURVE",
"282 90 OFFCURVE",
"231 55 OFFCURVE",
"202 55 CURVE SMOOTH",
"180 55 OFFCURVE",
"158 76 OFFCURVE",
"160 106 CURVE",
"171 154 OFFCURVE",
"186 265 OFFCURVE",
"218 411 CURVE",
"209 414 OFFCURVE",
"173 416 OFFCURVE",
"162 416 CURVE SMOOTH",
"143 416 OFFCURVE",
"125 410 OFFCURVE",
"120 388 CURVE SMOOTH",
"93 269 OFFCURVE",
"79 151 OFFCURVE",
"66 87 CURVE",
"65 41 OFFCURVE",
"137 0 OFFCURVE",
"175 0 CURVE SMOOTH",
"216 0 OFFCURVE",
"297 49 OFFCURVE",
"331 88 CURVE",
"297 88 LINE",
"198 -305 OFFCURVE",
"78 -420 OFFCURVE",
"-93 -420 CURVE SMOOTH",
"-196 -420 OFFCURVE",
"-270 -378 OFFCURVE",
"-306 -332 CURVE",
"-317 -346 OFFCURVE",
"-327 -366 OFFCURVE",
"-327 -393 CURVE SMOOTH",
"-327 -454 OFFCURVE",
"-275 -513 OFFCURVE",
"-141 -513 CURVE SMOOTH"
);
}
);
width = 474;
}
);
note = y;
unicode = 0079;
},
{
color = 4;
glyphname = z;
lastChange = "2018-03-15 17:44:42 +0000";
layers = (
{
anchors = (
{
name = bottom;
position = "{190, 0}";
},
{
name = top;
position = "{277, 420}";
}
);
layerId = "4C458150-A1D2-4ED7-A293-C8767657F79E";
paths = (
{
closed = 1;
nodes = (
"977 -271 OFFCURVE",
"1067 -201 OFFCURVE",
"1067 -117 CURVE SMOOTH",
"1067 -84 OFFCURVE",
"1053 -56 OFFCURVE",
"1032 -56 CURVE",
"999 -162 OFFCURVE",
"932 -227 OFFCURVE",
"812 -227 CURVE SMOOTH",
"633 -227 OFFCURVE",
"349 -82 OFFCURVE",
"107 79 CURVE",
"114 58 LINE",
"173 102 OFFCURVE",
"337 274 OFFCURVE",
"389 349 CURVE SMOOTH",
"399 363 OFFCURVE",
"403 373 OFFCURVE",
"403 382 CURVE SMOOTH",
"403 398 OFFCURVE",
"391 408 OFFCURVE",
"370 408 CURVE",
"325 358 OFFCURVE",
"270 327 OFFCURVE",
"216 327 CURVE SMOOTH",
"169 327 OFFCURVE",
"161 350 OFFCURVE",
"161 371 CURVE SMOOTH",
"161 392 OFFCURVE",
"169 409 OFFCURVE",
"176 417 CURVE",
"175 423 OFFCURVE",
"165 426 OFFCURVE",
"156 426 CURVE SMOOTH",
"124 426 OFFCURVE",
"106 392 OFFCURVE",
"106 361 CURVE SMOOTH",
"106 315 OFFCURVE",
"144 286 OFFCURVE",
"201 286 CURVE SMOOTH",
"248 286 OFFCURVE",
"303 305 OFFCURVE",
"325 320 CURVE",
"313 322 LINE",
"217 207 OFFCURVE",
"135 126 OFFCURVE",
"8 27 CURVE",
"8 19 OFFCURVE",
"34 -9 OFFCURVE",
"43 -9 CURVE",
"67 18 OFFCURVE",
"79 28 OFFCURVE",
"100 28 CURVE SMOOTH",
"111 28 OFFCURVE",
"121 25 OFFCURVE",
"138 15 CURVE SMOOTH",
"349 -109 OFFCURVE",
"586 -271 OFFCURVE",
"822 -271 CURVE SMOOTH"
);
}
);
width = 450;
},
{
anchors = (
{
name = bottom;
position = "{192, 0}";
},
{
name = top;
position = "{279, 420}";
}
);
layerId = "73F3E0E0-4CEF-4E72-8F22-4B031C019FE7";
paths = (
{
closed = 1;
nodes = (
"983 -286 OFFCURVE",
"1107 -227 OFFCURVE",
"1107 -130 CURVE SMOOTH",
"1107 -95 OFFCURVE",
"1091 -71 OFFCURVE",
"1062 -71 CURVE",
"1032 -157 OFFCURVE",
"974 -212 OFFCURVE",
"860 -212 CURVE SMOOTH",
"675 -212 OFFCURVE",
"441 -68 OFFCURVE",
"198 93 CURVE",
"199 70 LINE",
"292 153 OFFCURVE",
"373 247 OFFCURVE",
"450 345 CURVE SMOOTH",
"459 356 OFFCURVE",
"464 366 OFFCURVE",
"464 374 CURVE SMOOTH",
"464 395 OFFCURVE",
"433 414 OFFCURVE",
"413 414 CURVE",
"370 364 OFFCURVE",
"319 322 OFFCURVE",
"259 322 CURVE SMOOTH",
"219 322 OFFCURVE",
"208 341 OFFCURVE",
"208 362 CURVE SMOOTH",
"208 378 OFFCURVE",
"214 397 OFFCURVE",
"222 409 CURVE",
"214 415 OFFCURVE",
"200 421 OFFCURVE",
"181 421 CURVE SMOOTH",
"144 421 OFFCURVE",
"113 399 OFFCURVE",
"113 356 CURVE SMOOTH",
"113 312 OFFCURVE",
"144 271 OFFCURVE",
"217 271 CURVE SMOOTH",
"286 271 OFFCURVE",
"345 307 OFFCURVE",
"374 338 CURVE",
"366 343 LINE",
"273 224 OFFCURVE",
"188 140 OFFCURVE",
"39 22 CURVE",
"39 14 OFFCURVE",
"79 -9 OFFCURVE",
"98 -9 CURVE",
"122 12 OFFCURVE",
"136 24 OFFCURVE",
"155 24 CURVE SMOOTH",
"171 24 OFFCURVE",
"188 15 OFFCURVE",
"205 5 CURVE SMOOTH",
"404 -111 OFFCURVE",
"629 -286 OFFCURVE",
"853 -286 CURVE SMOOTH"
);
}
);
width = 470;
}
);
note = z;
unicode = 007A;
},
{
color = 4;
glyphname = AE;
lastChange = "2018-03-15 18:33:20 +0000";
layers = (
{
anchors = (
{
name = bottom;
position = "{546, 0}";
},
{
name = top;
position = "{799, 700}";
}
);
layerId = "4C458150-A1D2-4ED7-A293-C8767657F79E";
paths = (
{
closed = 1;
nodes = (
"-12 -101 OFFCURVE",
"-5 -98 OFFCURVE",
"0 -93 CURVE",
"-11 -73 OFFCURVE",
"-8 -40 OFFCURVE",
"12 -16 CURVE SMOOTH",
"72 57 OFFCURVE",
"575 542 OFFCURVE",
"708 661 CURVE",
"690 661 LINE",
"675 580 OFFCURVE",
"686 639 OFFCURVE",
"650 436 CURVE SMOOTH",
"629 318 OFFCURVE",
"587 104 OFFCURVE",
"587 64 CURVE SMOOTH",
"587 30 OFFCURVE",
"619 -13 OFFCURVE",
"782 -13 CURVE SMOOTH",
"856 -13 OFFCURVE",
"948 -4 OFFCURVE",
"1028 12 CURVE SMOOTH",
"1053 17 OFFCURVE",
"1072 23 OFFCURVE",
"1074 40 CURVE SMOOTH",
"1075 49 OFFCURVE",
"1074 77 OFFCURVE",
"1096 98 CURVE",
"1096 103 OFFCURVE",
"1095 106 OFFCURVE",
"1093 105 CURVE SMOOTH",
"1009 64 OFFCURVE",
"931 27 OFFCURVE",
"774 27 CURVE SMOOTH",
"692 27 OFFCURVE",
"645 37 OFFCURVE",
"645 98 CURVE SMOOTH",
"645 148 OFFCURVE",
"677 303 OFFCURVE",
"695 403 CURVE SMOOTH",
"705 457 OFFCURVE",
"735 633 OFFCURVE",
"736 637 CURVE SMOOTH",
"739 652 OFFCURVE",
"745 656 OFFCURVE",
"756 656 CURVE SMOOTH",
"918 656 OFFCURVE",
"1080 656 OFFCURVE",
"1117 652 CURVE SMOOTH",
"1132 650 OFFCURVE",
"1133 646 OFFCURVE",
"1133 625 CURVE",
"1144 624 LINE",
"1154 645 OFFCURVE",
"1172 684 OFFCURVE",
"1174 694 CURVE SMOOTH",
"1175 700 OFFCURVE",
"1172 704 OFFCURVE",
"1165 704 CURVE SMOOTH",
"1080 704 OFFCURVE",
"835 699 OFFCURVE",
"759 699 CURVE SMOOTH",
"751 699 OFFCURVE",
"742 705 OFFCURVE",
"733 716 CURVE",
"715 716 OFFCURVE",
"704 711 OFFCURVE",
"689 700 CURVE SMOOTH",
"615 644 OFFCURVE",
"92 144 OFFCURVE",
"0 60 CURVE SMOOTH",
"-27 35 OFFCURVE",
"-66 2 OFFCURVE",
"-66 -25 CURVE SMOOTH",
"-66 -46 OFFCURVE",
"-41 -76 OFFCURVE",
"-16 -103 CURVE"
);
},
{
closed = 1;
nodes = (
"329 330 OFFCURVE",
"474 330 OFFCURVE",
"666 330 CURVE SMOOTH",
"824 330 OFFCURVE",
"984 329 OFFCURVE",
"1016 329 CURVE SMOOTH",
"1024 329 OFFCURVE",
"1027 332 OFFCURVE",
"1030 336 CURVE",
"1032 352 OFFCURVE",
"1037 370 OFFCURVE",
"1047 380 CURVE",
"1042 385 LINE",
"998 372 OFFCURVE",
"827 369 OFFCURVE",
"663 369 CURVE SMOOTH",
"530 369 OFFCURVE",
"402 371 OFFCURVE",
"361 374 CURVE",
"320 329 LINE"
);
}
);
width = 1165;
},
{
anchors = (
{
name = bottom;
position = "{546, 0}";
},
{
name = top;
position = "{809, 700}";
}
);
layerId = "73F3E0E0-4CEF-4E72-8F22-4B031C019FE7";
paths = (
{
closed = 1;
nodes = (
"19 -112 OFFCURVE",
"27 -107 OFFCURVE",
"32 -99 CURVE",
"31 -72 OFFCURVE",
"33 -51 OFFCURVE",
"50 -22 CURVE SMOOTH",
"129 114 OFFCURVE",
"552 499 OFFCURVE",
"678 601 CURVE",
"660 601 LINE",
"646 525 OFFCURVE",
"635 459 OFFCURVE",
"625 403 CURVE SMOOTH",
"595 235 OFFCURVE",
"579 145 OFFCURVE",
"569 63 CURVE SMOOTH",
"563 20 OFFCURVE",
"606 -13 OFFCURVE",
"763 -13 CURVE SMOOTH",
"841 -13 OFFCURVE",
"955 -5 OFFCURVE",
"1029 12 CURVE SMOOTH",
"1051 17 OFFCURVE",
"1066 23 OFFCURVE",
"1075 43 CURVE SMOOTH",
"1084 62 OFFCURVE",
"1098 116 OFFCURVE",
"1112 128 CURVE",
"1111 133 OFFCURVE",
"1106 136 OFFCURVE",
"1102 136 CURVE",
"1005 61 OFFCURVE",
"855 37 OFFCURVE",
"764 37 CURVE SMOOTH",
"695 37 OFFCURVE",
"666 51 OFFCURVE",
"666 85 CURVE SMOOTH",
"666 104 OFFCURVE",
"680 197 OFFCURVE",
"709 364 CURVE SMOOTH",
"724 448 OFFCURVE",
"738 529 OFFCURVE",
"755 627 CURVE SMOOTH",
"758 642 OFFCURVE",
"761 646 OFFCURVE",
"780 646 CURVE SMOOTH",
"817 646 OFFCURVE",
"1027 630 OFFCURVE",
"1104 624 CURVE SMOOTH",
"1120 623 OFFCURVE",
"1125 615 OFFCURVE",
"1123 592 CURVE",
"1136 591 LINE",
"1145 612 OFFCURVE",
"1173 683 OFFCURVE",
"1175 694 CURVE SMOOTH",
"1176 700 OFFCURVE",
"1173 704 OFFCURVE",
"1166 704 CURVE SMOOTH",
"1087 704 OFFCURVE",
"846 699 OFFCURVE",
"791 699 CURVE SMOOTH",
"766 699 OFFCURVE",
"752 700 OFFCURVE",
"738 716 CURVE",
"720 716 OFFCURVE",
"708 711 OFFCURVE",
"687 697 CURVE SMOOTH",
"599 638 OFFCURVE",
"371 419 OFFCURVE",
"0 60 CURVE SMOOTH",
"-36 25 OFFCURVE",
"-72 -8 OFFCURVE",
"-72 -31 CURVE SMOOTH",
"-72 -51 OFFCURVE",
"-20 -97 OFFCURVE",
"16 -109 CURVE"
);
},
{
closed = 1;
nodes = (
"363 319 OFFCURVE",
"611 316 OFFCURVE",
"681 314 CURVE SMOOTH",
"825 312 OFFCURVE",
"961 309 OFFCURVE",
"982 309 CURVE SMOOTH",
"1005 309 OFFCURVE",
"1007 312 OFFCURVE",
"1012 320 CURVE",
"1016 341 OFFCURVE",
"1029 363 OFFCURVE",
"1048 380 CURVE",
"1042 385 LINE",
"998 372 OFFCURVE",
"827 369 OFFCURVE",
"663 369 CURVE SMOOTH",
"530 369 OFFCURVE",
"402 371 OFFCURVE",
"362 374 CURVE",
"319 319 LINE"
);
}
);
width = 1165;
}
);
note = AE;
unicode = 00C6;
},
{
color = 4;
glyphname = Eacute;
lastChange = "2018-03-15 18:33:20 +0000";
layers = (
{
background = {
paths = (
{
closed = 1;
nodes = (
"554 0 LINE",
"571 179 LINE",
"544 179 LINE",
"538 124 OFFCURVE",
"520 40 OFFCURVE",
"456 40 CURVE SMOOTH",
"201 40 LINE",
"201 659 LINE",
"441 659 LINE SMOOTH",
"516 659 OFFCURVE",
"525 567 OFFCURVE",
"528 527 CURVE",
"555 527 LINE",
"555 700 LINE",
"16 700 LINE",
"16 673 LINE",
"44 673 LINE SMOOTH",
"83 673 OFFCURVE",
"103 662 OFFCURVE",
"103 637 CURVE SMOOTH",
"103 62 LINE SMOOTH",
"103 37 OFFCURVE",
"83 26 OFFCURVE",
"44 26 CURVE SMOOTH",
"16 26 LINE",
"16 0 LINE"
);
},
{
closed = 1;
nodes = (
"455 251 LINE",
"455 485 LINE",
"431 485 LINE",
"427 436 OFFCURVE",
"424 388 OFFCURVE",
"379 388 CURVE SMOOTH",
"162 388 LINE",
"162 348 LINE",
"379 348 LINE SMOOTH",
"424 348 OFFCURVE",
"427 300 OFFCURVE",
"431 251 CURVE"
);
},
{
closed = 1;
nodes = (
"398 865 LINE SMOOTH",
"420 877 OFFCURVE",
"432 890 OFFCURVE",
"432 907 CURVE SMOOTH",
"432 922 OFFCURVE",
"420 937 OFFCURVE",
"398 937 CURVE SMOOTH",
"377 937 OFFCURVE",
"362 921 OFFCURVE",
"354 914 CURVE SMOOTH",
"239 807 LINE",
"256 782 LINE"
);
}
);
};
components = (
{
name = E;
},
{
name = acutecomb;
transform = "{1, 0, 0, 1, 447, 280}";
}
);
layerId = "4C458150-A1D2-4ED7-A293-C8767657F79E";
width = 712;
},
{
background = {
paths = (
{
closed = 1;
nodes = (
"554 0 LINE",
"571 179 LINE",
"544 179 LINE",
"538 124 OFFCURVE",
"520 40 OFFCURVE",
"456 40 CURVE SMOOTH",
"201 40 LINE",
"201 659 LINE",
"441 659 LINE SMOOTH",
"516 659 OFFCURVE",
"525 567 OFFCURVE",
"528 527 CURVE",
"555 527 LINE",
"555 700 LINE",
"16 700 LINE",
"16 673 LINE",
"44 673 LINE SMOOTH",
"83 673 OFFCURVE",
"103 662 OFFCURVE",
"103 637 CURVE SMOOTH",
"103 62 LINE SMOOTH",
"103 37 OFFCURVE",
"83 26 OFFCURVE",
"44 26 CURVE SMOOTH",
"16 26 LINE",
"16 0 LINE"
);
},
{
closed = 1;
nodes = (
"455 251 LINE",
"455 485 LINE",
"431 485 LINE",
"427 436 OFFCURVE",
"424 388 OFFCURVE",
"379 388 CURVE SMOOTH",
"162 388 LINE",
"162 348 LINE",
"379 348 LINE SMOOTH",
"424 348 OFFCURVE",
"427 300 OFFCURVE",
"431 251 CURVE"
);
},
{
closed = 1;
nodes = (
"398 865 LINE SMOOTH",
"420 877 OFFCURVE",
"432 890 OFFCURVE",
"432 907 CURVE SMOOTH",
"432 922 OFFCURVE",
"420 937 OFFCURVE",
"398 937 CURVE SMOOTH",
"377 937 OFFCURVE",
"362 921 OFFCURVE",
"354 914 CURVE SMOOTH",
"239 807 LINE",
"256 782 LINE"
);
}
);
};
components = (
{
name = E;
},
{
name = acutecomb;
transform = "{1, 0, 0, 1, 429, 260}";
}
);
layerId = "73F3E0E0-4CEF-4E72-8F22-4B031C019FE7";
width = 712;
}
);
note = Eacute;
unicode = 00C9;
},
{
color = 4;
glyphname = Ebreve;
lastChange = "2018-03-15 18:33:20 +0000";
layers = (
{
background = {
paths = (
{
closed = 1;
nodes = (
"554 0 LINE",
"571 179 LINE",
"544 179 LINE",
"538 124 OFFCURVE",
"520 40 OFFCURVE",
"456 40 CURVE SMOOTH",
"201 40 LINE",
"201 659 LINE",
"441 659 LINE SMOOTH",
"516 659 OFFCURVE",
"525 567 OFFCURVE",
"528 527 CURVE",
"555 527 LINE",
"555 700 LINE",
"16 700 LINE",
"16 673 LINE",
"44 673 LINE SMOOTH",
"83 673 OFFCURVE",
"103 662 OFFCURVE",
"103 637 CURVE SMOOTH",
"103 62 LINE SMOOTH",
"103 37 OFFCURVE",
"83 26 OFFCURVE",
"44 26 CURVE SMOOTH",
"16 26 LINE",
"16 0 LINE"
);
},
{
closed = 1;
nodes = (
"455 251 LINE",
"455 485 LINE",
"431 485 LINE",
"427 436 OFFCURVE",
"424 388 OFFCURVE",
"379 388 CURVE SMOOTH",
"162 388 LINE",
"162 348 LINE",
"379 348 LINE SMOOTH",
"424 348 OFFCURVE",
"427 300 OFFCURVE",
"431 251 CURVE"
);
},
{
closed = 1;
nodes = (
"432 776 OFFCURVE",
"474 832 OFFCURVE",
"478 907 CURVE",
"445 907 LINE",
"439 848 OFFCURVE",
"397 822 OFFCURVE",
"333 822 CURVE SMOOTH",
"269 822 OFFCURVE",
"226 848 OFFCURVE",
"219 907 CURVE",
"186 907 LINE",
"190 829 OFFCURVE",
"232 776 OFFCURVE",
"333 776 CURVE SMOOTH"
);
}
);
};
components = (
{
name = E;
},
{
name = brevecomb;
transform = "{1, 0, 0, 1, 448, 280}";
}
);
layerId = "4C458150-A1D2-4ED7-A293-C8767657F79E";
width = 712;
},
{
background = {
paths = (
{
closed = 1;
nodes = (
"554 0 LINE",
"571 179 LINE",
"544 179 LINE",
"538 124 OFFCURVE",
"520 40 OFFCURVE",
"456 40 CURVE SMOOTH",
"201 40 LINE",
"201 659 LINE",
"441 659 LINE SMOOTH",
"516 659 OFFCURVE",
"525 567 OFFCURVE",
"528 527 CURVE",
"555 527 LINE",
"555 700 LINE",
"16 700 LINE",
"16 673 LINE",
"44 673 LINE SMOOTH",
"83 673 OFFCURVE",
"103 662 OFFCURVE",
"103 637 CURVE SMOOTH",
"103 62 LINE SMOOTH",
"103 37 OFFCURVE",
"83 26 OFFCURVE",
"44 26 CURVE SMOOTH",
"16 26 LINE",
"16 0 LINE"
);
},
{
closed = 1;
nodes = (
"455 251 LINE",
"455 485 LINE",
"431 485 LINE",
"427 436 OFFCURVE",
"424 388 OFFCURVE",
"379 388 CURVE SMOOTH",
"162 388 LINE",
"162 348 LINE",
"379 348 LINE SMOOTH",
"424 348 OFFCURVE",
"427 300 OFFCURVE",
"431 251 CURVE"
);
},
{
closed = 1;
nodes = (
"432 776 OFFCURVE",
"474 832 OFFCURVE",
"478 907 CURVE",
"445 907 LINE",
"439 848 OFFCURVE",
"397 822 OFFCURVE",
"333 822 CURVE SMOOTH",
"269 822 OFFCURVE",
"226 848 OFFCURVE",
"219 907 CURVE",
"186 907 LINE",
"190 829 OFFCURVE",
"232 776 OFFCURVE",
"333 776 CURVE SMOOTH"
);
}
);
};
components = (
{
name = E;
},
{
name = brevecomb;
transform = "{1, 0, 0, 1, 429, 260}";
}
);
layerId = "73F3E0E0-4CEF-4E72-8F22-4B031C019FE7";
width = 712;
}
);
note = Ebreve;
unicode = 0114;
},
{
color = 4;
glyphname = Ecaron;
lastChange = "2018-03-15 18:33:20 +0000";
layers = (
{
background = {
paths = (
{
closed = 1;
nodes = (
"554 0 LINE",
"571 179 LINE",
"544 179 LINE",
"538 124 OFFCURVE",
"520 40 OFFCURVE",
"456 40 CURVE SMOOTH",
"201 40 LINE",
"201 659 LINE",
"441 659 LINE SMOOTH",
"516 659 OFFCURVE",
"525 567 OFFCURVE",
"528 527 CURVE",
"555 527 LINE",
"555 700 LINE",
"16 700 LINE",
"16 673 LINE",
"44 673 LINE SMOOTH",
"83 673 OFFCURVE",
"103 662 OFFCURVE",
"103 637 CURVE SMOOTH",
"103 62 LINE SMOOTH",
"103 37 OFFCURVE",
"83 26 OFFCURVE",
"44 26 CURVE SMOOTH",
"16 26 LINE",
"16 0 LINE"
);
},
{
closed = 1;
nodes = (
"455 251 LINE",
"455 485 LINE",
"431 485 LINE",
"427 436 OFFCURVE",
"424 388 OFFCURVE",
"379 388 CURVE SMOOTH",
"162 388 LINE",
"162 348 LINE",
"379 348 LINE SMOOTH",
"424 348 OFFCURVE",
"427 300 OFFCURVE",
"431 251 CURVE"
);
},
{
closed = 1;
nodes = (
"357 782 LINE",
"481 911 LINE",
"462 932 LINE",
"354 847 LINE",
"346 840 OFFCURVE",
"337 836 OFFCURVE",
"331 836 CURVE SMOOTH",
"325 836 OFFCURVE",
"317 840 OFFCURVE",
"307 847 CURVE",
"199 932 LINE",
"180 911 LINE",
"304 782 LINE"
);
}
);
};
components = (
{
name = E;
},
{
name = caroncomb;
transform = "{1, 0, 0, 1, 449, 280}";
}
);
layerId = "4C458150-A1D2-4ED7-A293-C8767657F79E";
width = 712;
},
{
background = {
paths = (
{
closed = 1;
nodes = (
"554 0 LINE",
"571 179 LINE",
"544 179 LINE",
"538 124 OFFCURVE",
"520 40 OFFCURVE",
"456 40 CURVE SMOOTH",
"201 40 LINE",
"201 659 LINE",
"441 659 LINE SMOOTH",
"516 659 OFFCURVE",
"525 567 OFFCURVE",
"528 527 CURVE",
"555 527 LINE",
"555 700 LINE",
"16 700 LINE",
"16 673 LINE",
"44 673 LINE SMOOTH",
"83 673 OFFCURVE",
"103 662 OFFCURVE",
"103 637 CURVE SMOOTH",
"103 62 LINE SMOOTH",
"103 37 OFFCURVE",
"83 26 OFFCURVE",
"44 26 CURVE SMOOTH",
"16 26 LINE",
"16 0 LINE"
);
},
{
closed = 1;
nodes = (
"455 251 LINE",
"455 485 LINE",
"431 485 LINE",
"427 436 OFFCURVE",
"424 388 OFFCURVE",
"379 388 CURVE SMOOTH",
"162 388 LINE",
"162 348 LINE",
"379 348 LINE SMOOTH",
"424 348 OFFCURVE",
"427 300 OFFCURVE",
"431 251 CURVE"
);
},
{
closed = 1;
nodes = (
"357 782 LINE",
"481 911 LINE",
"462 932 LINE",
"354 847 LINE",
"346 840 OFFCURVE",
"337 836 OFFCURVE",
"331 836 CURVE SMOOTH",
"325 836 OFFCURVE",
"317 840 OFFCURVE",
"307 847 CURVE",
"199 932 LINE",
"180 911 LINE",
"304 782 LINE"
);
}
);
};
components = (
{
name = E;
},
{
name = caroncomb;
transform = "{1, 0, 0, 1, 429, 260}";
}
);
layerId = "73F3E0E0-4CEF-4E72-8F22-4B031C019FE7";
width = 712;
}
);
note = Ecaron;
unicode = 011A;
},
{
color = 4;
glyphname = Ecircumflex;
lastChange = "2018-03-15 18:33:20 +0000";
layers = (
{
background = {
paths = (
{
closed = 1;
nodes = (
"554 0 LINE",
"571 179 LINE",
"544 179 LINE",
"538 124 OFFCURVE",
"520 40 OFFCURVE",
"456 40 CURVE SMOOTH",
"201 40 LINE",
"201 659 LINE",
"441 659 LINE SMOOTH",
"516 659 OFFCURVE",
"525 567 OFFCURVE",
"528 527 CURVE",
"555 527 LINE",
"555 700 LINE",
"16 700 LINE",
"16 673 LINE",
"44 673 LINE SMOOTH",
"83 673 OFFCURVE",
"103 662 OFFCURVE",
"103 637 CURVE SMOOTH",
"103 62 LINE SMOOTH",
"103 37 OFFCURVE",
"83 26 OFFCURVE",
"44 26 CURVE SMOOTH",
"16 26 LINE",
"16 0 LINE"
);
},
{
closed = 1;
nodes = (
"455 251 LINE",
"455 485 LINE",
"431 485 LINE",
"427 436 OFFCURVE",
"424 388 OFFCURVE",
"379 388 CURVE SMOOTH",
"162 388 LINE",
"162 348 LINE",
"379 348 LINE SMOOTH",
"424 348 OFFCURVE",
"427 300 OFFCURVE",
"431 251 CURVE"
);
},
{
closed = 1;
nodes = (
"304 868 LINE SMOOTH",
"312 874 OFFCURVE",
"322 879 OFFCURVE",
"328 879 CURVE SMOOTH",
"334 879 OFFCURVE",
"342 874 OFFCURVE",
"351 868 CURVE",
"459 782 LINE",
"478 803 LINE",
"354 932 LINE",
"301 932 LINE",
"177 803 LINE",
"196 782 LINE"
);
}
);
};
components = (
{
name = E;
},
{
name = circumflexcomb;
transform = "{1, 0, 0, 1, 448, 280}";
}
);
layerId = "4C458150-A1D2-4ED7-A293-C8767657F79E";
width = 712;
},
{
background = {
paths = (
{
closed = 1;
nodes = (
"554 0 LINE",
"571 179 LINE",
"544 179 LINE",
"538 124 OFFCURVE",
"520 40 OFFCURVE",
"456 40 CURVE SMOOTH",
"201 40 LINE",
"201 659 LINE",
"441 659 LINE SMOOTH",
"516 659 OFFCURVE",
"525 567 OFFCURVE",
"528 527 CURVE",
"555 527 LINE",
"555 700 LINE",
"16 700 LINE",
"16 673 LINE",
"44 673 LINE SMOOTH",
"83 673 OFFCURVE",
"103 662 OFFCURVE",
"103 637 CURVE SMOOTH",
"103 62 LINE SMOOTH",
"103 37 OFFCURVE",
"83 26 OFFCURVE",
"44 26 CURVE SMOOTH",
"16 26 LINE",
"16 0 LINE"
);
},
{
closed = 1;
nodes = (
"455 251 LINE",
"455 485 LINE",
"431 485 LINE",
"427 436 OFFCURVE",
"424 388 OFFCURVE",
"379 388 CURVE SMOOTH",
"162 388 LINE",
"162 348 LINE",
"379 348 LINE SMOOTH",
"424 348 OFFCURVE",
"427 300 OFFCURVE",
"431 251 CURVE"
);
},
{
closed = 1;
nodes = (
"304 868 LINE SMOOTH",
"312 874 OFFCURVE",
"322 879 OFFCURVE",
"328 879 CURVE SMOOTH",
"334 879 OFFCURVE",
"342 874 OFFCURVE",
"351 868 CURVE",
"459 782 LINE",
"478 803 LINE",
"354 932 LINE",
"301 932 LINE",
"177 803 LINE",
"196 782 LINE"
);
}
);
};
components = (
{
name = E;
},
{
name = circumflexcomb;
transform = "{1, 0, 0, 1, 428, 260}";
}
);
layerId = "73F3E0E0-4CEF-4E72-8F22-4B031C019FE7";
width = 712;
}
);
note = Ecircumflex;
unicode = 00CA;
},
{
color = 4;
glyphname = Ecircumflexacute;
lastChange = "2018-03-15 18:33:20 +0000";
layers = (
{
background = {
paths = (
{
closed = 1;
nodes = (
"554 0 LINE",
"571 179 LINE",
"544 179 LINE",
"538 124 OFFCURVE",
"520 40 OFFCURVE",
"456 40 CURVE SMOOTH",
"201 40 LINE",
"201 659 LINE",
"441 659 LINE SMOOTH",
"516 659 OFFCURVE",
"525 567 OFFCURVE",
"528 527 CURVE",
"555 527 LINE",
"555 700 LINE",
"16 700 LINE",
"16 673 LINE",
"44 673 LINE SMOOTH",
"83 673 OFFCURVE",
"103 662 OFFCURVE",
"103 637 CURVE SMOOTH",
"103 62 LINE SMOOTH",
"103 37 OFFCURVE",
"83 26 OFFCURVE",
"44 26 CURVE SMOOTH",
"16 26 LINE",
"16 0 LINE"
);
},
{
closed = 1;
nodes = (
"455 251 LINE",
"455 485 LINE",
"431 485 LINE",
"427 436 OFFCURVE",
"424 388 OFFCURVE",
"379 388 CURVE SMOOTH",
"162 388 LINE",
"162 348 LINE",
"379 348 LINE SMOOTH",
"424 348 OFFCURVE",
"427 300 OFFCURVE",
"431 251 CURVE"
);
},
{
closed = 1;
nodes = (
"290 862 LINE SMOOTH",
"300 870 OFFCURVE",
"310 878 OFFCURVE",
"318 878 CURVE SMOOTH",
"324 878 OFFCURVE",
"332 873 OFFCURVE",
"341 867 CURVE",
"447 781 LINE",
"466 803 LINE",
"344 932 LINE",
"293 932 LINE",
"171 803 LINE",
"189 781 LINE"
);
},
{
closed = 1;
nodes = (
"555 960 LINE SMOOTH",
"578 972 OFFCURVE",
"591 988 OFFCURVE",
"591 1003 CURVE SMOOTH",
"591 1017 OFFCURVE",
"580 1034 OFFCURVE",
"557 1034 CURVE SMOOTH",
"538 1034 OFFCURVE",
"521 1018 OFFCURVE",
"511 1008 CURVE SMOOTH",
"415 915 LINE",
"433 893 LINE"
);
}
);
};
components = (
{
name = E;
},
{
name = circumflex_acute;
transform = "{1, 0, 0, 1, 448, 280}";
}
);
layerId = "4C458150-A1D2-4ED7-A293-C8767657F79E";
width = 712;
},
{
background = {
paths = (
{
closed = 1;
nodes = (
"554 0 LINE",
"571 179 LINE",
"544 179 LINE",
"538 124 OFFCURVE",
"520 40 OFFCURVE",
"456 40 CURVE SMOOTH",
"201 40 LINE",
"201 659 LINE",
"441 659 LINE SMOOTH",
"516 659 OFFCURVE",
"525 567 OFFCURVE",
"528 527 CURVE",
"555 527 LINE",
"555 700 LINE",
"16 700 LINE",
"16 673 LINE",
"44 673 LINE SMOOTH",
"83 673 OFFCURVE",
"103 662 OFFCURVE",
"103 637 CURVE SMOOTH",
"103 62 LINE SMOOTH",
"103 37 OFFCURVE",
"83 26 OFFCURVE",
"44 26 CURVE SMOOTH",
"16 26 LINE",
"16 0 LINE"
);
},
{
closed = 1;
nodes = (
"455 251 LINE",
"455 485 LINE",
"431 485 LINE",
"427 436 OFFCURVE",
"424 388 OFFCURVE",
"379 388 CURVE SMOOTH",
"162 388 LINE",
"162 348 LINE",
"379 348 LINE SMOOTH",
"424 348 OFFCURVE",
"427 300 OFFCURVE",
"431 251 CURVE"
);
},
{
closed = 1;
nodes = (
"290 862 LINE SMOOTH",
"300 870 OFFCURVE",
"310 878 OFFCURVE",
"318 878 CURVE SMOOTH",
"324 878 OFFCURVE",
"332 873 OFFCURVE",
"341 867 CURVE",
"447 781 LINE",
"466 803 LINE",
"344 932 LINE",
"293 932 LINE",
"171 803 LINE",
"189 781 LINE"
);
},
{
closed = 1;
nodes = (
"555 960 LINE SMOOTH",
"578 972 OFFCURVE",
"591 988 OFFCURVE",
"591 1003 CURVE SMOOTH",
"591 1017 OFFCURVE",
"580 1034 OFFCURVE",
"557 1034 CURVE SMOOTH",
"538 1034 OFFCURVE",
"521 1018 OFFCURVE",
"511 1008 CURVE SMOOTH",
"415 915 LINE",
"433 893 LINE"
);
}
);
};
components = (
{
name = E;
},
{
name = circumflex_acute;
transform = "{1, 0, 0, 1, 428, 260}";
}
);
layerId = "73F3E0E0-4CEF-4E72-8F22-4B031C019FE7";
width = 712;
}
);
note = Ecircumflexacute;
unicode = 1EBE;
},
{
color = 4;
glyphname = Ecircumflexdotbelow;
lastChange = "2018-03-15 18:33:20 +0000";
layers = (
{
background = {
paths = (
{
closed = 1;
nodes = (
"554 0 LINE",
"571 179 LINE",
"544 179 LINE",
"538 124 OFFCURVE",
"520 40 OFFCURVE",
"456 40 CURVE SMOOTH",
"201 40 LINE",
"201 659 LINE",
"441 659 LINE SMOOTH",
"516 659 OFFCURVE",
"525 567 OFFCURVE",
"528 527 CURVE",
"555 527 LINE",
"555 700 LINE",
"16 700 LINE",
"16 673 LINE",
"44 673 LINE SMOOTH",
"83 673 OFFCURVE",
"103 662 OFFCURVE",
"103 637 CURVE SMOOTH",
"103 62 LINE SMOOTH",
"103 37 OFFCURVE",
"83 26 OFFCURVE",
"44 26 CURVE SMOOTH",
"16 26 LINE",
"16 0 LINE"
);
},
{
closed = 1;
nodes = (
"350 -159 OFFCURVE",
"368 -140 OFFCURVE",
"368 -112 CURVE SMOOTH",
"368 -84 OFFCURVE",
"350 -64 OFFCURVE",
"322 -64 CURVE SMOOTH",
"294 -64 OFFCURVE",
"275 -84 OFFCURVE",
"275 -112 CURVE SMOOTH",
"275 -140 OFFCURVE",
"294 -159 OFFCURVE",
"322 -159 CURVE SMOOTH"
);
},
{
closed = 1;
nodes = (
"455 251 LINE",
"455 485 LINE",
"431 485 LINE",
"427 436 OFFCURVE",
"424 388 OFFCURVE",
"379 388 CURVE SMOOTH",
"162 388 LINE",
"162 348 LINE",
"379 348 LINE SMOOTH",
"424 348 OFFCURVE",
"427 300 OFFCURVE",
"431 251 CURVE"
);
},
{
closed = 1;
nodes = (
"294 868 LINE SMOOTH",
"302 874 OFFCURVE",
"312 879 OFFCURVE",
"318 879 CURVE SMOOTH",
"324 879 OFFCURVE",
"332 874 OFFCURVE",
"341 868 CURVE",
"449 782 LINE",
"468 803 LINE",
"344 932 LINE",
"291 932 LINE",
"167 803 LINE",
"186 782 LINE"
);
}
);
};
components = (
{
name = E;
},
{
name = dotbelowcomb;
transform = "{1, 0, 0, 1, 420, 0}";
},
{
name = circumflexcomb;
transform = "{1, 0, 0, 1, 448, 280}";
}
);
layerId = "4C458150-A1D2-4ED7-A293-C8767657F79E";
width = 712;
},
{
background = {
paths = (
{
closed = 1;
nodes = (
"554 0 LINE",
"571 179 LINE",
"544 179 LINE",
"538 124 OFFCURVE",
"520 40 OFFCURVE",
"456 40 CURVE SMOOTH",
"201 40 LINE",
"201 659 LINE",
"441 659 LINE SMOOTH",
"516 659 OFFCURVE",
"525 567 OFFCURVE",
"528 527 CURVE",
"555 527 LINE",
"555 700 LINE",
"16 700 LINE",
"16 673 LINE",
"44 673 LINE SMOOTH",
"83 673 OFFCURVE",
"103 662 OFFCURVE",
"103 637 CURVE SMOOTH",
"103 62 LINE SMOOTH",
"103 37 OFFCURVE",
"83 26 OFFCURVE",
"44 26 CURVE SMOOTH",
"16 26 LINE",
"16 0 LINE"
);
},
{
closed = 1;
nodes = (
"350 -159 OFFCURVE",
"368 -140 OFFCURVE",
"368 -112 CURVE SMOOTH",
"368 -84 OFFCURVE",
"350 -64 OFFCURVE",
"322 -64 CURVE SMOOTH",
"294 -64 OFFCURVE",
"275 -84 OFFCURVE",
"275 -112 CURVE SMOOTH",
"275 -140 OFFCURVE",
"294 -159 OFFCURVE",
"322 -159 CURVE SMOOTH"
);
},
{
closed = 1;
nodes = (
"455 251 LINE",
"455 485 LINE",
"431 485 LINE",
"427 436 OFFCURVE",
"424 388 OFFCURVE",
"379 388 CURVE SMOOTH",
"162 388 LINE",
"162 348 LINE",
"379 348 LINE SMOOTH",
"424 348 OFFCURVE",
"427 300 OFFCURVE",
"431 251 CURVE"
);
},
{
closed = 1;
nodes = (
"294 868 LINE SMOOTH",
"302 874 OFFCURVE",
"312 879 OFFCURVE",
"318 879 CURVE SMOOTH",
"324 879 OFFCURVE",
"332 874 OFFCURVE",
"341 868 CURVE",
"449 782 LINE",
"468 803 LINE",
"344 932 LINE",
"291 932 LINE",
"167 803 LINE",
"186 782 LINE"
);
}
);
};
components = (
{
name = E;
},
{
name = dotbelowcomb;
transform = "{1, 0, 0, 1, 382, 0}";
},
{
name = circumflexcomb;
transform = "{1, 0, 0, 1, 428, 260}";
}
);
layerId = "73F3E0E0-4CEF-4E72-8F22-4B031C019FE7";
width = 712;
}
);
note = Ecircumflexdotbelow;
unicode = 1EC6;
},
{
color = 4;
glyphname = Ecircumflexgrave;
lastChange = "2018-03-15 18:33:20 +0000";
layers = (
{
background = {
paths = (
{
closed = 1;
nodes = (
"554 0 LINE",
"571 179 LINE",
"544 179 LINE",
"538 124 OFFCURVE",
"520 40 OFFCURVE",
"456 40 CURVE SMOOTH",
"201 40 LINE",
"201 659 LINE",
"441 659 LINE SMOOTH",
"516 659 OFFCURVE",
"525 567 OFFCURVE",
"528 527 CURVE",
"555 527 LINE",
"555 700 LINE",
"16 700 LINE",
"16 673 LINE",
"44 673 LINE SMOOTH",
"83 673 OFFCURVE",
"103 662 OFFCURVE",
"103 637 CURVE SMOOTH",
"103 62 LINE SMOOTH",
"103 37 OFFCURVE",
"83 26 OFFCURVE",
"44 26 CURVE SMOOTH",
"16 26 LINE",
"16 0 LINE"
);
},
{
closed = 1;
nodes = (
"455 251 LINE",
"455 485 LINE",
"431 485 LINE",
"427 436 OFFCURVE",
"424 388 OFFCURVE",
"379 388 CURVE SMOOTH",
"162 388 LINE",
"162 348 LINE",
"379 348 LINE SMOOTH",
"424 348 OFFCURVE",
"427 300 OFFCURVE",
"431 251 CURVE"
);
},
{
closed = 1;
nodes = (
"227 915 LINE",
"132 1008 LINE SMOOTH",
"122 1018 OFFCURVE",
"105 1034 OFFCURVE",
"85 1034 CURVE SMOOTH",
"63 1034 OFFCURVE",
"52 1017 OFFCURVE",
"52 1003 CURVE SMOOTH",
"52 988 OFFCURVE",
"65 972 OFFCURVE",
"88 960 CURVE SMOOTH",
"210 893 LINE"
);
},
{
closed = 1;
nodes = (
"290 862 LINE SMOOTH",
"300 870 OFFCURVE",
"310 878 OFFCURVE",
"318 878 CURVE SMOOTH",
"324 878 OFFCURVE",
"332 873 OFFCURVE",
"341 867 CURVE",
"447 781 LINE",
"466 803 LINE",
"344 932 LINE",
"293 932 LINE",
"171 803 LINE",
"189 781 LINE"
);
}
);
};
components = (
{
name = E;
},
{
name = circumflex_grave;
transform = "{1, 0, 0, 1, 448, 280}";
}
);
layerId = "4C458150-A1D2-4ED7-A293-C8767657F79E";
width = 712;
},
{
background = {
paths = (
{
closed = 1;
nodes = (
"554 0 LINE",
"571 179 LINE",
"544 179 LINE",
"538 124 OFFCURVE",
"520 40 OFFCURVE",
"456 40 CURVE SMOOTH",
"201 40 LINE",
"201 659 LINE",
"441 659 LINE SMOOTH",
"516 659 OFFCURVE",
"525 567 OFFCURVE",
"528 527 CURVE",
"555 527 LINE",
"555 700 LINE",
"16 700 LINE",
"16 673 LINE",
"44 673 LINE SMOOTH",
"83 673 OFFCURVE",
"103 662 OFFCURVE",
"103 637 CURVE SMOOTH",
"103 62 LINE SMOOTH",
"103 37 OFFCURVE",
"83 26 OFFCURVE",
"44 26 CURVE SMOOTH",
"16 26 LINE",
"16 0 LINE"
);
},
{
closed = 1;
nodes = (
"455 251 LINE",
"455 485 LINE",
"431 485 LINE",
"427 436 OFFCURVE",
"424 388 OFFCURVE",
"379 388 CURVE SMOOTH",
"162 388 LINE",
"162 348 LINE",
"379 348 LINE SMOOTH",
"424 348 OFFCURVE",
"427 300 OFFCURVE",
"431 251 CURVE"
);
},
{
closed = 1;
nodes = (
"227 915 LINE",
"132 1008 LINE SMOOTH",
"122 1018 OFFCURVE",
"105 1034 OFFCURVE",
"85 1034 CURVE SMOOTH",
"63 1034 OFFCURVE",
"52 1017 OFFCURVE",
"52 1003 CURVE SMOOTH",
"52 988 OFFCURVE",
"65 972 OFFCURVE",
"88 960 CURVE SMOOTH",
"210 893 LINE"
);
},
{
closed = 1;
nodes = (
"290 862 LINE SMOOTH",
"300 870 OFFCURVE",
"310 878 OFFCURVE",
"318 878 CURVE SMOOTH",
"324 878 OFFCURVE",
"332 873 OFFCURVE",
"341 867 CURVE",
"447 781 LINE",
"466 803 LINE",
"344 932 LINE",
"293 932 LINE",
"171 803 LINE",
"189 781 LINE"
);
}
);
};
components = (
{
name = E;
},
{
name = circumflex_grave;
transform = "{1, 0, 0, 1, 428, 260}";
}
);
layerId = "73F3E0E0-4CEF-4E72-8F22-4B031C019FE7";
width = 712;
}
);
note = Ecircumflexgrave;
unicode = 1EC0;
},
{
color = 4;
glyphname = Ecircumflexhookabove;
lastChange = "2018-03-15 18:33:20 +0000";
layers = (
{
background = {
paths = (
{
closed = 1;
nodes = (
"554 0 LINE",
"571 179 LINE",
"544 179 LINE",
"538 124 OFFCURVE",
"520 40 OFFCURVE",
"456 40 CURVE SMOOTH",
"201 40 LINE",
"201 659 LINE",
"441 659 LINE SMOOTH",
"516 659 OFFCURVE",
"525 567 OFFCURVE",
"528 527 CURVE",
"555 527 LINE",
"555 700 LINE",
"16 700 LINE",
"16 673 LINE",
"44 673 LINE SMOOTH",
"83 673 OFFCURVE",
"103 662 OFFCURVE",
"103 637 CURVE SMOOTH",
"103 62 LINE SMOOTH",
"103 37 OFFCURVE",
"83 26 OFFCURVE",
"44 26 CURVE SMOOTH",
"16 26 LINE",
"16 0 LINE"
);
},
{
closed = 1;
nodes = (
"455 251 LINE",
"455 485 LINE",
"431 485 LINE",
"427 436 OFFCURVE",
"424 388 OFFCURVE",
"379 388 CURVE SMOOTH",
"162 388 LINE",
"162 348 LINE",
"379 348 LINE SMOOTH",
"424 348 OFFCURVE",
"427 300 OFFCURVE",
"431 251 CURVE"
);
},
{
closed = 1;
nodes = (
"286 858 LINE",
"297 868 OFFCURVE",
"309 878 OFFCURVE",
"318 878 CURVE SMOOTH",
"324 878 OFFCURVE",
"332 873 OFFCURVE",
"341 867 CURVE",
"447 781 LINE",
"466 803 LINE",
"344 932 LINE",
"293 932 LINE",
"171 803 LINE",
"189 781 LINE"
);
},
{
closed = 1;
nodes = (
"493 898 LINE",
"474 905 OFFCURVE",
"464 912 OFFCURVE",
"464 926 CURVE SMOOTH",
"464 954 OFFCURVE",
"544 965 OFFCURVE",
"544 1010 CURVE SMOOTH",
"544 1047 OFFCURVE",
"502 1063 OFFCURVE",
"460 1063 CURVE SMOOTH",
"429 1063 OFFCURVE",
"384 1053 OFFCURVE",
"384 1022 CURVE SMOOTH",
"384 1010 OFFCURVE",
"395 1001 OFFCURVE",
"405 1001 CURVE SMOOTH",
"434 1001 OFFCURVE",
"421 1040 OFFCURVE",
"464 1040 CURVE SMOOTH",
"483 1040 OFFCURVE",
"494 1028 OFFCURVE",
"494 1013 CURVE SMOOTH",
"494 973 OFFCURVE",
"421 965 OFFCURVE",
"421 925 CURVE SMOOTH",
"421 901 OFFCURVE",
"437 880 OFFCURVE",
"484 880 CURVE"
);
}
);
};
components = (
{
name = E;
},
{
name = circumflex_hookabove;
transform = "{1, 0, 0, 1, 448, 280}";
}
);
layerId = "4C458150-A1D2-4ED7-A293-C8767657F79E";
width = 712;
},
{
background = {
paths = (
{
closed = 1;
nodes = (
"554 0 LINE",
"571 179 LINE",
"544 179 LINE",
"538 124 OFFCURVE",
"520 40 OFFCURVE",
"456 40 CURVE SMOOTH",
"201 40 LINE",
"201 659 LINE",
"441 659 LINE SMOOTH",
"516 659 OFFCURVE",
"525 567 OFFCURVE",
"528 527 CURVE",
"555 527 LINE",
"555 700 LINE",
"16 700 LINE",
"16 673 LINE",
"44 673 LINE SMOOTH",
"83 673 OFFCURVE",
"103 662 OFFCURVE",
"103 637 CURVE SMOOTH",
"103 62 LINE SMOOTH",
"103 37 OFFCURVE",
"83 26 OFFCURVE",
"44 26 CURVE SMOOTH",
"16 26 LINE",
"16 0 LINE"
);
},
{
closed = 1;
nodes = (
"455 251 LINE",
"455 485 LINE",
"431 485 LINE",
"427 436 OFFCURVE",
"424 388 OFFCURVE",
"379 388 CURVE SMOOTH",
"162 388 LINE",
"162 348 LINE",
"379 348 LINE SMOOTH",
"424 348 OFFCURVE",
"427 300 OFFCURVE",
"431 251 CURVE"
);
},
{
closed = 1;
nodes = (
"286 858 LINE",
"297 868 OFFCURVE",
"309 878 OFFCURVE",
"318 878 CURVE SMOOTH",
"324 878 OFFCURVE",
"332 873 OFFCURVE",
"341 867 CURVE",
"447 781 LINE",
"466 803 LINE",
"344 932 LINE",
"293 932 LINE",
"171 803 LINE",
"189 781 LINE"
);
},
{
closed = 1;
nodes = (
"493 898 LINE",
"474 905 OFFCURVE",
"464 912 OFFCURVE",
"464 926 CURVE SMOOTH",
"464 954 OFFCURVE",
"544 965 OFFCURVE",
"544 1010 CURVE SMOOTH",
"544 1047 OFFCURVE",
"502 1063 OFFCURVE",
"460 1063 CURVE SMOOTH",
"429 1063 OFFCURVE",
"384 1053 OFFCURVE",
"384 1022 CURVE SMOOTH",
"384 1010 OFFCURVE",
"395 1001 OFFCURVE",
"405 1001 CURVE SMOOTH",
"434 1001 OFFCURVE",
"421 1040 OFFCURVE",
"464 1040 CURVE SMOOTH",
"483 1040 OFFCURVE",
"494 1028 OFFCURVE",
"494 1013 CURVE SMOOTH",
"494 973 OFFCURVE",
"421 965 OFFCURVE",
"421 925 CURVE SMOOTH",
"421 901 OFFCURVE",
"437 880 OFFCURVE",
"484 880 CURVE"
);
}
);
};
components = (
{
name = E;
},
{
name = circumflex_hookabove;
transform = "{1, 0, 0, 1, 428, 260}";
}
);
layerId = "73F3E0E0-4CEF-4E72-8F22-4B031C019FE7";
width = 712;
}
);
note = Ecircumflexhookabove;
unicode = 1EC2;
},
{
color = 4;
glyphname = Ecircumflextilde;
lastChange = "2018-03-18 22:29:09 +0000";
layers = (
{
background = {
paths = (
{
closed = 1;
nodes = (
"554 0 LINE",
"571 179 LINE",
"544 179 LINE",
"538 124 OFFCURVE",
"520 40 OFFCURVE",
"456 40 CURVE SMOOTH",
"201 40 LINE",
"201 659 LINE",
"441 659 LINE SMOOTH",
"516 659 OFFCURVE",
"525 567 OFFCURVE",
"528 527 CURVE",
"555 527 LINE",
"555 700 LINE",
"16 700 LINE",
"16 673 LINE",
"44 673 LINE SMOOTH",
"83 673 OFFCURVE",
"103 662 OFFCURVE",
"103 637 CURVE SMOOTH",
"103 62 LINE SMOOTH",
"103 37 OFFCURVE",
"83 26 OFFCURVE",
"44 26 CURVE SMOOTH",
"16 26 LINE",
"16 0 LINE"
);
},
{
closed = 1;
nodes = (
"455 251 LINE",
"455 485 LINE",
"431 485 LINE",
"427 436 OFFCURVE",
"424 388 OFFCURVE",
"379 388 CURVE SMOOTH",
"162 388 LINE",
"162 348 LINE",
"379 348 LINE SMOOTH",
"424 348 OFFCURVE",
"427 300 OFFCURVE",
"431 251 CURVE"
);
},
{
closed = 1;
nodes = (
"290 862 LINE SMOOTH",
"300 870 OFFCURVE",
"310 878 OFFCURVE",
"318 878 CURVE SMOOTH",
"324 878 OFFCURVE",
"332 873 OFFCURVE",
"341 867 CURVE",
"447 781 LINE",
"466 803 LINE",
"344 932 LINE",
"293 932 LINE",
"171 803 LINE",
"189 781 LINE"
);
},
{
closed = 1;
nodes = (
"193 997 OFFCURVE",
"211 1018 OFFCURVE",
"242 1018 CURVE SMOOTH",
"291 1018 OFFCURVE",
"338 964 OFFCURVE",
"387 964 CURVE SMOOTH",
"440 964 OFFCURVE",
"469 1012 OFFCURVE",
"481 1063 CURVE",
"460 1075 LINE",
"447 1035 OFFCURVE",
"431 1012 OFFCURVE",
"398 1012 CURVE SMOOTH",
"351 1012 OFFCURVE",
"302 1065 OFFCURVE",
"253 1065 CURVE SMOOTH",
"202 1065 OFFCURVE",
"170 1021 OFFCURVE",
"160 970 CURVE",
"180 958 LINE"
);
}
);
};
components = (
{
name = E;
},
{
name = circumflex_tilde;
transform = "{1, 0, 0, 1, 442, 287}";
}
);
layerId = "4C458150-A1D2-4ED7-A293-C8767657F79E";
width = 712;
},
{
background = {
paths = (
{
closed = 1;
nodes = (
"554 0 LINE",
"571 179 LINE",
"544 179 LINE",
"538 124 OFFCURVE",
"520 40 OFFCURVE",
"456 40 CURVE SMOOTH",
"201 40 LINE",
"201 659 LINE",
"441 659 LINE SMOOTH",
"516 659 OFFCURVE",
"525 567 OFFCURVE",
"528 527 CURVE",
"555 527 LINE",
"555 700 LINE",
"16 700 LINE",
"16 673 LINE",
"44 673 LINE SMOOTH",
"83 673 OFFCURVE",
"103 662 OFFCURVE",
"103 637 CURVE SMOOTH",
"103 62 LINE SMOOTH",
"103 37 OFFCURVE",
"83 26 OFFCURVE",
"44 26 CURVE SMOOTH",
"16 26 LINE",
"16 0 LINE"
);
},
{
closed = 1;
nodes = (
"455 251 LINE",
"455 485 LINE",
"431 485 LINE",
"427 436 OFFCURVE",
"424 388 OFFCURVE",
"379 388 CURVE SMOOTH",
"162 388 LINE",
"162 348 LINE",
"379 348 LINE SMOOTH",
"424 348 OFFCURVE",
"427 300 OFFCURVE",
"431 251 CURVE"
);
},
{
closed = 1;
nodes = (
"290 862 LINE SMOOTH",
"300 870 OFFCURVE",
"310 878 OFFCURVE",
"318 878 CURVE SMOOTH",
"324 878 OFFCURVE",
"332 873 OFFCURVE",
"341 867 CURVE",
"447 781 LINE",
"466 803 LINE",
"344 932 LINE",
"293 932 LINE",
"171 803 LINE",
"189 781 LINE"
);
},
{
closed = 1;
nodes = (
"193 997 OFFCURVE",
"211 1018 OFFCURVE",
"242 1018 CURVE SMOOTH",
"291 1018 OFFCURVE",
"338 964 OFFCURVE",
"387 964 CURVE SMOOTH",
"440 964 OFFCURVE",
"469 1012 OFFCURVE",
"481 1063 CURVE",
"460 1075 LINE",
"447 1035 OFFCURVE",
"431 1012 OFFCURVE",
"398 1012 CURVE SMOOTH",
"351 1012 OFFCURVE",
"302 1065 OFFCURVE",
"253 1065 CURVE SMOOTH",
"202 1065 OFFCURVE",
"170 1021 OFFCURVE",
"160 970 CURVE",
"180 958 LINE"
);
}
);
};
components = (
{
name = E;
},
{
name = circumflex_tilde;
transform = "{1, 0, 0, 1, 428, 260}";
}
);
layerId = "73F3E0E0-4CEF-4E72-8F22-4B031C019FE7";
width = 712;
}
);
note = Ecircumflextilde;
unicode = 1EC4;
},
{
color = 4;
glyphname = Edieresis;
lastChange = "2018-03-15 18:33:20 +0000";
layers = (
{
background = {
paths = (
{
closed = 1;
nodes = (
"554 0 LINE",
"571 179 LINE",
"544 179 LINE",
"538 124 OFFCURVE",
"520 40 OFFCURVE",
"456 40 CURVE SMOOTH",
"201 40 LINE",
"201 659 LINE",
"441 659 LINE SMOOTH",
"516 659 OFFCURVE",
"525 567 OFFCURVE",
"528 527 CURVE",
"555 527 LINE",
"555 700 LINE",
"16 700 LINE",
"16 673 LINE",
"44 673 LINE SMOOTH",
"83 673 OFFCURVE",
"103 662 OFFCURVE",
"103 637 CURVE SMOOTH",
"103 62 LINE SMOOTH",
"103 37 OFFCURVE",
"83 26 OFFCURVE",
"44 26 CURVE SMOOTH",
"16 26 LINE",
"16 0 LINE"
);
},
{
closed = 1;
nodes = (
"455 251 LINE",
"455 485 LINE",
"431 485 LINE",
"427 436 OFFCURVE",
"424 388 OFFCURVE",
"379 388 CURVE SMOOTH",
"162 388 LINE",
"162 348 LINE",
"379 348 LINE SMOOTH",
"424 348 OFFCURVE",
"427 300 OFFCURVE",
"431 251 CURVE"
);
},
{
closed = 1;
nodes = (
"254 781 OFFCURVE",
"272 800 OFFCURVE",
"272 827 CURVE SMOOTH",
"272 855 OFFCURVE",
"254 875 OFFCURVE",
"225 875 CURVE SMOOTH",
"197 875 OFFCURVE",
"179 855 OFFCURVE",
"179 827 CURVE SMOOTH",
"179 800 OFFCURVE",
"197 781 OFFCURVE",
"225 781 CURVE SMOOTH"
);
},
{
closed = 1;
nodes = (
"470 781 OFFCURVE",
"488 800 OFFCURVE",
"488 827 CURVE SMOOTH",
"488 855 OFFCURVE",
"470 875 OFFCURVE",
"441 875 CURVE SMOOTH",
"412 875 OFFCURVE",
"394 855 OFFCURVE",
"394 827 CURVE SMOOTH",
"394 800 OFFCURVE",
"412 781 OFFCURVE",
"441 781 CURVE SMOOTH"
);
}
);
};
components = (
{
name = E;
},
{
name = dieresiscomb;
transform = "{1, 0, 0, 1, 448, 280}";
}
);
layerId = "4C458150-A1D2-4ED7-A293-C8767657F79E";
width = 712;
},
{
background = {
paths = (
{
closed = 1;
nodes = (
"554 0 LINE",
"571 179 LINE",
"544 179 LINE",
"538 124 OFFCURVE",
"520 40 OFFCURVE",
"456 40 CURVE SMOOTH",
"201 40 LINE",
"201 659 LINE",
"441 659 LINE SMOOTH",
"516 659 OFFCURVE",
"525 567 OFFCURVE",
"528 527 CURVE",
"555 527 LINE",
"555 700 LINE",
"16 700 LINE",
"16 673 LINE",
"44 673 LINE SMOOTH",
"83 673 OFFCURVE",
"103 662 OFFCURVE",
"103 637 CURVE SMOOTH",
"103 62 LINE SMOOTH",
"103 37 OFFCURVE",
"83 26 OFFCURVE",
"44 26 CURVE SMOOTH",
"16 26 LINE",
"16 0 LINE"
);
},
{
closed = 1;
nodes = (
"455 251 LINE",
"455 485 LINE",
"431 485 LINE",
"427 436 OFFCURVE",
"424 388 OFFCURVE",
"379 388 CURVE SMOOTH",
"162 388 LINE",
"162 348 LINE",
"379 348 LINE SMOOTH",
"424 348 OFFCURVE",
"427 300 OFFCURVE",
"431 251 CURVE"
);
},
{
closed = 1;
nodes = (
"254 781 OFFCURVE",
"272 800 OFFCURVE",
"272 827 CURVE SMOOTH",
"272 855 OFFCURVE",
"254 875 OFFCURVE",
"225 875 CURVE SMOOTH",
"197 875 OFFCURVE",
"179 855 OFFCURVE",
"179 827 CURVE SMOOTH",
"179 800 OFFCURVE",
"197 781 OFFCURVE",
"225 781 CURVE SMOOTH"
);
},
{
closed = 1;
nodes = (
"470 781 OFFCURVE",
"488 800 OFFCURVE",
"488 827 CURVE SMOOTH",
"488 855 OFFCURVE",
"470 875 OFFCURVE",
"441 875 CURVE SMOOTH",
"412 875 OFFCURVE",
"394 855 OFFCURVE",
"394 827 CURVE SMOOTH",
"394 800 OFFCURVE",
"412 781 OFFCURVE",
"441 781 CURVE SMOOTH"
);
}
);
};
components = (
{
name = E;
},
{
name = dieresiscomb;
transform = "{1, 0, 0, 1, 429, 260}";
}
);
layerId = "73F3E0E0-4CEF-4E72-8F22-4B031C019FE7";
width = 712;
}
);
note = Edieresis;
unicode = 00CB;
},
{
color = 4;
glyphname = Edotaccent;
lastChange = "2018-03-15 18:33:20 +0000";
layers = (
{
background = {
paths = (
{
closed = 1;
nodes = (
"554 0 LINE",
"571 179 LINE",
"544 179 LINE",
"538 124 OFFCURVE",
"520 40 OFFCURVE",
"456 40 CURVE SMOOTH",
"201 40 LINE",
"201 659 LINE",
"441 659 LINE SMOOTH",
"516 659 OFFCURVE",
"525 567 OFFCURVE",
"528 527 CURVE",
"555 527 LINE",
"555 700 LINE",
"16 700 LINE",
"16 673 LINE",
"44 673 LINE SMOOTH",
"83 673 OFFCURVE",
"103 662 OFFCURVE",
"103 637 CURVE SMOOTH",
"103 62 LINE SMOOTH",
"103 37 OFFCURVE",
"83 26 OFFCURVE",
"44 26 CURVE SMOOTH",
"16 26 LINE",
"16 0 LINE"
);
},
{
closed = 1;
nodes = (
"455 251 LINE",
"455 485 LINE",
"431 485 LINE",
"427 436 OFFCURVE",
"424 388 OFFCURVE",
"379 388 CURVE SMOOTH",
"162 388 LINE",
"162 348 LINE",
"379 348 LINE SMOOTH",
"424 348 OFFCURVE",
"427 300 OFFCURVE",
"431 251 CURVE"
);
},
{
closed = 1;
nodes = (
"362 765 OFFCURVE",
"380 784 OFFCURVE",
"380 811 CURVE SMOOTH",
"380 839 OFFCURVE",
"362 858 OFFCURVE",
"334 858 CURVE SMOOTH",
"305 858 OFFCURVE",
"287 839 OFFCURVE",
"287 811 CURVE SMOOTH",
"287 784 OFFCURVE",
"305 765 OFFCURVE",
"334 765 CURVE SMOOTH"
);
}
);
};
components = (
{
name = E;
},
{
name = dotaccentcomb;
transform = "{1, 0, 0, 1, 448, 280}";
}
);
layerId = "4C458150-A1D2-4ED7-A293-C8767657F79E";
width = 712;
},
{
background = {
paths = (
{
closed = 1;
nodes = (
"554 0 LINE",
"571 179 LINE",
"544 179 LINE",
"538 124 OFFCURVE",
"520 40 OFFCURVE",
"456 40 CURVE SMOOTH",
"201 40 LINE",
"201 659 LINE",
"441 659 LINE SMOOTH",
"516 659 OFFCURVE",
"525 567 OFFCURVE",
"528 527 CURVE",
"555 527 LINE",
"555 700 LINE",
"16 700 LINE",
"16 673 LINE",
"44 673 LINE SMOOTH",
"83 673 OFFCURVE",
"103 662 OFFCURVE",
"103 637 CURVE SMOOTH",
"103 62 LINE SMOOTH",
"103 37 OFFCURVE",
"83 26 OFFCURVE",
"44 26 CURVE SMOOTH",
"16 26 LINE",
"16 0 LINE"
);
},
{
closed = 1;
nodes = (
"455 251 LINE",
"455 485 LINE",
"431 485 LINE",
"427 436 OFFCURVE",
"424 388 OFFCURVE",
"379 388 CURVE SMOOTH",
"162 388 LINE",
"162 348 LINE",
"379 348 LINE SMOOTH",
"424 348 OFFCURVE",
"427 300 OFFCURVE",
"431 251 CURVE"
);
},
{
closed = 1;
nodes = (
"362 765 OFFCURVE",
"380 784 OFFCURVE",
"380 811 CURVE SMOOTH",
"380 839 OFFCURVE",
"362 858 OFFCURVE",
"334 858 CURVE SMOOTH",
"305 858 OFFCURVE",
"287 839 OFFCURVE",
"287 811 CURVE SMOOTH",
"287 784 OFFCURVE",
"305 765 OFFCURVE",
"334 765 CURVE SMOOTH"
);
}
);
};
components = (
{
name = E;
},
{
name = dotaccentcomb;
transform = "{1, 0, 0, 1, 429, 260}";
}
);
layerId = "73F3E0E0-4CEF-4E72-8F22-4B031C019FE7";
width = 712;
}
);
note = Edotaccent;
unicode = 0116;
},
{
color = 4;
glyphname = Edotbelow;
lastChange = "2018-03-15 18:33:20 +0000";
layers = (
{
background = {
paths = (
{
closed = 1;
nodes = (
"554 0 LINE",
"571 179 LINE",
"544 179 LINE",
"538 124 OFFCURVE",
"520 40 OFFCURVE",
"456 40 CURVE SMOOTH",
"201 40 LINE",
"201 659 LINE",
"441 659 LINE SMOOTH",
"516 659 OFFCURVE",
"525 567 OFFCURVE",
"528 527 CURVE",
"555 527 LINE",
"555 700 LINE",
"16 700 LINE",
"16 673 LINE",
"44 673 LINE SMOOTH",
"83 673 OFFCURVE",
"103 662 OFFCURVE",
"103 637 CURVE SMOOTH",
"103 62 LINE SMOOTH",
"103 37 OFFCURVE",
"83 26 OFFCURVE",
"44 26 CURVE SMOOTH",
"16 26 LINE",
"16 0 LINE"
);
},
{
closed = 1;
nodes = (
"343 -159 OFFCURVE",
"361 -140 OFFCURVE",
"361 -112 CURVE SMOOTH",
"361 -84 OFFCURVE",
"343 -64 OFFCURVE",
"315 -64 CURVE SMOOTH",
"287 -64 OFFCURVE",
"268 -84 OFFCURVE",
"268 -112 CURVE SMOOTH",
"268 -140 OFFCURVE",
"287 -159 OFFCURVE",
"315 -159 CURVE SMOOTH"
);
},
{
closed = 1;
nodes = (
"455 251 LINE",
"455 485 LINE",
"431 485 LINE",
"427 436 OFFCURVE",
"424 388 OFFCURVE",
"379 388 CURVE SMOOTH",
"162 388 LINE",
"162 348 LINE",
"379 348 LINE SMOOTH",
"424 348 OFFCURVE",
"427 300 OFFCURVE",
"431 251 CURVE"
);
}
);
};
components = (
{
name = E;
},
{
name = dotbelowcomb;
transform = "{1, 0, 0, 1, 420, 0}";
}
);
layerId = "4C458150-A1D2-4ED7-A293-C8767657F79E";
width = 712;
},
{
background = {
paths = (
{
closed = 1;
nodes = (
"554 0 LINE",
"571 179 LINE",
"544 179 LINE",
"538 124 OFFCURVE",
"520 40 OFFCURVE",
"456 40 CURVE SMOOTH",
"201 40 LINE",
"201 659 LINE",
"441 659 LINE SMOOTH",
"516 659 OFFCURVE",
"525 567 OFFCURVE",
"528 527 CURVE",
"555 527 LINE",
"555 700 LINE",
"16 700 LINE",
"16 673 LINE",
"44 673 LINE SMOOTH",
"83 673 OFFCURVE",
"103 662 OFFCURVE",
"103 637 CURVE SMOOTH",
"103 62 LINE SMOOTH",
"103 37 OFFCURVE",
"83 26 OFFCURVE",
"44 26 CURVE SMOOTH",
"16 26 LINE",
"16 0 LINE"
);
},
{
closed = 1;
nodes = (
"343 -159 OFFCURVE",
"361 -140 OFFCURVE",
"361 -112 CURVE SMOOTH",
"361 -84 OFFCURVE",
"343 -64 OFFCURVE",
"315 -64 CURVE SMOOTH",
"287 -64 OFFCURVE",
"268 -84 OFFCURVE",
"268 -112 CURVE SMOOTH",
"268 -140 OFFCURVE",
"287 -159 OFFCURVE",
"315 -159 CURVE SMOOTH"
);
},
{
closed = 1;
nodes = (
"455 251 LINE",
"455 485 LINE",
"431 485 LINE",
"427 436 OFFCURVE",
"424 388 OFFCURVE",
"379 388 CURVE SMOOTH",
"162 388 LINE",
"162 348 LINE",
"379 348 LINE SMOOTH",
"424 348 OFFCURVE",
"427 300 OFFCURVE",
"431 251 CURVE"
);
}
);
};
components = (
{
name = E;
},
{
name = dotbelowcomb;
transform = "{1, 0, 0, 1, 382, 0}";
}
);
layerId = "73F3E0E0-4CEF-4E72-8F22-4B031C019FE7";
width = 712;
}
);
note = Edotbelow;
unicode = 1EB8;
},
{
color = 4;
glyphname = Egrave;
lastChange = "2018-03-15 18:33:20 +0000";
layers = (
{
background = {
paths = (
{
closed = 1;
nodes = (
"554 0 LINE",
"571 179 LINE",
"544 179 LINE",
"538 124 OFFCURVE",
"520 40 OFFCURVE",
"456 40 CURVE SMOOTH",
"201 40 LINE",
"201 659 LINE",
"441 659 LINE SMOOTH",
"516 659 OFFCURVE",
"525 567 OFFCURVE",
"528 527 CURVE",
"555 527 LINE",
"555 700 LINE",
"16 700 LINE",
"16 673 LINE",
"44 673 LINE SMOOTH",
"83 673 OFFCURVE",
"103 662 OFFCURVE",
"103 637 CURVE SMOOTH",
"103 62 LINE SMOOTH",
"103 37 OFFCURVE",
"83 26 OFFCURVE",
"44 26 CURVE SMOOTH",
"16 26 LINE",
"16 0 LINE"
);
},
{
closed = 1;
nodes = (
"455 251 LINE",
"455 485 LINE",
"431 485 LINE",
"427 436 OFFCURVE",
"424 388 OFFCURVE",
"379 388 CURVE SMOOTH",
"162 388 LINE",
"162 348 LINE",
"379 348 LINE SMOOTH",
"424 348 OFFCURVE",
"427 300 OFFCURVE",
"431 251 CURVE"
);
},
{
closed = 1;
nodes = (
"425 807 LINE",
"310 913 LINE",
"301 922 OFFCURVE",
"285 937 OFFCURVE",
"265 937 CURVE SMOOTH",
"245 937 OFFCURVE",
"233 924 OFFCURVE",
"233 908 CURVE SMOOTH",
"233 890 OFFCURVE",
"245 876 OFFCURVE",
"264 865 CURVE SMOOTH",
"407 782 LINE"
);
}
);
};
components = (
{
name = E;
},
{
name = gravecomb;
transform = "{1, 0, 0, 1, 447, 280}";
}
);
layerId = "4C458150-A1D2-4ED7-A293-C8767657F79E";
width = 712;
},
{
background = {
paths = (
{
closed = 1;
nodes = (
"554 0 LINE",
"571 179 LINE",
"544 179 LINE",
"538 124 OFFCURVE",
"520 40 OFFCURVE",
"456 40 CURVE SMOOTH",
"201 40 LINE",
"201 659 LINE",
"441 659 LINE SMOOTH",
"516 659 OFFCURVE",
"525 567 OFFCURVE",
"528 527 CURVE",
"555 527 LINE",
"555 700 LINE",
"16 700 LINE",
"16 673 LINE",
"44 673 LINE SMOOTH",
"83 673 OFFCURVE",
"103 662 OFFCURVE",
"103 637 CURVE SMOOTH",
"103 62 LINE SMOOTH",
"103 37 OFFCURVE",
"83 26 OFFCURVE",
"44 26 CURVE SMOOTH",
"16 26 LINE",
"16 0 LINE"
);
},
{
closed = 1;
nodes = (
"455 251 LINE",
"455 485 LINE",
"431 485 LINE",
"427 436 OFFCURVE",
"424 388 OFFCURVE",
"379 388 CURVE SMOOTH",
"162 388 LINE",
"162 348 LINE",
"379 348 LINE SMOOTH",
"424 348 OFFCURVE",
"427 300 OFFCURVE",
"431 251 CURVE"
);
},
{
closed = 1;
nodes = (
"425 807 LINE",
"310 913 LINE",
"301 922 OFFCURVE",
"285 937 OFFCURVE",
"265 937 CURVE SMOOTH",
"245 937 OFFCURVE",
"233 924 OFFCURVE",
"233 908 CURVE SMOOTH",
"233 890 OFFCURVE",
"245 876 OFFCURVE",
"264 865 CURVE SMOOTH",
"407 782 LINE"
);
}
);
};
components = (
{
name = E;
},
{
name = gravecomb;
transform = "{1, 0, 0, 1, 429, 260}";
}
);
layerId = "73F3E0E0-4CEF-4E72-8F22-4B031C019FE7";
width = 712;
}
);
note = Egrave;
unicode = 00C8;
},
{
color = 4;
glyphname = Ehookabove;
lastChange = "2018-03-15 18:33:20 +0000";
layers = (
{
background = {
paths = (
{
closed = 1;
nodes = (
"554 0 LINE",
"571 179 LINE",
"544 179 LINE",
"538 124 OFFCURVE",
"520 40 OFFCURVE",
"456 40 CURVE SMOOTH",
"201 40 LINE",
"201 659 LINE",
"441 659 LINE SMOOTH",
"516 659 OFFCURVE",
"525 567 OFFCURVE",
"528 527 CURVE",
"555 527 LINE",
"555 700 LINE",
"16 700 LINE",
"16 673 LINE",
"44 673 LINE SMOOTH",
"83 673 OFFCURVE",
"103 662 OFFCURVE",
"103 637 CURVE SMOOTH",
"103 62 LINE SMOOTH",
"103 37 OFFCURVE",
"83 26 OFFCURVE",
"44 26 CURVE SMOOTH",
"16 26 LINE",
"16 0 LINE"
);
},
{
closed = 1;
nodes = (
"455 251 LINE",
"455 485 LINE",
"431 485 LINE",
"427 436 OFFCURVE",
"424 388 OFFCURVE",
"379 388 CURVE SMOOTH",
"162 388 LINE",
"162 348 LINE",
"379 348 LINE SMOOTH",
"424 348 OFFCURVE",
"427 300 OFFCURVE",
"431 251 CURVE"
);
},
{
closed = 1;
nodes = (
"367 798 LINE",
"348 805 OFFCURVE",
"336 811 OFFCURVE",
"336 828 CURVE SMOOTH",
"336 861 OFFCURVE",
"425 876 OFFCURVE",
"425 927 CURVE SMOOTH",
"425 969 OFFCURVE",
"389 991 OFFCURVE",
"336 991 CURVE SMOOTH",
"289 991 OFFCURVE",
"248 974 OFFCURVE",
"248 940 CURVE SMOOTH",
"248 923 OFFCURVE",
"256 915 OFFCURVE",
"271 915 CURVE SMOOTH",
"294 915 OFFCURVE",
"296 934 OFFCURVE",
"299 942 CURVE SMOOTH",
"304 956 OFFCURVE",
"321 962 OFFCURVE",
"337 962 CURVE SMOOTH",
"358 962 OFFCURVE",
"371 947 OFFCURVE",
"371 930 CURVE SMOOTH",
"371 885 OFFCURVE",
"289 874 OFFCURVE",
"289 828 CURVE SMOOTH",
"289 801 OFFCURVE",
"307 778 OFFCURVE",
"358 778 CURVE"
);
}
);
};
components = (
{
name = E;
},
{
name = hookabovecomb;
transform = "{1, 0, 0, 1, 448, 280}";
}
);
layerId = "4C458150-A1D2-4ED7-A293-C8767657F79E";
width = 712;
},
{
background = {
paths = (
{
closed = 1;
nodes = (
"554 0 LINE",
"571 179 LINE",
"544 179 LINE",
"538 124 OFFCURVE",
"520 40 OFFCURVE",
"456 40 CURVE SMOOTH",
"201 40 LINE",
"201 659 LINE",
"441 659 LINE SMOOTH",
"516 659 OFFCURVE",
"525 567 OFFCURVE",
"528 527 CURVE",
"555 527 LINE",
"555 700 LINE",
"16 700 LINE",
"16 673 LINE",
"44 673 LINE SMOOTH",
"83 673 OFFCURVE",
"103 662 OFFCURVE",
"103 637 CURVE SMOOTH",
"103 62 LINE SMOOTH",
"103 37 OFFCURVE",
"83 26 OFFCURVE",
"44 26 CURVE SMOOTH",
"16 26 LINE",
"16 0 LINE"
);
},
{
closed = 1;
nodes = (
"455 251 LINE",
"455 485 LINE",
"431 485 LINE",
"427 436 OFFCURVE",
"424 388 OFFCURVE",
"379 388 CURVE SMOOTH",
"162 388 LINE",
"162 348 LINE",
"379 348 LINE SMOOTH",
"424 348 OFFCURVE",
"427 300 OFFCURVE",
"431 251 CURVE"
);
},
{
closed = 1;
nodes = (
"367 798 LINE",
"348 805 OFFCURVE",
"336 811 OFFCURVE",
"336 828 CURVE SMOOTH",
"336 861 OFFCURVE",
"425 876 OFFCURVE",
"425 927 CURVE SMOOTH",
"425 969 OFFCURVE",
"389 991 OFFCURVE",
"336 991 CURVE SMOOTH",
"289 991 OFFCURVE",
"248 974 OFFCURVE",
"248 940 CURVE SMOOTH",
"248 923 OFFCURVE",
"256 915 OFFCURVE",
"271 915 CURVE SMOOTH",
"294 915 OFFCURVE",
"296 934 OFFCURVE",
"299 942 CURVE SMOOTH",
"304 956 OFFCURVE",
"321 962 OFFCURVE",
"337 962 CURVE SMOOTH",
"358 962 OFFCURVE",
"371 947 OFFCURVE",
"371 930 CURVE SMOOTH",
"371 885 OFFCURVE",
"289 874 OFFCURVE",
"289 828 CURVE SMOOTH",
"289 801 OFFCURVE",
"307 778 OFFCURVE",
"358 778 CURVE"
);
}
);
};
components = (
{
name = E;
},
{
name = hookabovecomb;
transform = "{1, 0, 0, 1, 429, 260}";
}
);
layerId = "73F3E0E0-4CEF-4E72-8F22-4B031C019FE7";
width = 712;
}
);
note = Ehookabove;
unicode = 1EBA;
},
{
color = 4;
glyphname = Emacron;
lastChange = "2018-03-15 18:33:20 +0000";
layers = (
{
background = {
paths = (
{
closed = 1;
nodes = (
"554 0 LINE",
"571 179 LINE",
"544 179 LINE",
"538 124 OFFCURVE",
"520 40 OFFCURVE",
"456 40 CURVE SMOOTH",
"201 40 LINE",
"201 659 LINE",
"441 659 LINE SMOOTH",
"516 659 OFFCURVE",
"525 567 OFFCURVE",
"528 527 CURVE",
"555 527 LINE",
"555 700 LINE",
"16 700 LINE",
"16 673 LINE",
"44 673 LINE SMOOTH",
"83 673 OFFCURVE",
"103 662 OFFCURVE",
"103 637 CURVE SMOOTH",
"103 62 LINE SMOOTH",
"103 37 OFFCURVE",
"83 26 OFFCURVE",
"44 26 CURVE SMOOTH",
"16 26 LINE",
"16 0 LINE"
);
},
{
closed = 1;
nodes = (
"455 251 LINE",
"455 485 LINE",
"431 485 LINE",
"427 436 OFFCURVE",
"424 388 OFFCURVE",
"379 388 CURVE SMOOTH",
"162 388 LINE",
"162 348 LINE",
"379 348 LINE SMOOTH",
"424 348 OFFCURVE",
"427 300 OFFCURVE",
"431 251 CURVE"
);
},
{
closed = 1;
nodes = (
"495 782 LINE",
"495 824 LINE",
"162 824 LINE",
"162 782 LINE"
);
}
);
};
components = (
{
name = E;
},
{
name = macroncomb;
transform = "{1, 0, 0, 1, 266, 280}";
}
);
layerId = "4C458150-A1D2-4ED7-A293-C8767657F79E";
width = 712;
},
{
background = {
paths = (
{
closed = 1;
nodes = (
"554 0 LINE",
"571 179 LINE",
"544 179 LINE",
"538 124 OFFCURVE",
"520 40 OFFCURVE",
"456 40 CURVE SMOOTH",
"201 40 LINE",
"201 659 LINE",
"441 659 LINE SMOOTH",
"516 659 OFFCURVE",
"525 567 OFFCURVE",
"528 527 CURVE",
"555 527 LINE",
"555 700 LINE",
"16 700 LINE",
"16 673 LINE",
"44 673 LINE SMOOTH",
"83 673 OFFCURVE",
"103 662 OFFCURVE",
"103 637 CURVE SMOOTH",
"103 62 LINE SMOOTH",
"103 37 OFFCURVE",
"83 26 OFFCURVE",
"44 26 CURVE SMOOTH",
"16 26 LINE",
"16 0 LINE"
);
},
{
closed = 1;
nodes = (
"455 251 LINE",
"455 485 LINE",
"431 485 LINE",
"427 436 OFFCURVE",
"424 388 OFFCURVE",
"379 388 CURVE SMOOTH",
"162 388 LINE",
"162 348 LINE",
"379 348 LINE SMOOTH",
"424 348 OFFCURVE",
"427 300 OFFCURVE",
"431 251 CURVE"
);
},
{
closed = 1;
nodes = (
"495 782 LINE",
"495 824 LINE",
"162 824 LINE",
"162 782 LINE"
);
}
);
};
components = (
{
name = E;
},
{
name = macroncomb;
transform = "{1, 0, 0, 1, 250, 260}";
}
);
layerId = "73F3E0E0-4CEF-4E72-8F22-4B031C019FE7";
width = 712;
}
);
note = Emacron;
unicode = 0112;
},
